<svg id="rFlapDetail" xmlns="http://www.w3.org/2000/svg" xmlns:xlink="http://www.w3.org/1999/xlink" viewBox="0 0 500 500">
  <defs>
    <clipPath id="clip-path">
      <path d="M179.7,241.8,131.5,332c-66.5-74-17.2-184.9,4.6-195.4Z" fill="none" stroke="#000" stroke-miterlimit="10" stroke-width="0.25"/>
    </clipPath>
    <clipPath id="clip-path-2">
      <path d="M1042.4,617.5c-2.7,4.2-1.5,2.7-2.7,4.2-4.6,5.3-11.3,7.5-13.1,8.3h-162c-12.5,0-19.2-3-23.8-8.3-1.3-1.5-.7-2.6-1.7-4.7Z" fill="none" stroke="#000" stroke-miterlimit="10" stroke-width="0.25"/>
    </clipPath>
    <clipPath id="clip-path-3">
      <path d="M70.8,758.8c70-.6,341,1.9,340.6.3-1.6-3.4-3-20.4-18.2-32.4a58,58,0,0,0-13.3-7.2c-13.7-5.9-33.6-7-62.6-5.3-33.4,1.9-145.9.7-150.5-1h-.6c-33.5-2.4-56.9.1-72.9,5.9a67.8,67.8,0,0,0-18.3,9.7,48.8,48.8,0,0,0-18.9,32.2,1.3,1.3,0,0,0,2,1.3C60.4,760.6,64.3,758.9,70.8,758.8Z" fill="none" stroke="#000" stroke-miterlimit="10" stroke-width="0.25" clip-path="url(#clip-path-2)"/>
    </clipPath>
    <clipPath id="clip-path-4">
      <path d="M49.8-11.9C30-7.8,28.6,5.3,28.6,5.3L10.2,82.5S-6.2,180.9-8.3,198-28.1,482.4-28.1,482.4l-8.2,215.3s1.4,41.2,23.9,56.7,32.1,21.5,54,20.9c-2.3-1.2,5.9-37.5,16.1-47.7a92.4,92.4,0,0,1,22.7-16.5,70.1,70.1,0,0,1,19.3-6.4c28.7-5.9,59.6-2.7,69.7-2.5,0,0,1.6-10,3.7-23.5l6.2-41c1.6-11.1,3.4-22,3.4-22-42.2-13.3-98.6-63-135.4-139.3-23.1-47.9-34-108-39.7-171.3-3-34.7-3.8-70.6,1.4-107.7,4.8-33.8,10.8-68.4,21.2-103.1A321.9,321.9,0,0,1,79.9-4.5Z" fill="none" stroke="#000" stroke-miterlimit="10" stroke-width="0.25" clip-path="url(#clip-path-3)"/>
    </clipPath>
    <clipPath id="clip-path-5">
      <path d="M359.5,343.1c83-77.7,23-222.7-.8-221.2L407.3,13.1c11.6,4.8,140.8,220,19.8,456.1Z" fill="none" stroke="#000" stroke-miterlimit="10" stroke-width="0.25"/>
    </clipPath>
    <clipPath id="clip-path-6">
      <rect x="-36.3" y="-21.6" width="573.4" height="573.39" fill="none"/>
    </clipPath>
    <clipPath id="clip-path-7">
      <path d="M305.7,241.4l47.6,90.5c66.3-73.8,20.9-184.6-1-195.1Z" fill="none" stroke="#000" stroke-miterlimit="10" stroke-width="0.25" clip-path="url(#clip-path)"/>
    </clipPath>
    <clipPath id="clip-path-8">
      <path d="M94.7-.1,205.2,264.2h73.6C281.3,255.9,374,67.3,398.2,4.8c2.7-7-116.8,22.8-142.5,22.6S96.7-5.5,94.7-.1Z" fill="#fff" stroke="#000" stroke-miterlimit="10" stroke-width="0.25"/>
    </clipPath>
    <clipPath id="clip-path-9">
      <path d="M448.3-13.3C468.1-9.1,469.4,4,469.4,4l18.5,77.1s16.4,98.4,18.5,115.5S526.2,481,526.2,481l8.2,215.3s-1.4,41.2-23.9,56.7-64.1,22.8-86,22.3c1.2-.7-2.3-31.2-10.4-42.4-2.5-3.4-1.9-5.6-12.3-14.6-5.1-4.5-9.6-8.5-16.4-10-28.6-6.2-59.2-7.8-69.6-7l-3.6-23.4-6.2-41c-1.6-11.1-3-21.6-3-21.6,42.2-13.3,106.2-64.5,136.9-146.2,16.8-44.8,33.8-85,42.8-132.8,2.1-10.5,4.4-21.3,5.5-32.8,3-34.7,4.6-70.6-1.4-107.6-5.5-33.6-9.7-68.5-22-102.4A392.6,392.6,0,0,0,414.9-2.2Z" fill="none" stroke="#000" stroke-miterlimit="10" stroke-width="0.25" clip-path="url(#clip-path-4)"/>
    </clipPath>
    <clipPath id="clip-path-10">
      <path d="M125.2,343.3C42.8,264,105.5,125,130.3,122.7L85.2,13.2C58.7,42.3-36.1,234.3,58,469.2Z" fill="none" stroke="#000" stroke-miterlimit="10" stroke-width="0.25" clip-path="url(#clip-path-5)"/>
    </clipPath>
    <clipPath id="clip-path-11">
      <path d="M277.4,264.5l17.4-.2L417.3,489.6c-1,7.8-31,54.1-41.3,62.2Z" fill="none"/>
    </clipPath>
   
    </clipPath>
  </defs>
 
  <title>res_flap_detail-03</title>
  <g id="Layer_3" data-name="Layer 3">
    <g clip-path="url(#clip-path-6)">
      <line x1="129.9" y1="122.7" x2="135.6" y2="136.3" fill="none" stroke="#000" stroke-miterlimit="10" stroke-width="0.25"/>
      <g id="grp_4_clip" data-name="grp_4 clip">
        <g clip-path="url(#clip-path-7)">
          <g id="grp_4" data-name="grp 4">
            <path d="M179.7,241.8,131.5,332c-66.5-74-17.2-184.9,4.6-195.4Z" fill="none" stroke="#000" stroke-miterlimit="10" stroke-width="0.25"/>
            <path d="M352.4,136.8c21.9,10.5,67.3,121.3,1,195.1l-47.6-90.5Z" fill="none" stroke="#000" stroke-miterlimit="10" stroke-width="0.25"/>
          </g>
        </g>
        <path d="M179.7,241.8,131.5,332c-66.5-74-17.2-184.9,4.6-195.4Z" fill="none" stroke="#000" stroke-miterlimit="10" stroke-width="0.25"/>
        <path d="M305.7,241.4l47.6,90.5c66.3-73.8,20.9-184.6-1-195.1Z" fill="none" stroke="#000" stroke-miterlimit="10" stroke-width="0.25"/>
      </g>
      <path d="M179.6,241.3l-48.1,90.2c-66.5-74-17.2-184.9,4.6-195.4Z" fill="#fff" stroke="#000" stroke-miterlimit="10" stroke-width="0.25"/>
      <path d="M302.7,244.8,352,332.2c67.6-74.7,22.2-185.4.3-195.9Z" fill="#fff" stroke="#000" stroke-miterlimit="10" stroke-width="0.25"/>
      
	<g id="grp_1_detail">
		<path id="grp_1_detail_path" d="M359.2,343.1c83-77.7,23-222.7-.8-221.2L407,13.1c11.6,4.8,140.8,220,19.8,456.1Zm-234.2.1C42.5,264,105.3,125,130,122.7L84.9,13.2C58.4,42.3-36.4,234.3,57.7,469.2Z" fill="#fff" stroke="#000" stroke-miterlimit="10" stroke-width="0.5"  fill="#fff" stroke="#000" stroke-miterlimit="10" stroke-width="0.5"></path>
		
		<g id="grp_1_detail-fabric" display="none">
			<defs>
				<path id="grp_1_detail_def" d="M359.2,343.1c83-77.7,23-222.7-.8-221.2L407,13.1c11.6,4.8,140.8,220,19.8,456.1Zm-234.2.1C42.5,264,105.3,125,130,122.7L84.9,13.2C58.4,42.3-36.4,234.3,57.7,469.2Z" fill="#fff" stroke="#000" stroke-miterlimit="10" stroke-width="0.5"></path>
			</defs>
			<clipPath id="grp_1_detail_clip_path">
				<use xlink:href="#grp_1_detail_def" overflow="visible"></use>
			</clipPath>
			<g clip-path="url(#grp_1_detail_clip_path)">
				<image overflow="visible" width="650" height="650" id="grp_3_detail_fab_image" xlink:href=""></image>
			</g>
		</g>
	</g>
	
	
	<g id="grp_2_detail">
		<path id="grp_2_detail_path" d="M79.9-4.9A321.9,321.9,0,0,0,30.3,93.9C19.9,128.6,13.9,163.2,9.1,197c-5.2,37.2-4.4,73-1.4,107.7C13.3,368,24.3,428.2,47.4,476c36.8,76.3,93.1,126.1,135.4,139.3,0,0-1.8,10.9-3.4,22l-6.2,41c-2.1,13.5-3.7,23.5-3.7,23.5-10.1-.3-41-3.4-69.7,2.5a70.1,70.1,0,0,0-19.3,6.4,92.4,92.4,0,0,0-22.7,16.5c-10.3,10.3-18.5,46.5-16.1,47.7-21.9.5-31.4-5.3-54-20.9s-23.9-56.7-23.9-56.7L-28.1,482S-10.3,214.7-8.3,197.6,10.2,82.1,10.2,82.1L28.6,5S30-8.1,49.8-12.2Zm335,2.3a392.6,392.6,0,0,1,49.9,95.8c12.3,33.9,16.5,68.8,22,102.4,6,37.1,4.4,72.9,1.4,107.6-1.1,11.5-3.4,22.3-5.5,32.8-9,47.7-26,87.9-42.8,132.8C409.3,550.5,345.3,601.8,303,615.1c0,0,1.4,10.5,3,21.6l6.2,41,3.6,23.4c10.4-.8,41,.8,69.6,7,6.8,1.5,11.3,5.5,16.4,10,10.4,9,9.8,11.2,12.3,14.6,8.1,11.2,11.6,41.7,10.4,42.4,21.9.5,63.4-6.7,86-22.3S534.4,696,534.4,696l-8.2-215.3s-17.8-267.3-19.8-284.4S487.9,80.7,487.9,80.7L469.4,3.6s-1.4-13.1-21.2-17.2Z" fill="#fff" stroke="#000" stroke-miterlimit="10" stroke-width="0.5"  fill="#fff" stroke="#000" stroke-miterlimit="10" stroke-width="0.5"></path>
		
		<g id="grp_2_detail-fabric" display="none">
			<defs>
				<path id="grp_2_detail_def" d="M79.9-4.9A321.9,321.9,0,0,0,30.3,93.9C19.9,128.6,13.9,163.2,9.1,197c-5.2,37.2-4.4,73-1.4,107.7C13.3,368,24.3,428.2,47.4,476c36.8,76.3,93.1,126.1,135.4,139.3,0,0-1.8,10.9-3.4,22l-6.2,41c-2.1,13.5-3.7,23.5-3.7,23.5-10.1-.3-41-3.4-69.7,2.5a70.1,70.1,0,0,0-19.3,6.4,92.4,92.4,0,0,0-22.7,16.5c-10.3,10.3-18.5,46.5-16.1,47.7-21.9.5-31.4-5.3-54-20.9s-23.9-56.7-23.9-56.7L-28.1,482S-10.3,214.7-8.3,197.6,10.2,82.1,10.2,82.1L28.6,5S30-8.1,49.8-12.2Zm335,2.3a392.6,392.6,0,0,1,49.9,95.8c12.3,33.9,16.5,68.8,22,102.4,6,37.1,4.4,72.9,1.4,107.6-1.1,11.5-3.4,22.3-5.5,32.8-9,47.7-26,87.9-42.8,132.8C409.3,550.5,345.3,601.8,303,615.1c0,0,1.4,10.5,3,21.6l6.2,41,3.6,23.4c10.4-.8,41,.8,69.6,7,6.8,1.5,11.3,5.5,16.4,10,10.4,9,9.8,11.2,12.3,14.6,8.1,11.2,11.6,41.7,10.4,42.4,21.9.5,63.4-6.7,86-22.3S534.4,696,534.4,696l-8.2-215.3s-17.8-267.3-19.8-284.4S487.9,80.7,487.9,80.7L469.4,3.6s-1.4-13.1-21.2-17.2Z" fill="#fff" stroke="#000" stroke-miterlimit="10" stroke-width="0.5"></path>
			</defs>
			<clipPath id="grp_2_detail_clip_path">
				<use xlink:href="#grp_2_detail_def" overflow="visible"></use>
			</clipPath>
			<g clip-path="url(#grp_2_detail_clip_path)">
				<image overflow="visible" width="650" height="650" x="0" id="grp_2_detail_fab_image" xlink:href=""></image>
			</g>
		</g>
	</g>
	
	<g id="grp_3_detail">
		<path id="grp_3_detail_path" d="M95.2-.1,205.6,264.2h73.6c2.6-8.3,95.3-196.9,119.5-259.4,2.7-7-116.8,22.8-142.5,22.6S97.2-5.5,95.2-.1Z" fill="#fff" stroke="#000" stroke-miterlimit="10" stroke-width="0.5"></path>
		<g id="grp_3_detail-fabric" display="none">
			<defs>
				<path id="grp_3_detail_def" d="M95.2-.1,205.6,264.2h73.6c2.6-8.3,95.3-196.9,119.5-259.4,2.7-7-116.8,22.8-142.5,22.6S97.2-5.5,95.2-.1Z"></path>
			</defs>
			<clipPath id="grp_3_detail_clip_path">
				<use xlink:href="#grp_3_detail_def" overflow="visible"></use>
			</clipPath>
			<g clip-path="url(#grp_3_detail_clip_path)">
				<image overflow="visible" width="650" height="650" id="grp_3_detail_fab_image" xlink:href=""></image>
			</g>
		</g>
	</g>
	
	<g id="grp_4_detail">
		<path id="grp_4_detail_path" d="M179.6,241.3l-48.1,90.2c-66.5-74-17.2-184.9,4.6-195.4Zm123.1,3.5L352,332.2c67.6-74.7,22.2-185.4.3-195.9Z" fill="#fff" stroke="#000" stroke-miterlimit="10" stroke-width="0.5"  fill="#fff" stroke="#000" stroke-miterlimit="10" stroke-width="0.5"></path>
		
		<g id="grp_4_detail-fabric" display="none">
			<defs>
				<path id="grp_4_detail_def" d="M179.6,241.3l-48.1,90.2c-66.5-74-17.2-184.9,4.6-195.4Zm123.1,3.5L352,332.2c67.6-74.7,22.2-185.4.3-195.9Z" fill="#fff" stroke="#000" stroke-miterlimit="10" stroke-width="0.5"></path>
			</defs>
			<clipPath id="grp_4_detail_clip_path">
				<use xlink:href="#grp_4_detail_def" overflow="visible"></use>
			</clipPath>
			<g clip-path="url(#grp_4_detail_clip_path)">
				<image overflow="visible" width="650" height="650" id="grp_3_detail_fab_image" xlink:href=""></image>
			</g>
		</g>
	</g>
	 
	  <g id="grp_e_detail">
		<path id="grp_e_detail_path" d="M277.4,264.5l17.4-.4L417.3,489.3c-1,7.8-31,54.1-41.3,62.2Z" fill="#fff" stroke="#000" stroke-miterlimit="10" stroke-width="0.5"></path>
		<g id="grp_e_detail-fabric" display="none">
			<defs>
				<path id="grp_e_detail_def" d="M277.4,264.5l17.4-.4L417.3,489.3c-1,7.8-31,54.1-41.3,62.2Z"></path>
			</defs>
			<clipPath id="grp_e_detail_clip_path">
				<use xlink:href="#grp_e_detail_def" overflow="visible"></use>
			</clipPath>
			<g clip-path="url(#grp_e_detail_clip_path)">
				<image overflow="visible" width="650" height="650" id="grp_3_detail_fab_image" xlink:href=""></image>
			</g>
		</g>
	</g>
	  
	  <g id="grp_d_detail">
		<path id="grp_d_detail_path" d="M250.2,264.2l27.1.2,98.9,287.9c-13.9,12.6-42.4,35.6-60.9,40.9Z" fill="#fff" stroke="#000" stroke-miterlimit="10" stroke-width="0.5"></path>
		<g id="grp_d_detail-fabric" display="none">
			<defs>
				<path id="grp_d_detail_def" d="M250.2,264.2l27.1.2,98.9,287.9c-13.9,12.6-42.4,35.6-60.9,40.9Z"></path>
			</defs>
			<clipPath id="grp_d_detail_clip_path">
				<use xlink:href="#grp_d_detail_def" overflow="visible"></use>
			</clipPath>
			<g clip-path="url(#grp_d_detail_clip_path)">
				<image overflow="visible" width="650" height="650" id="grp_3_detail_fab_image" xlink:href=""></image>
			</g>
		</g>
	</g>
	  
	  <g id="grp_c_detail">
		<path id="grp_c_detail_path" d="M232.6,264h17.5l65.4,329.2-14.9,5.6-1.9-10.9c-1.4.1-70.6,8.8-112,0L185,599.8l-19.2-9.3Z" fill="#fff" stroke="#000" stroke-miterlimit="10" stroke-width="0.5"></path>
		<g id="grp_c_detail-fabric" display="none">
			<defs>
				<path id="grp_c_detail_def" d="M232.6,264h17.5l65.4,329.2-14.9,5.6-1.9-10.9c-1.4.1-70.6,8.8-112,0L185,599.8l-19.2-9.3Z"></path>
			</defs>
			<clipPath id="grp_c_detail_clip_path">
				<use xlink:href="#grp_c_detail_def" overflow="visible"></use>
			</clipPath>
			<g clip-path="url(#grp_c_detail_clip_path)">
				<image overflow="visible" width="650" height="650" id="grp_3_detail_fab_image" xlink:href=""></image>
			</g>
		</g>
	</g>
	  
	  <g id="grp_b_detail">
		<path id="grp_b_detail_path" d="M207.7,264h24.9L165.4,590.8c2.3,2.7-38-22-57.4-45.9Z" fill="#fff" stroke="#000" stroke-miterlimit="10" stroke-width="0.5"></path>
		<g id="grp_b_detail-fabric" display="none">
			<defs>
				<path id="grp_b_detail_def" d="M207.7,264h24.9L165.4,590.8c2.3,2.7-38-22-57.4-45.9Z"></path>
			</defs>
			<clipPath id="grp_b_detail_clip_path">
				<use xlink:href="#grp_b_detail_def" overflow="visible"></use>
			</clipPath>
			<g clip-path="url(#grp_b_detail_clip_path)">
				<image overflow="visible" width="650" height="650" id="grp_3_detail_fab_image" xlink:href=""></image>
			</g>
		</g>
	</g>
      
     <g id="grp_a_detail">
		<path id="grp_a_detail_path" d="M188.8,264h18.9l-100.1,280s-37.5-45.3-39.9-55.1Z" fill="#fff" stroke="#000" stroke-miterlimit="10" stroke-width="0.5"></path>
		<g id="grp_a_detail-fabric" display="none">
			<defs>
				<path id="grp_a_detail_def" d="M188.8,264h18.9l-100.1,280s-37.5-45.3-39.9-55.1Z"></path>
			</defs>
			<clipPath id="grp_a_detail_clip_path">
				<use xlink:href="#grp_a_detail_def" overflow="visible"></use>
			</clipPath>
			<g clip-path="url(#grp_a_detail_clip_path)">
				<image overflow="visible" width="650" height="650" id="grp_3_detail_fab_image" xlink:href=""></image>
			</g>
		</g>
	</g>
	 
      <g id="annotations">
        <text class="labels" transform="translate(243.9 96.6)" font-size="16.41" stroke="#000" stroke-miterlimit="10" stroke-width="0.25" font-family="MyriadPro-Regular, Myriad Pro" style="isolation: isolate">3</text>
        <text class="labels" transform="translate(129.1 225.1)" font-size="16.41" stroke="#000" stroke-miterlimit="10" stroke-width="0.25" font-family="MyriadPro-Regular, Myriad Pro" style="isolation: isolate">4</text>
        <text class="labels" transform="translate(351.8 225.1)" font-size="16.41" stroke="#000" stroke-miterlimit="10" stroke-width="0.25" font-family="MyriadPro-Regular, Myriad Pro" style="isolation: isolate">4</text>
        <text class="labels" transform="translate(238.4 457.2)" font-size="16.41" stroke="#000" stroke-miterlimit="10" stroke-width="0.25" font-family="MyriadPro-Regular, Myriad Pro" style="isolation: isolate">5</text>
        <text class="labels" transform="translate(111.3 441.2)" font-size="16.41" stroke="#000" stroke-miterlimit="10" stroke-width="0.25" font-family="MyriadPro-Regular, Myriad Pro" style="isolation: isolate">A</text>
        <text class="labels" transform="translate(159 469.1)" font-size="16.41" stroke="#000" stroke-miterlimit="10" stroke-width="0.25" font-family="MyriadPro-Regular, Myriad Pro" style="isolation: isolate">B</text>
        <text class="labels" transform="translate(238.6 493.7)" font-size="16.41" stroke="#000" stroke-miterlimit="10" stroke-width="0.25" font-family="MyriadPro-Regular, Myriad Pro" style="isolation: isolate">C</text>
        <text class="labels" transform="translate(311.8 470)" font-size="16.41" stroke="#000" stroke-miterlimit="10" stroke-width="0.25" font-family="MyriadPro-Regular, Myriad Pro" style="isolation: isolate">D</text>
        <text class="labels" transform="translate(359.5 441.5)" font-size="16.41" stroke="#000" stroke-miterlimit="10" stroke-width="0.25" font-family="MyriadPro-Regular, Myriad Pro" style="isolation: isolate">E</text>
        <text class="labels" transform="translate(39.8 214.2)" font-size="16.41" stroke="#000" stroke-miterlimit="10" stroke-width="0.25" font-family="MyriadPro-Regular, Myriad Pro" style="isolation: isolate">1</text>
        <text class="labels" transform="translate(426.9 219.7)" font-size="16.41" stroke="#000" stroke-miterlimit="10" stroke-width="0.25" font-family="MyriadPro-Regular, Myriad Pro" style="isolation: isolate">1</text>
      </g>
      <path d="M246.8,187.7a35.2,35.2,0,0,0-12.8,9.1C239.3,195.2,243.2,191.7,246.8,187.7Z" fill="none"/>
      <g id="back_trim" data-name="back trim">
        <polygon id="t3a" class="trim" points="407 12.9 294.8 263.9 279.7 263.9 369.4 71.7 398.7 4.4 407 12.9" fill="#fff" stroke="#000" stroke-miterlimit="10" stroke-width="0.25"/>
        <polygon id="t3b" class="trim" points="84.9 12.3 188.9 263.9 205.6 263.9 95.2 -0.4 84.9 12.3" fill="#fff" stroke="#000" stroke-miterlimit="10" stroke-width="0.25"/>
        <polygon id="t5_outer_b" class="trim" points="179.1 241.4 57.7 469.1 67.7 488.8 188.9 264 179.1 241.4" fill="#fff" stroke="#000" stroke-miterlimit="10" stroke-width="0.25"/>
        <polygon id="t5_outer_a" class="trim" points="303.8 244.3 426.9 468.9 416.5 490.5 295.2 264 303.8 244.3" fill="#fff" stroke="#000" stroke-miterlimit="10" stroke-width="0.25"/>
        <path id="t1a" class="trim" d="M398.7,2.5,414.5-4c6.6,7,11.6,15.9,17.4,25.3,21.7,35,39.4,84.5,48.9,136.7,5.9,32.4,9.8,65.4,9.6,96.4-.7,59.8-13.8,113.2-31.3,162.4-11.8,33.1-24.7,64.5-40.3,93.9-26.3,49.8-70.6,84.6-116.1,103l-2.5-16c44.2-14.6,84.8-46.6,110.3-97.1,35.4-70,68.2-148.1,68.2-244.2S434.8,33.4,399.2,4C397.7,2.8,398.7,2.5,398.7,2.5Z" fill="#fff" stroke="#000" stroke-miterlimit="10" stroke-width="0.25"/>
        <path id="t1b" class="trim" d="M99.9-1.3c-7.5.1-7,2.1-10.7,7.1C44.8,66.5,17.6,158.2,17.6,257.1c0,96.7,19,183.5,59.6,247.5,28,44.2,66,78.8,107.7,94.6l-2.3,15.2c-43.8-16.7-84.6-53.2-114-99.5C26.1,447.5,6,356.3,6,254.9S32.4,56.4,79.8-5.9l18,4.2,4,.3Z" fill="#fff" stroke="#000" stroke-miterlimit="10" stroke-width="0.25"/>
        <path id="t4b" class="trim" d="M135.8,136.1c-25.3,15-68.1,127-4.8,195.4l-6,11.6C51.1,275.7,93.9,134,130,122.6Z" fill="#fff" stroke="#000" stroke-miterlimit="10" stroke-width="0.25"/>
        <path id="t4a" class="trim" d="M351.8,136.4c25.3,15,64.4,126.7-.2,195.5l6.6,11.3c75-67.8,36.4-210.2.3-221.6Z" fill="#fff" stroke="#000" stroke-miterlimit="10" stroke-width="0.25"/>
      </g>
      <g id="grp_3_detail_pinstripes" display="none">
      <polygon id="pinstr_3_left_detail" class="pinstripe" onclick="colorPinstripe(this, this.id)" points="95.2 -0.8 205.6 264.2 212.5 264.2 102.5 -0.4 95.2 -0.8" fill="#fff" stroke="#000" stroke-miterlimit="10" stroke-width="0.25"/>
      <path id="pinstr_3_right_detail" class="pinstripe" onclick="colorPinstripe(this, this.id)" d="M398.7,4.2C372.9,66.9,279.2,263.8,278.9,263.6H272L390.4,4.8Z" fill="#fff" stroke="#000" stroke-miterlimit="10" stroke-width="0.25"/>
      <polygon id="pinstr_3_bottom_detail" class="pinstripe" onclick="colorPinstripe(this, this.id)" points="212.5 264.2 271.7 264 274.9 257.4 209.6 257.2 212.5 264.2" fill="#fff" stroke="#000" stroke-miterlimit="10" stroke-width="0.25"/>
      </g>
      
       <g id="grp_5_detail_pinstripes" data-name="group 5 pinstripes" display="none">
      <polygon id="pinstr_4_detail" class="pinstripe" onclick="colorPinstripe(this, this.id)" points="202.27 264.39 103.35 541.94 107.61 546.61 207.76 264.39 202.27 264.39" fill="#fff" stroke="#000" stroke-miterlimit="10" stroke-width="0.5"/>
      <polygon id="pinstr_5_detail" class="pinstripe" onclick="colorPinstripe(this, this.id)" points="232.73 264.39 165.37 592.3 172.64 596 238.63 264.39 232.73 264.39" fill="#fff" stroke="#000" stroke-miterlimit="10" stroke-width="0.5"/>
      <polygon id="pinstr_6_detail" class="pinstripe" onclick="colorPinstripe(this, this.id)" points="256.19 264.39 323.28 591.34 315.87 594.63 250.29 264.39 256.19 264.39" fill="#fff" stroke="#000" stroke-miterlimit="10" stroke-width="0.5"/>
      <polygon id="pinstr_7_detail" class="pinstripe" onclick="colorPinstripe(this, this.id)" points="276.33 264.66 373.56 555.43 379.78 548.9 281.58 264.49 276.33 264.66" fill="#fff" stroke="#000" stroke-miterlimit="10" stroke-width="0.5"/>
    </g>
	 <symbol id="custom_text_detail" viewBox="-105.605 -65.674 151.211 132.349">
	<text id="r_f_ct01" transform="matrix(1 0 0 -1 0 32)" text-anchor="middle" font-family="'Russo One'" font-size="1.5em">Custom</text>
	<text id="r_f_ct02" transform="matrix(1 0 0 -1 0 -9)" text-anchor="middle" font-family="'Russo One'" font-size="1.5em">Name</text>
	<text id="r_f_ct03" transform="matrix(1 0 0 -1 0 -50)" text-anchor="middle" font-family="'Russo One'" font-size="1.5em">Text</text>
</symbol>
	<g id="resFlapTextAreaDetail" display="none">
		<use xlink:href="#custom_text_detail" width="200" height="300" fill="#815ABF" y="-65.674" transform="matrix(1 0 0 -1 182.6006 205.8916)" overflow="visible" display="inline" cursor="default" x="-75.605" id="rFlapCustomTextDetail01"></use>
	</g>
      <g id="backflap_logo" data-name="backflap logo">
        <path class="no-clear r_flap_logo" d="M337.5,65.6l-4.4,4.8c-1.2,1.3-2.2,2.6-3.4,3.8-4,4-8,8-12.1,11.9a104,104,0,0,1-18.2,14.1,123,123,0,0,1-18.8,9.4c-7.5,2.9-15.1,5.6-22.6,8.6s-16.7,6.5-24.7,10.5-14.7,8.6-20.4,14.9a44.5,44.5,0,0,0-6.8,10,48.4,48.4,0,0,0-3.6,11.2c-.6,2.6-.2,5.3-.2,8a9.4,9.4,0,0,0,.6,2c7.9-11.6,17.2-21.1,29.7-28a8.4,8.4,0,0,1-.8,2.1c-1.5,1.9-3.2,3.7-4.6,5.6s-2.2,3.4-3.2,5.2a1.7,1.7,0,0,0,0,1.1c15.8-16.5,35.3-24.9,57.6-27.4l.2.6a79.4,79.4,0,0,0-7.8,1.5c-6.6,1.9-13.3,3.8-19.4,7.1a119.5,119.5,0,0,0-23.6,15.7c-6.2,5.4-10.8,12.3-14.9,19.4-1.3,2.2-2.3,4.6-3.7,6.8-.4-4.7,1-9.2,1.5-13.8-6.2,5.5-11.5,11.5-12.9,20.3-.8-3.1-1.7-6.1-2.4-9.2a58.6,58.6,0,0,1-1.6-14.4,41.2,41.2,0,0,1,3.9-15.9,45.2,45.2,0,0,1,13.7-17.4A100.6,100.6,0,0,1,240.9,119c7.5-2.9,15.2-5.5,22.7-8.5s16.3-6.6,24.2-10.4a115.3,115.3,0,0,0,15.1-8.9,120.4,120.4,0,0,0,17.8-14.7c4.3-4.4,8.4-9,12.8-13.3a30.8,30.8,0,0,1,6.3-4.6c1.5-.8,2.3-.3,2.4,1.5a14.5,14.5,0,0,1-.1,4.9c-.7,2.8-1.8,5.4-2.7,8.2s-3.6,7.6-6,11.1c-1.3,1.9-2.5,4-3.7,6a8.8,8.8,0,0,0-.5,1.2,31.7,31.7,0,0,1,3.5-.6c1.6-.1,2.1.7,1.5,2.2a12.1,12.1,0,0,1-1.5,2.4l-8.3,10.9-.7,1,3.7-.2c1.8-.2,2.6.6,1.9,2.3a13.7,13.7,0,0,1-2.2,3.7c-3.3,3.6-6.8,7.1-10.3,10.4-1.5,1.4-1.9,3.3-2.8,4.9s-1.6,3.4-3,4.6a31.2,31.2,0,0,0-8.2,10.4c-1.7,3.7-4.5,6.8-8.9,7.8l-3.8.5c-2.2.2-4.1.8-5.6,2.8s-6,5.6-10.5,5c-1.1-.1-2.2-.7-3.3-.9a4.3,4.3,0,0,0-2.4.3c-2.6,1.4-4.6,3.9-7.7,4.6a15.1,15.1,0,0,1-11.6-1.9c2.7,0,5.1.2,7.5,0,4.8-.4,8.6-2.8,11.9-6.2,1.1-1.1,1.9-1.2,3.2-.4,4.4,2.7,7.3,2.3,10.4-1.9a7.9,7.9,0,0,1,6.3-3.6,16.3,16.3,0,0,0,12.5-8.1c.9-1.5,1.2-2.8-1.2-3.6a46.9,46.9,0,0,0,4.8-3.4,66.8,66.8,0,0,0,5.2-5.5,6.8,6.8,0,0,0,.7-2.1l-4.3.8-.3-.5,17.6-14.8-.3-.5-5.9,2.2c-1.3.5-2.7,1.1-4,1.5a4.8,4.8,0,0,1-1.8-.3,4.8,4.8,0,0,1,.6-1.6l5-5.2c3.2-3.2,6.4-6.4,9.5-9.7a21.6,21.6,0,0,0,2.1-3.1l-.3-.2-8.9,3.8a4.6,4.6,0,0,1-1.8-.1,6.4,6.4,0,0,1,.4-1.5,10.4,10.4,0,0,1,1.2-1.6c3-3.7,6.2-7.3,9.1-11.1a101.1,101.1,0,0,0,6.6-10.6,65.7,65.7,0,0,0,3.1-7.3,5,5,0,0,0,.2-1.1Z" stroke="#000" stroke-miterlimit="10" stroke-width="0.25"/>
        <path class="no-clear r_flap_logo" d="M267.6,168.7l4-.7c.3,0,.6.3.9.4a2.9,2.9,0,0,1-.5.9l-6.7,5.6-6.3,5.7.2.4a59.1,59.1,0,0,0,5.4-3c2.2-1.5,4.2-3.4,6.3-5l9-6.4c.2-.1.3-.4.5-.4h2.1c-.3.5-.6,1.3-1.1,1.5a3,3,0,0,0-2.1,3.4,16.6,16.6,0,0,1-.7,3.7l2.3-1.2a2.6,2.6,0,0,1-2.1,2.9,11.5,11.5,0,0,0-4.1,2.6,13.4,13.4,0,0,1-7.4,3.3c-2.1.2-2.9-.5-2.8-3a26.5,26.5,0,0,1-2.6,1.8l-4.5,2.1a24.3,24.3,0,0,0-4.1,2.4c-5.2,4.1-10.5,8.2-16.6,11h-3.3c.4-1,.4-2.2,1.1-2.8a40,40,0,0,1,15.2-9.9l2.2-1.1a19.4,19.4,0,0,1-3.3-.2c-1.2-.3-1.3-1.3-.7-2.5-2,1-3.7,1.9-5.5,2.6s-2.8,1.2-3.4-.2a4,4,0,0,1,.6-3.6c2.2-2.5,4.8-4.7,7.3-6.9l2.7-2.1-.3-.5a46.4,46.4,0,0,0-5.2,2.8c-2.4,1.7-4.7,3.7-6.9,5.6l-4.4,4a5.9,5.9,0,0,1-5.1,1.3c4-4.4,8.9-7.9,13-12.4a29.9,29.9,0,0,0-3.2,1.7l-11.5,8c-1.4,1-2.9,1.7-4.4,2.5s-2.4,1.3-3.5.3-.1-2.4.3-3.6a6.4,6.4,0,0,1,1-1.5c.5-.7,1.5-1,1.1-2.2s.4-.7.7-.9c2.8-2,5.6-4.1,8.5-5.9,1.1-.7,2.6-.5,4-.8l.3.7-14.4,12.2.3.6a10.3,10.3,0,0,0,2.3-.8l7.3-4.8,9.5-6.3a19,19,0,0,1,3.7-1.7c2-.7,2.5-.3,2.1,2l2.5-1.2a16.6,16.6,0,0,1,3.1-1.1c1.6-.3,2.5.8,1.6,2.1a25.2,25.2,0,0,1-3.7,4.4c-2.1,2.1-4.4,4.1-6.7,6.1a4.7,4.7,0,0,0-.5.9,27.1,27.1,0,0,0,7.5-4.1c4-2.9,8.1-5.9,12.2-8.7a12.3,12.3,0,0,1,3.7-1.4C265.8,167.2,267.1,167.3,267.6,168.7ZM251,181.6a41.5,41.5,0,0,0,5-2.8c3.1-2.4,6.1-4.9,9-7.4a7.2,7.2,0,0,0,1.1-1.8h-2.3a2,2,0,0,0-.9.4c-2.5,1.8-5.2,3.5-7.6,5.5S251.5,178.5,251,181.6Zm15.9-.7c3.4-.5,10.2-7.5,10.5-10.7l-10.4,7.3C268.2,178.7,268.2,179.4,267,180.9Zm-20.3,6.3a32,32,0,0,0-11.6,8.3C239.8,194,243.5,190.8,246.7,187.2Z" stroke="#000" stroke-miterlimit="10" stroke-width="0.25"/>
        <path class="no-clear r_flap_logo" d="M237.5,164.4c-.2-.2-.9-.6-1-1.1s1.9-2.7,3.5-2.6,1.4.5,1.5,1S239.8,164.3,237.5,164.4Z" stroke="#000" stroke-miterlimit="10" stroke-width="0.25"/>
      </g>
    </g>
  </g>
</svg>
