<svg id="sidewallDetail" data-name="Sidewall Detail" xmlns="http://www.w3.org/2000/svg" xmlns:xlink="http://www.w3.org/1999/xlink" viewBox="0 0 500 500">
  <defs>
    <clipPath id="clip-path">
      <rect x="1" width="500" height="500" fill="none" stroke="#000" stroke-miterlimit="10" stroke-width="0.5"/>
    </clipPath>
  </defs>
  <title>sidewall-detail</title>
  <g>
    <g clip-path="url(#clip-path)">
      <path d="M457.9,395.8l6.3,1.6a109.4,109.4,0,0,1,23,12.7,137.9,137.9,0,0,1,29.6,28.2,136.3,136.3,0,0,1,21.4,38,124.5,124.5,0,0,1,6.4,24.2,116.5,116.5,0,0,1,1.5,20.4,63.1,63.1,0,0,1-2.1,15.4,48.4,48.4,0,0,1-8.7,17.8l-2,.4-3,.4" fill="none" stroke="#000" stroke-linecap="round" stroke-linejoin="round" stroke-width="0.5"/>
      <path d="M464.2,397.4l.8.2a163.7,163.7,0,0,0-17.6-5.7q-22.3-8.4-62.2-22.4Q329.4,350,319,347.1l-6.4-1H311c-5.4-1.9-14.6-1.8-24.2-5.3l-31.5-11.3q-26.5-9.4-43.8-14l-12.2-2.8" fill="none" stroke="#000" stroke-linecap="round" stroke-linejoin="round" stroke-width="0.5"/>
      <line x1="412.3" y1="386.4" x2="412.2" y2="386.4" fill="none" stroke="#000" stroke-linecap="round" stroke-linejoin="round" stroke-width="0.5"/>
      <path d="M182.7,311.3l1.4.3a80.7,80.7,0,0,1,9.2,3.1l2.6-2.4,3.3.4-3.1-.5h.1a1.6,1.6,0,0,1,.8-.6" fill="none" stroke="#000" stroke-linecap="round" stroke-linejoin="round" stroke-width="0.5"/>
     
	
		<g id="right_sidewall_detail">
		<path id="right_sidewall_detail_path" d="M474.1,449.6v.6s-29.4-31.5-82.2-46.7c-40.3-11.5-94.5-25.1-141-37.9-80.3-22.2-183.7-33.1-200.8-33.3-36.3-.4-33.6,97.3-16.5,106.4.2.1-.1-.2,0,0s.9,4.7,1.8,3.8L474,450.2Z" fill="#fff" stroke="#000" stroke-miterlimit="10" stroke-width="0.5"  fill="#fff" stroke="#000" stroke-miterlimit="10" stroke-width="0.5"></path>
		
		<g id="right_sidewall_detail-fabric" display="none">
			<defs>
				<path id="right_sidewall_detail_def" d="M474.1,449.6v.6s-29.4-31.5-82.2-46.7c-40.3-11.5-94.5-25.1-141-37.9-80.3-22.2-183.7-33.1-200.8-33.3-36.3-.4-33.6,97.3-16.5,106.4.2.1-.1-.2,0,0s.9,4.7,1.8,3.8L474,450.2Z" fill="#fff" stroke="#000" stroke-miterlimit="10" stroke-width="0.5"></path>
			</defs>
			<clipPath id="right_sidewall_detail_clip_path">
				<use xlink:href="#right_sidewall_detail_def" overflow="visible"></use>
			</clipPath>
			<g clip-path="url(#right_sidewall_detail_clip_path)">
				<image overflow="visible" width="650" height="650" id="right_sidewall_detail_fab_image" xlink:href=""></image>
			</g>
		</g>
	</g>
	
	<g id="left_sidewall_detail">
		<path id="left_sidewall_detail_path" d="M45.4,186.2,484,178.6c1,.9,1.8-3.8,1.8-3.8h0C503,165.7,505.7,68,469.4,68.4c-17.2.2-120.5,11.1-200.8,33.3-46.5,12.9-100.7,26.4-141,37.9-52.9,15.2-82.2,46.7-82.2,46.7h0Z" fill="#fff" stroke="#000" stroke-miterlimit="10" stroke-width="0.5"  fill="#fff" stroke="#000" stroke-miterlimit="10" stroke-width="0.5"></path>
		
		<g id="left_sidewall_detail-fabric" display="none">
			<defs>
				<path id="left_sidewall_detail_def" d="M45.4,186.2,484,178.6c1,.9,1.8-3.8,1.8-3.8h0C503,165.7,505.7,68,469.4,68.4c-17.2.2-120.5,11.1-200.8,33.3-46.5,12.9-100.7,26.4-141,37.9-52.9,15.2-82.2,46.7-82.2,46.7h0Z" fill="#fff" stroke="#000" stroke-miterlimit="10" stroke-width="0.5"></path>
			</defs>
			<clipPath id="left_sidewall_detail_clip_path">
				<use xlink:href="#left_sidewall_detail_def" overflow="visible"></use>
			</clipPath>
			<g clip-path="url(#left_sidewall_detail_clip_path)">
				<image overflow="visible" width="650" height="650" id="left_sidewall_detail_fab_image" xlink:href=""></image>
			</g>
		</g>
	</g>
      
	  
	  <path d="M527.9,555.4l2.2.4,3-.4,2-.4a48.4,48.4,0,0,0,8.7-17.8,63.1,63.1,0,0,0,2.1-15.4,116.5,116.5,0,0,0-1.5-20.4,124.5,124.5,0,0,0-6.4-24.2,136.3,136.3,0,0,0-21.4-38A137.9,137.9,0,0,0,487,411a109.4,109.4,0,0,0-23-12.7l-6.3-1.6" fill="none" stroke="#000" stroke-linecap="round" stroke-linejoin="round" stroke-width="0.5"/>
      <path d="M197.1,311l14.1,5.4q17.3,4.6,43.8,14l31.5,11.3c9.6,3.4,18.8,3.4,24.2,5.3h1.7l6.4,1q10.4,2.8,66.1,22.4,39.9,13.9,62.2,22.4a163.7,163.7,0,0,1,17.6,5.7l-.8-.2" fill="none" stroke="#000" stroke-linecap="round" stroke-linejoin="round" stroke-width="0.5"/>
      <path d="M42.9,333.2c4.2-2.6,9.4-3.8,16.2-6.8Q80.8,317,96,314.1l13.1-2.5q8.7-1.7,16.7-2.5a82.2,82.2,0,0,1,20.2-4.5,104.9,104.9,0,0,1,24.2.2,102.8,102.8,0,0,1,27.1,7.3l-.6.4.8-.4" fill="none" stroke="#000" stroke-linecap="round" stroke-linejoin="round" stroke-width="0.5"/>
      <path d="M524.8,555.7c2.4-3.3,5.1-5.9,6.7-9.7a57.4,57.4,0,0,0,4.3-22.4c-.8-73-60.2-72.5-60.2-72.5s-30.2-30.2-83.2-45.7C352,393.5,298,378.8,251.1,366.5c-80.7-21.2-184.7-37.6-201.2-34.1-2.1.5-5.1-.4-6.9.7" fill="none" stroke="#000" stroke-linecap="round" stroke-linejoin="round" stroke-width="0.5"/>
      
	  	<g id="grp_2_sidewall_detail">
		<path id="grp_2_sidewall_detail_path" d="M525.7,555.1c2.4-3.3,5.3-6.8,6.9-10.6,2.7-6.7,3.1-12.1,3.5-20.3,3.6-70-62.3-73.3-60.3-73.5,0,0-27.7-28.5-80.5-44.8-40.1-12.3-94.3-26.6-141.1-39.4C173.7,344.6,70,329,53.2,331.9c-.4.1-7,0-8.8,1l4.2-2.2c6.5-2.3,11.1-4.4,16.2-6.2,14.5-6.3,23.6-8.8,33.7-10.8l13.3-2.4c5.8-1.1,12.3-2.5,17.6-3s12.4-.6,19.6-.7c11.4.2,15.6,1.1,23.1,2.1,9.5,2.1,15,2.1,21,5.7l3-3.3,17.9,4.8c11.3,3.6,25.9,8.2,43.6,14.5l31.5,11.3c9.6,3.4,19,3,24.4,4.9l1.5.4c.2-.5,4,.2,6.4,1q10.4,2.8,66.1,22.4,39.9,13.9,62.2,22.4c5.9,1.6,11.8,3.5,18,5.5l21.5,13.3A153,153,0,0,1,518,441.2c9.3,11.7,15.5,25.6,20.4,39.1,3,8,4.3,15,5.6,23.1a103.4,103.4,0,0,1,1.4,19.3,59.4,59.4,0,0,1-2.5,14.9c-1.8,6.7-2.8,9.3-6.9,14.5l-1.3,1.4-2.8.6-1.6.3ZM-11,290.5l-1.6-.3-2.8-.6-1.3-1.4c-4.1-5.2-5.1-7.8-6.9-14.5A59.4,59.4,0,0,1-26,258.8a103.4,103.4,0,0,1,1.4-19.3c1.3-8.1,2.6-15.1,5.6-23.1,5-13.6,11.1-27.4,20.4-39.1A208.1,208.1,0,0,1,30,147.6l21.5-13.3c7-1.7,12.1-4.2,18-5.7,14.9-5.6,35.7-11.7,62.3-21,37.1-13.1,58.8-21.1,65.7-23,2.3-.8,6.8-2.5,7-2l4-1c7-1,12-1,22-4l31-11c17.5-6.9,32.3-11.7,44-14l17.7-4.3,3,3.3c6.1-3.6,11.6-3.7,21-5.7,7.5-1,11.7-1.9,23.1-2.1,7.2.1,13.2-.8,19.6.7s11.8,1.9,17.6,3l13.3,2.4c10.1,1.9,19.3,4.5,33.7,10.8,5.2,1.7,9.7,3.8,16.2,6.2l4.2,2.2c-1.8-1.1-8.4-1-8.8-1-16.8-2.9-120.6,12.7-201,34.6C218.2,115.5,164,129.8,124,142.1c-52.8,16.2-80.5,44.8-80.5,44.8,2,.2-64,3.4-60.3,73.5.4,8.2.8,13.7,3.5,20.3,1.6,3.8,4.5,7.3,6.9,10.6Z" fill="#fff" stroke="#000" stroke-miterlimit="10" stroke-width="0.5"  fill="#fff" stroke="#000" stroke-miterlimit="10" stroke-width="0.5"></path>
		
		<g id="grp_2_sidewall_detail-fabric" display="none">
			<defs>
				<path id="grp_2_sidewall_detail_def" d="M525.7,555.1c2.4-3.3,5.3-6.8,6.9-10.6,2.7-6.7,3.1-12.1,3.5-20.3,3.6-70-62.3-73.3-60.3-73.5,0,0-27.7-28.5-80.5-44.8-40.1-12.3-94.3-26.6-141.1-39.4C173.7,344.6,70,329,53.2,331.9c-.4.1-7,0-8.8,1l4.2-2.2c6.5-2.3,11.1-4.4,16.2-6.2,14.5-6.3,23.6-8.8,33.7-10.8l13.3-2.4c5.8-1.1,12.3-2.5,17.6-3s12.4-.6,19.6-.7c11.4.2,15.6,1.1,23.1,2.1,9.5,2.1,15,2.1,21,5.7l3-3.3,17.9,4.8c11.3,3.6,25.9,8.2,43.6,14.5l31.5,11.3c9.6,3.4,19,3,24.4,4.9l1.5.4c.2-.5,4,.2,6.4,1q10.4,2.8,66.1,22.4,39.9,13.9,62.2,22.4c5.9,1.6,11.8,3.5,18,5.5l21.5,13.3A153,153,0,0,1,518,441.2c9.3,11.7,15.5,25.6,20.4,39.1,3,8,4.3,15,5.6,23.1a103.4,103.4,0,0,1,1.4,19.3,59.4,59.4,0,0,1-2.5,14.9c-1.8,6.7-2.8,9.3-6.9,14.5l-1.3,1.4-2.8.6-1.6.3ZM-11,290.5l-1.6-.3-2.8-.6-1.3-1.4c-4.1-5.2-5.1-7.8-6.9-14.5A59.4,59.4,0,0,1-26,258.8a103.4,103.4,0,0,1,1.4-19.3c1.3-8.1,2.6-15.1,5.6-23.1,5-13.6,11.1-27.4,20.4-39.1A208.1,208.1,0,0,1,30,147.6l21.5-13.3c7-1.7,12.1-4.2,18-5.7,14.9-5.6,35.7-11.7,62.3-21,37.1-13.1,58.8-21.1,65.7-23,2.3-.8,6.8-2.5,7-2l4-1c7-1,12-1,22-4l31-11c17.5-6.9,32.3-11.7,44-14l17.7-4.3,3,3.3c6.1-3.6,11.6-3.7,21-5.7,7.5-1,11.7-1.9,23.1-2.1,7.2.1,13.2-.8,19.6.7s11.8,1.9,17.6,3l13.3,2.4c10.1,1.9,19.3,4.5,33.7,10.8,5.2,1.7,9.7,3.8,16.2,6.2l4.2,2.2c-1.8-1.1-8.4-1-8.8-1-16.8-2.9-120.6,12.7-201,34.6C218.2,115.5,164,129.8,124,142.1c-52.8,16.2-80.5,44.8-80.5,44.8,2,.2-64,3.4-60.3,73.5.4,8.2.8,13.7,3.5,20.3,1.6,3.8,4.5,7.3,6.9,10.6Z" fill="#fff" stroke="#000" stroke-miterlimit="10" stroke-width="0.5"></path>
			</defs>
			<clipPath id="grp_2_sidewall_detail_clip_path">
				<use xlink:href="#grp_2_sidewall_detail_def" overflow="visible"></use>
			</clipPath>
			<g clip-path="url(#grp_2_sidewall_detail_clip_path)">
				<image overflow="visible" width="650" height="650" id="grp_backpad_detail_fab_image" xlink:href=""></image>
			</g>
		</g>
	</g>
	  
	  
      <path class="trim" d="M184.6,311.7l-1.8-.4a168.1,168.1,0,0,0-52.5-3.3c-1,0-3.3,1-4.2,1.1a79.6,79.6,0,0,1,20.2-4.5,99.6,99.6,0,0,1,24.2.2,90.5,90.5,0,0,1,25.4,7.1l-2.3,2.4A72.8,72.8,0,0,0,184.6,311.7Z" fill="#fff" stroke="#000" stroke-miterlimit="10" stroke-width="0.25"/>
      <path d="M35,442l61,1,304.4,6.5h7.3l64.7,1q64.6,7.8,63.6,72.1c-.1,8.2-.6,16.2-4.3,22.4-9.8,16.5-2.2,7.2.1-6.1a.8.8,0,0,0,0-.1v-.2c.7-3,12.5-80.5-60.6-84.4h-.6L35,445Z" fill="#fff" stroke="#000" stroke-miterlimit="10" stroke-width="0.25"/>
      <rect x="91.1" y="428.4" width="0.8" height="4.24" transform="matrix(-0.02, 1, -1, -0.02, 523.47, 345.96)" fill="none"/>
      <path id="t8bside2" class="trim" d="M532.8,526l-.2-6.1a89.2,89.2,0,0,0-.9-12.1c-.3-2.2-.6-4.1-1.1-6.2s-.7-2.7-1-4.1-1.4-4.5-2.2-6.8l-6.6-11.7a47.4,47.4,0,0,0-13.7-14.4c-6.4-4.6-15.5-6.2-23.1-9-4.9-.9-5.5-.8-7.6-1.3s-1.3-.1-5.6.1L35,445c.2-2.5-.3-2,0-3l436.6,8.6c41,4.6,55.7,23.5,61.8,52.6,1.1,5.2,1.4,10.6,2,16.4,1,8.4-.2,17.4-3.1,22.8-2.8,8.1-2.4,4.7-.8-1.8S532.6,528.5,532.8,526Z" fill="#fff" stroke="#000" stroke-miterlimit="10" stroke-width="0.25"/>
       <symbol id="sw_right_custom_text_detail" viewBox="-125.605 -65.674 300 132.349">
	<text id="swr_ct01" transform="matrix(1 0 0 -1 0 32)" text-anchor="middle" font-family="'Russo One'" font-size="1em">Custom Text</text>
</symbol>
	<g id="sidewallRightTextAreaDetail" display="none">
		<use xlink:href="#sw_right_custom_text_detail" width="250" height="300" fill="#815ABF" y="-405.674" transform="matrix(1 0 0 -1 182.6006 205.8916)" overflow="visible" display="inline" cursor="default" x="-145.605" id="sidewallRightCustomTextDetail01"></use>
	</g>
	  <g>
        <path class="sidewall_right no-clear" d="M68.8,430.7l-.7-2.6a36.9,36.9,0,0,1-1.3-12.9,22.1,22.1,0,0,1,2-7.5,23.5,23.5,0,0,1,2.4-4.3,29.4,29.4,0,0,1,6.4-6.7c1.7-1.2,3.4-2.5,5.2-3.6s4.3-2.4,6.6-3.4,3.6-1.5,5.4-2.2l5.9-2,5.9-2,6.9-2.4c1.9-.7,3.8-1.3,5.6-2.1l7.4-3.6c1.9-1,3.8-1.9,5.5-3.1s3.8-2.6,5.6-4,3.9-3.2,5.8-4.9,3.6-3.5,5.4-5.2,2.1-2.3,3.3-3.3a16,16,0,0,1,3.3-2c.2-.1,1.1.5,1.2.9a11.5,11.5,0,0,1-.2,3.3,16.7,16.7,0,0,1-1.3,4c-1.1,2.3-2.4,4.4-3.7,6.6l-2,3.1a10.3,10.3,0,0,0-1.2,2l1.1-.2h1.1c.9,0,1.3.7.8,1.5l-2.8,3.8-3.7,4.5h2.2c.4,0,1.2.2,1.2.5a2.4,2.4,0,0,1-.3,1.6,8.9,8.9,0,0,1-1.3,1.6l-3.5,3.7-2.5,2.2a6.3,6.3,0,0,0-1.9,2.7,7.8,7.8,0,0,1-2.9,3.9c-1,.6-1.8,1.4-2.7,2.1a1.1,1.1,0,0,0-.3.5,12.5,12.5,0,0,1-3.5,5.6,11.3,11.3,0,0,1-2.1,1.3,8.7,8.7,0,0,1-4.2.9,2.9,2.9,0,0,0-2.8,1.4,5.5,5.5,0,0,1-1.9,1.7,6.5,6.5,0,0,1-4.5,1.2,6.7,6.7,0,0,1-1.4-.5,1.7,1.7,0,0,0-2,.1c-3,2.3-6.3,3.6-10.2,2.1a5.8,5.8,0,0,1-1.5-1.1,13.1,13.1,0,0,0,7-.2,12.3,12.3,0,0,0,5.4-3.4c.5-.5.6-.4,1,0s2.9,1.9,4.7,1.2a3.2,3.2,0,0,0,1.1-.8l2.4-2.7a2.2,2.2,0,0,1,1.1-.3,26.7,26.7,0,0,0,4.5-.8,7.8,7.8,0,0,0,4.2-3.3c.9-1.5,1-1.5-.1-3l.6-.4a10.4,10.4,0,0,0,4.3-2.9,9.4,9.4,0,0,0,1.3-1.9.9.9,0,0,0,0-.8c-.1-.2-.5-.2-.7-.1h-1.6c3.3-3.4,7.6-5.7,10.9-9.1v-.2l-3.2,1.2-3.4,1c-.2,0-.6-.1-.6-.2a.9.9,0,0,1,.2-.7l2.6-2.5,2-2,4.9-4.9a9.1,9.1,0,0,0,1-1.5l-.2-.2-2.8,1.3-2.6.9a2.9,2.9,0,0,1-1.1-.2,2.8,2.8,0,0,1,.3-.9l1.9-2.2,5-6.3a22.1,22.1,0,0,0,2-2.7c1.2-2.1,2.3-4.3,3.4-6.4a6.5,6.5,0,0,0,.3-1.2l-.6.3-3.3,3.4-4.1,3.8c-1.5,1.4-3,3-4.6,4.4s-3.6,3-5.5,4.4-3.1,2-4.6,3l-4.7,2.6a49.5,49.5,0,0,1-9.6,4.2l-6.9,2.3-6.1,2-5.1,1.8c-2.2.8-4.4,1.6-6.6,2.6a71.1,71.1,0,0,0-7.7,3.9,78.8,78.8,0,0,0-7.4,5.4c-.9.7-1.5,1.9-2.4,2.7s-2.7,4.3-3.8,6.6a16.6,16.6,0,0,0-1.2,4.6,34.3,34.3,0,0,0-.3,4.3,4.5,4.5,0,0,0,.3,1.1c1-1.3,1.8-2.4,2.7-3.5l3.9-4.1,3.9-3.6,1.6-1.2,5.1-3.4.5-.3h.8c-.1.3-.1.6-.2.8s-2.5,2.7-3.7,4.2a12,12,0,0,0-1.7,3.1c10-9.6,21.8-14.5,35.5-15.4v.3l-3.1.5a32.9,32.9,0,0,0-3.9.7,51.3,51.3,0,0,0-9.5,3.4c-2.1,1.1-4.3,2.1-6.4,3.3a57.3,57.3,0,0,0-6.1,3.9,36.8,36.8,0,0,0-4.8,4.4,61.7,61.7,0,0,0-5,6.1c-1.3,1.9-2.4,4-3.6,6l-.4.8h-.3a12.9,12.9,0,0,1,.1-2.4c.4-1.9.9-3.8,1.3-5.8C73,421.7,69.7,425.2,68.8,430.7Z"/>
        <path class="sidewall_right no-clear" d="M107.5,424.6l-.9.7a8.6,8.6,0,0,1-2.1,1c-2.5.5-4.4,2.2-6.3,3.8a16.3,16.3,0,0,1-2,1.4l-5.3,3.1a4.8,4.8,0,0,1-1.7.5c-.3,0-.8-.1-.9-.3a1.3,1.3,0,0,1,.1-1.1,10.4,10.4,0,0,1,2.1-2.1c1.8-1.2,3.7-2.3,5.6-3.3s2.2-1,3.3-1.7a8.9,8.9,0,0,1-1.7-.1c-.8-.2-.6-.9-.3-1.7L94.9,426l-2,.6c-.6.1-1.1-.5-1-1.3a5.5,5.5,0,0,1,2.4-3.2l4.3-3.3-.2-.3-3.1,1.8-4.2,3c-1.2,1-2.3,2.1-3.6,3a6.2,6.2,0,0,1-2.3.4l-.2-.3a6.4,6.4,0,0,1,.8-1l5.3-4.2,2.7-2-.2-.3-4.1,2.4L86.6,423l-4.5,2.9a6.1,6.1,0,0,1-2,.7c-.9.2-1.4-.4-1.1-1.2a31.1,31.1,0,0,1,1.8-3.1c-.4-.3-.2-.5.3-.8l3.4-2.2,1.6-1.1a3.6,3.6,0,0,1,3-.3c-2.9,2.7-6.1,4.8-9.1,7.4h.7l3.8-2.1,1-.7,7.2-4.4,1.3-.5c1.3-.4,1.7-.1,1.7,1.2l2.5-1c.6-.2,1.5-.5,1.8.2a1.9,1.9,0,0,1-.5,1.6c-1.2,1.2-2.6,2.3-3.9,3.5l-2.4,2.2.2.3a17.1,17.1,0,0,0,2.4-1.1l6.1-4.1a18.1,18.1,0,0,1,5.5-2.8c1.1-.3,1.7-.1,2,.7l3-.4.2.4-8.7,7.1v.2l1.2-.6a31.2,31.2,0,0,0,2.9-1.6l4.2-3.1,2.9-1.8,1.8-1.3.9-.4c.2,0,.4.2.7.3s-.2.4-.4.5a2.3,2.3,0,0,0-1.6,2.4,7.3,7.3,0,0,1-.5,2.1l1.2-.6.2.2c-.1.2-.2.6-.4.7l-2,1.1-.7.5a8.7,8.7,0,0,1-5.2,2.5C107.7,426.6,107.4,426.3,107.5,424.6Zm-8.4,1.1.8-.2a32.4,32.4,0,0,0,3.3-1.9c1.6-1.2,3.2-2.5,4.7-3.8a4.7,4.7,0,0,0,.7-1h-1.3l-.7.3-2.4,1.5C102.3,421.9,100.3,423.3,99.1,425.7Zm9.8,0c1.9-.2,6-4.1,6.7-6.5l-6.5,4.5C110.1,424.5,109,425.1,108.8,425.7Zm-12.2,3.4a19.2,19.2,0,0,0-7.3,4.8C92.4,433.3,94.4,431,96.7,429.1Z"/>
        <path class="sidewall_right no-clear" d="M91.7,415.2c-.3-.1-.7-.2-.8-.5s.1-.6.3-.9a1.9,1.9,0,0,1,2-1c.7.1.9.5.6,1.1A2.3,2.3,0,0,1,91.7,415.2Z"/>
         
      </g>
      <path d="M61.6,131.8l-6.3,1.6a109.4,109.4,0,0,0-23,12.7A137.9,137.9,0,0,0,2.8,174.3a136.3,136.3,0,0,0-21.4,38A124.5,124.5,0,0,0-25,236.5a116.5,116.5,0,0,0-1.5,20.4,63.1,63.1,0,0,0,2.1,15.4,48.4,48.4,0,0,0,8.7,17.8l2,.4,3,.4" fill="none" stroke="#000" stroke-linecap="round" stroke-linejoin="round" stroke-width="0.5"/>
      <path d="M55.3,133.4l-.8.2a163.7,163.7,0,0,1,17.6-5.7q22.3-8.4,62.2-22.4Q190.1,86,200.5,83.1l6.4-1h1.7c5.4-1.9,14.6-1.8,24.2-5.3l31.5-11.3q26.5-9.4,43.8-14l12.2-2.8" fill="none" stroke="#000" stroke-linecap="round" stroke-linejoin="round" stroke-width="0.5"/>
      <line x1="107.2" y1="122.4" x2="107.2" y2="122.4" fill="none" stroke="#000" stroke-linecap="round" stroke-linejoin="round" stroke-width="0.5"/>
      
      
      <path d="M61.8,132.6l-6.3,1.6a109.4,109.4,0,0,0-23,12.7A137.9,137.9,0,0,0,2.9,175.2a136.3,136.3,0,0,0-21.4,38,124.5,124.5,0,0,0-6.4,24.2,116.5,116.5,0,0,0-1.5,20.4,63.1,63.1,0,0,0,2.1,15.4,48.4,48.4,0,0,0,8.7,17.8l2,.4,3,.4,2.2-.4" fill="none" stroke="#000" stroke-linecap="round" stroke-linejoin="round" stroke-width="0.5"/>
      <path d="M55.5,134.2l-.8.2a163.7,163.7,0,0,1,17.6-5.7q22.3-8.4,62.2-22.4Q190.2,86.8,200.6,84l6.4-1h1.7c5.4-1.9,14.6-1.8,24.2-5.3l31.5-11.3q26.5-9.4,43.8-14l14.2-3.8" fill="none" stroke="#000" stroke-linecap="round" stroke-linejoin="round" stroke-width="0.5"/>
      <path d="M322,48l.8.4-.6-.4a102.8,102.8,0,0,1,27.1-7.3,104.9,104.9,0,0,1,24.2-.2A82.2,82.2,0,0,1,393.7,45q8,.8,16.7,2.5l13.1,2.5q15.1,2.9,36.9,12.3c6.8,2.9,12,4.2,16.2,6.8" fill="none" stroke="#000" stroke-linecap="round" stroke-linejoin="round" stroke-width="0.5"/>
      <path d="M476.6,69.2c-1.8-1.1-4.8-.3-6.9-.7C453.1,64.9,349,81.3,268.4,102.5c-46.8,12.3-100.9,27-141.3,38.8-53,15.5-83.2,45.7-83.2,45.7s-59.4-.5-60.2,72.5A57.4,57.4,0,0,0-12,281.9c1.6,3.8,4.3,6.4,6.7,9.7" fill="none" stroke="#000" stroke-linecap="round" stroke-linejoin="round" stroke-width="0.5"/>
      
      <path class="trim" d="M326,52l-3-4a96.3,96.3,0,0,1,26.2-7.3,99.6,99.6,0,0,1,24.2-.2A79.6,79.6,0,0,1,393.5,45c-1-.1-3.3-1-4.2-1.1A219.2,219.2,0,0,0,337,48l-2,1A83.6,83.6,0,0,0,326,52Z" fill="#fff" stroke="#000" stroke-miterlimit="10" stroke-width="0.25"/>
      <path d="M483.5,178.5l-60.3,1.6-304.1,5.4h-7.3l-64.7,1q-64.6,7.8-63.6,72.1c.1,8.2.6,16.2,4.3,22.4,9.8,16.5,2.2,7.2-.1-6.1a.8.8,0,0,1,0-.1v-.2c-.7-3-12.5-80.5,60.6-84.4h.6l434.7-6.9Z" fill="#fff" stroke="#000" stroke-miterlimit="10" stroke-width="0.5"/>
      
      <path id="t8bside2-2" data-name="t8bside2" class="trim" d="M-12.1,276.7c1.6,6.5,2,9.9-.8,1.8-2.8-5.5-4-14.5-3.1-22.8.7-5.8,1-11.2,2-16.4,6-29.1,20.8-48,61.8-52.6L425,180.5l58.5-2v5l-435,7c-5,0-2.8-.3-5.4-.2s-2.7.4-7.6,1.3c-7.7,2.8-16.7,4.4-23.1,9A47.4,47.4,0,0,0-1.2,215.1l-6.6,11.7c-.8,2.3-1.5,4.6-2.2,6.8s-.6,2.8-1,4.1-.8,4-1.1,6.2a89.2,89.2,0,0,0-.9,12.1l-.2,6.1C-13.1,264.5-13.4,271.6-12.1,276.7Z" fill="#fff" stroke="#000" stroke-miterlimit="10" stroke-width="0.5"/>
       <symbol id="sw_left_custom_text_detail" viewBox="-125.605 -65.674 300 132.349">
	<text id="swL_ct01" transform="matrix(1 0 0 -1 0 32)" text-anchor="middle" font-family="'Russo One'" font-size="1em">Custom Text</text>
</symbol>
	<g id="sidewallLeftTextAreaDetail" display="none">
		<use xlink:href="#sw_left_custom_text_detail" width="250" height="300" fill="#815ABF" y="-140.674" transform="matrix(1 0 0 -1 182.6006 205.8916)" overflow="visible" display="inline" cursor="default" x="80.605" id="sidewallLeftCustomTextDetail01"></use>
	</g>
	  <g>
        <path id="left_side_logo" class="sidewall_left no-clear" d="M365.3,166.7l-.7-2.6a36.9,36.9,0,0,1-1.3-12.9,22.1,22.1,0,0,1,2-7.5,23.5,23.5,0,0,1,2.4-4.3,29.4,29.4,0,0,1,6.4-6.7c1.7-1.2,3.4-2.5,5.2-3.6s4.3-2.4,6.6-3.4,3.6-1.5,5.4-2.2l5.9-2,5.9-2,6.9-2.4c1.9-.7,3.8-1.3,5.6-2.1l7.4-3.6c1.9-1,3.8-1.9,5.5-3.1s3.8-2.6,5.6-4,3.9-3.2,5.8-4.9,3.6-3.5,5.4-5.2,2.1-2.3,3.3-3.3a16,16,0,0,1,3.3-2c.2-.1,1.1.5,1.2.9a11.5,11.5,0,0,1-.2,3.3,16.7,16.7,0,0,1-1.3,4c-1.1,2.3-2.4,4.4-3.7,6.6l-2,3.1a10.3,10.3,0,0,0-1.2,2l1.1-.2H447c.9,0,1.3.7.8,1.5l-2.8,3.8-3.7,4.5h2.2c.4,0,1.2.2,1.2.5a2.4,2.4,0,0,1-.3,1.6,8.9,8.9,0,0,1-1.3,1.6l-3.5,3.7-2.5,2.2a6.3,6.3,0,0,0-1.9,2.7,7.8,7.8,0,0,1-2.9,3.9c-1,.6-1.8,1.4-2.7,2.1a1.1,1.1,0,0,0-.3.5,12.5,12.5,0,0,1-3.5,5.6,11.3,11.3,0,0,1-2.1,1.3,8.7,8.7,0,0,1-4.2.9,2.9,2.9,0,0,0-2.8,1.4,5.5,5.5,0,0,1-1.9,1.7,6.5,6.5,0,0,1-4.5,1.2,6.7,6.7,0,0,1-1.4-.5,1.7,1.7,0,0,0-2,.1c-3,2.3-6.3,3.6-10.2,2.1a5.8,5.8,0,0,1-1.5-1.1,13.1,13.1,0,0,0,7-.2,12.3,12.3,0,0,0,5.4-3.4c.5-.5.6-.4,1,0s2.9,1.9,4.7,1.2a3.2,3.2,0,0,0,1.1-.8l2.4-2.7a2.2,2.2,0,0,1,1.1-.3,26.7,26.7,0,0,0,4.5-.8,7.8,7.8,0,0,0,4.2-3.3c.9-1.5,1-1.5-.1-3l.6-.4a10.4,10.4,0,0,0,4.3-2.9,9.4,9.4,0,0,0,1.3-1.9.9.9,0,0,0,0-.8c-.1-.2-.5-.2-.7-.1H430c3.3-3.4,7.6-5.7,10.9-9.1v-.2l-3.2,1.2-3.4,1c-.2,0-.6-.1-.6-.2a.9.9,0,0,1,.2-.7l2.6-2.5,2-2,4.9-4.9a9.1,9.1,0,0,0,1-1.5l-.2-.2-2.8,1.3-2.6.9a2.9,2.9,0,0,1-1.1-.2,2.8,2.8,0,0,1,.3-.9l1.9-2.2,5-6.3a22.1,22.1,0,0,0,2-2.7c1.2-2.1,2.3-4.3,3.4-6.4a6.5,6.5,0,0,0,.3-1.2l-.6.3-3.3,3.4-4.1,3.8c-1.5,1.4-3,3-4.6,4.4s-3.6,3-5.5,4.4-3.1,2-4.6,3l-4.7,2.6a49.5,49.5,0,0,1-9.6,4.2l-6.9,2.3-6.1,2-5.1,1.8c-2.2.8-4.4,1.6-6.6,2.6a71.1,71.1,0,0,0-7.7,3.9,78.8,78.8,0,0,0-7.4,5.4c-.9.7-1.5,1.9-2.4,2.7s-2.7,4.3-3.8,6.6a16.6,16.6,0,0,0-1.2,4.6,34.3,34.3,0,0,0-.3,4.3,4.5,4.5,0,0,0,.3,1.1c1-1.3,1.8-2.4,2.7-3.5l3.9-4.1,3.9-3.6,1.6-1.2,5.1-3.4.5-.3h.8c-.1.3-.1.6-.2.8s-2.5,2.7-3.7,4.2a12,12,0,0,0-1.7,3.1c10-9.6,21.8-14.5,35.5-15.4v.3l-3.1.5a32.9,32.9,0,0,0-3.9.7,51.3,51.3,0,0,0-9.5,3.4c-2.1,1.1-4.3,2.1-6.4,3.3a57.3,57.3,0,0,0-6.1,3.9,36.8,36.8,0,0,0-4.8,4.4,61.7,61.7,0,0,0-5,6.1c-1.3,1.9-2.4,4-3.6,6l-.4.8h-.3a12.9,12.9,0,0,1,.1-2.4c.4-1.9.9-3.8,1.3-5.8C369.5,157.7,366.2,161.2,365.3,166.7Z"/>
        <path id="left_side_logo_1" class="sidewall_left no-clear" d="M404,160.6l-.9.7a8.6,8.6,0,0,1-2.1,1c-2.5.5-4.4,2.2-6.3,3.8a16.3,16.3,0,0,1-2,1.4l-5.3,3.1a4.8,4.8,0,0,1-1.7.5c-.3,0-.8-.1-.9-.3a1.3,1.3,0,0,1,.1-1.1,10.4,10.4,0,0,1,2.1-2.1c1.8-1.2,3.7-2.3,5.6-3.3s2.2-1,3.3-1.7a8.9,8.9,0,0,1-1.7-.1c-.8-.2-.6-.9-.3-1.7l-2.6,1.2-2,.6c-.6.1-1.1-.5-1-1.3a5.5,5.5,0,0,1,2.4-3.2l4.3-3.3-.2-.3-3.1,1.8-4.2,3c-1.2,1-2.3,2.1-3.6,3a6.2,6.2,0,0,1-2.3.4l-.2-.3a6.4,6.4,0,0,1,.8-1l5.3-4.2,2.7-2-.2-.3-4.1,2.4-2.9,1.9-4.5,2.9a6.1,6.1,0,0,1-2,.7c-.9.2-1.4-.4-1.1-1.2a31.1,31.1,0,0,1,1.8-3.1c-.4-.3-.2-.5.3-.8l3.4-2.2,1.6-1.1a3.6,3.6,0,0,1,3-.3c-2.9,2.7-6.1,4.8-9.1,7.4h.7l3.8-2.1,1-.7,7.2-4.4,1.3-.5c1.3-.4,1.7-.1,1.7,1.2l2.5-1c.6-.2,1.5-.5,1.8.2a1.9,1.9,0,0,1-.5,1.6c-1.2,1.2-2.6,2.3-3.9,3.5l-2.4,2.2.2.3a17.1,17.1,0,0,0,2.4-1.1l6.1-4.1a18.1,18.1,0,0,1,5.5-2.8c1.1-.3,1.7-.1,2,.7l3-.4.2.4-8.7,7.1v.2l1.2-.6a31.2,31.2,0,0,0,2.9-1.6l4.2-3.1,2.9-1.8,1.8-1.3.9-.4c.2,0,.4.2.7.3s-.2.4-.4.5a2.3,2.3,0,0,0-1.6,2.4,7.3,7.3,0,0,1-.5,2.1l1.2-.6.2.2c-.1.2-.2.6-.4.7l-2,1.1-.7.5a8.7,8.7,0,0,1-5.2,2.5C404.2,162.6,403.9,162.3,404,160.6Zm-8.4,1.1.8-.2a32.4,32.4,0,0,0,3.3-1.9c1.6-1.2,3.2-2.5,4.7-3.8a4.7,4.7,0,0,0,.7-1h-1.3l-.7.3-2.4,1.5C398.8,157.9,396.8,159.3,395.6,161.7Zm9.8,0c1.9-.2,6-4.1,6.7-6.5l-6.5,4.5C406.6,160.5,405.5,161.1,405.3,161.7Zm-12.2,3.4a19.2,19.2,0,0,0-7.3,4.8C388.9,169.3,390.9,167,393.2,165.1Z"/>
        <path id="left_side_logo_2" class="sidewall_left no-clear" d="M388.2,151.2c-.3-.1-.7-.2-.8-.5s.1-.6.3-.9a1.9,1.9,0,0,1,2-1c.7.1.9.5.6,1.1A2.3,2.3,0,0,1,388.2,151.2Z"/>
        
      </g>
    </g>
    <rect x="1" width="500" height="500" fill="none" stroke="#000" stroke-miterlimit="10" stroke-width="0.5"/>
  </g>
  <text id="label_sidewall_left" transform="translate(15 60)" font-size="18" font-family="MyriadPro-Regular, Myriad Pro">LEFT</text>
  <text id="label_sidewall_right" transform="translate(15 250)" font-size="18" font-family="MyriadPro-Regular, Myriad Pro">RIGHT</text>
</svg>
