<svg id="rFlapDetail" data-name="resserve flap detail" xmlns="http://www.w3.org/2000/svg" xmlns:xlink="http://www.w3.org/1999/xlink" viewBox="0 0 500 500">
  <defs>
    <clipPath id="clip-path-vision-detail">
      <path d="M191.3,203l-37.8,70.9c-52.2-58.1-13.5-145.3,3.7-153.5Z" fill="none"/>
    </clipPath>
    <clipPath id="clip-path-2-vision-detail">
      <path d="M332.6,282.6c65.2-61,18.1-175-.6-173.8l38.2-85.5c9.1,3.8,110.7,172.9,15.6,358.4Z" fill="none"/>
    </clipPath>
    <clipPath id="clip-path-3-vision-detail">
      <rect y="0.9" width="500" height="500" fill="none"/>
    </clipPath>
    <clipPath id="clip-path-4-vision-detail">
      <path d="M208,477.3c18.4,2.2,45.2,2.2,65.8,0,.5-.1,14.4,98.1,13,97s-91.8.3-91.8-.7C195,570,207.5,477.2,208,477.3Z" fill="none"/>
    </clipPath>
    <clipPath id="clip-path-5-vision-detail">
      <path d="M290.4,202.6l37.4,71.1c52.1-58,16.4-145-.8-153.3Z" fill="none" clip-path="url(#clip-path)"/>
    </clipPath>
    <clipPath id="clip-path-6-vision-detail">
      <path d="M148.6,282.7c-64.8-62.3-15.5-171.5,4-173.3L117.1,23.3C96.2,46.2,21.8,197.1,95.7,381.7Z" fill="none" clip-path="url(#clip-path-2)"/>
    </clipPath>
    <clipPath id="clip-path-7-vision-detail">
      <path d="M268.1,220.8l13.7-.2L378,397.7c-.8,6.1-24.4,42.5-32.4,48.9Z" fill="none"/>
    </clipPath>
    <clipPath id="clip-path-8-vision-detail">
      <path d="M237.5,220.1h9.1L298,478.8l-11.7,4.4-1.5-8.6c-1.1.1-55.4,6.9-88,0l-1.3,9.3-9.7-4.1Z" fill="none"/>
    </clipPath>
    <clipPath id="clip-path-9-vision-detail">
      <path d="M213.3,220.2h19.6L180.1,477c1.8,2.1-29.9-17.3-45.1-36.1Z" fill="none"/>
    </clipPath>
    <clipPath id="clip-path-10-vision-detail">
      <path d="M198.7,220.8h10.5L131.7,438.2s-26.3-32.9-28.3-40.6Z" fill="none"/>
    </clipPath>
  </defs>
  <title>res_flap_detail_vision</title>
  <g clip-path="url(#clip-path-3-vision-detail)">
    <line x1="152.2" y1="109.4" x2="156.7" y2="120" fill="none" stroke="#000" stroke-miterlimit="10" stroke-width="0.5"/>
	
	<g id="grp_6_detail">
		<path id="grp_6_detail_path" d="M208,476.9c18.4,2.2,45.2,2.2,65.8,0,.5-.1,14.4,98.1,13,97s-91.8.3-91.8-.7C195,569.7,207.5,476.8,208,476.9Z" fill="#fff" stroke="#000" stroke-miterlimit="10" stroke-width="0.5"></path>
	<g id="grp_6_detail-fabric" display="none">
		<defs>
			<path id="grp_6_detail_def" d="M208,476.9c18.4,2.2,45.2,2.2,65.8,0,.5-.1,14.4,98.1,13,97s-91.8.3-91.8-.7C195,569.7,207.5,476.8,208,476.9Z"></path>
		</defs>
		<clipPath id="grp_6_detail_clip_path">
			<use xlink:href="#grp_6_detail_def" overflow="visible"></use>
		</clipPath>
		<g clip-path="url(#grp_6_detail_clip_path)">
			<image overflow="visible" width="500" height="500" id="grp_6_detail_fab_image" xlink:href=""></image>
		</g>
		</g>
	</g>
	
	<g id="grp_4_detail">
		<path id="grp_4_detail_path" d="M191.3,203l-37.8,70.9c-52.2-58.1-13.5-145.3,3.7-153.5Zm99.1-.3,37.4,71.1c52.1-58,16.4-145-.8-153.3Z" fill="#fff" stroke="#000" stroke-miterlimit="10" stroke-width="0.5"  fill="#fff" stroke="#000" stroke-miterlimit="10" stroke-width="0.5"></path>
		
		<g id="grp_4_detail-fabric" display="none">
			<defs>
				<path id="grp_4_detail_def" d="M191.3,203l-37.8,70.9c-52.2-58.1-13.5-145.3,3.7-153.5Zm99.1-.3,37.4,71.1c52.1-58,16.4-145-.8-153.3Z" fill="#fff" stroke="#000" stroke-miterlimit="10" stroke-width="0.5"></path>
			</defs>
			<clipPath id="grp_4_detail_clip_path">
				<use xlink:href="#grp_4_detail_def" overflow="visible"></use>
			</clipPath>
			<g clip-path="url(#grp_4_detail_clip_path)">
				<image overflow="visible" width="500" height="500" id="grp_3_detail_fab_image" xlink:href=""></image>
			</g>
		</g>
	</g>
    <path d="M89.3,3.6C73.7,6.8,72.6,17.2,72.6,17.2L58.1,77.8s-12.9,77.4-14.5,90.8S28.1,392,28.1,392L21.6,561.3s1.1,32.3,18.8,44.6,25.2,16.9,42.4,16.4c-1.8-1,4.6-29.4,12.7-37.5a72.6,72.6,0,0,1,17.8-13,55.1,55.1,0,0,1,15.1-5c22.6-4.6,46.8-2.1,54.8-1.9,0,0,1.3-7.8,2.9-18.5l4.8-32.2c1.3-8.7,2.7-17.3,2.7-17.3-33.2-10.4-77.5-49.5-106.4-109.5-18.2-37.6-26.8-84.9-31.2-134.6-2.4-27.3-3-55.4,1.1-84.7,3.8-26.5,8.5-53.7,16.7-81a252.9,252.9,0,0,1,39-77.6Z" fill="none" stroke="#000" stroke-linecap="round" stroke-linejoin="round" stroke-width="0.5"/>
    <path d="M402.4,2.6C418,5.8,419,16.1,419,16.1l14.5,60.6S446.4,154,448,167.5,463.6,391,463.6,391l6.4,169.2s-1.1,32.3-18.8,44.6-50.4,17.9-67.6,17.5c1-.5-1.8-24.5-8.2-33.3-1.9-2.7-1.5-4.4-9.7-11.5-4-3.5-7.5-6.7-12.9-7.8-22.5-4.8-46.5-6.1-54.7-5.5l-2.8-18.4-4.8-32.2c-1.3-8.7-2.4-17-2.4-17,33.2-10.4,83.5-50.7,107.6-114.9,13.2-35.2,26.5-66.8,33.6-104.3,1.6-8.3,3.4-16.8,4.3-25.8,2.4-27.3,3.7-55.4-1.1-84.6-4.3-26.4-7.6-53.8-17.3-80.5a308.5,308.5,0,0,0-39.2-75.3Z" fill="none" stroke="#000" stroke-linecap="round" stroke-linejoin="round" stroke-width="0.5"/>
    <path d="M89.3,3.6C73.7,6.8,72.6,17.2,72.6,17.2L58.1,77.8s-12.9,77.4-14.5,90.8S28.1,392,28.1,392L21.6,561.3s1.1,32.3,18.8,44.6,25.2,16.9,42.4,16.4c-1.8-1,4.6-29.4,12.7-37.5a72.6,72.6,0,0,1,17.8-13,55.1,55.1,0,0,1,15.1-5c22.6-4.6,46.8-2.1,54.8-1.9,0,0,1.3-7.8,2.9-18.5l4.8-32.2c1.3-8.7,2.7-17.3,2.7-17.3-33.2-10.4-77.5-49.5-106.4-109.5-18.2-37.6-26.8-84.9-31.2-134.6-2.4-27.3-3-55.4,1.1-84.7,3.8-26.5,8.5-53.7,16.7-81a252.9,252.9,0,0,1,39-77.6Z" fill="none"/>
    <path d="M402.4,2.6C418,5.8,419,16.1,419,16.1l14.5,60.6S446.4,154,448,167.5,463.6,391,463.6,391l6.4,169.2s-1.1,32.3-18.8,44.6-50.4,17.9-67.6,17.5c1-.5-1.8-24.5-8.2-33.3-1.9-2.7-1.5-4.4-9.7-11.5-4-3.5-7.5-6.7-12.9-7.8-22.5-4.8-46.5-6.1-54.7-5.5l-2.8-18.4-4.8-32.2c-1.3-8.7-2.4-17-2.4-17,33.2-10.4,83.5-50.7,107.6-114.9,13.2-35.2,26.5-66.8,33.6-104.3,1.6-8.3,3.4-16.8,4.3-25.8,2.4-27.3,3.7-55.4-1.1-84.6-4.3-26.4-7.6-53.8-17.3-80.5a308.5,308.5,0,0,0-39.2-75.3Z" fill="none"/>
    
	
	<g id="grp_1_detail">
		<path id="grp_1_detail_path"  d="M332.4,282.6c65.2-61,18.1-175-.6-173.8L370,23.2c9.1,3.8,110.7,172.9,15.6,358.4Zm-184,.1c-64.8-62.3-15.5-171.5,4-173.3L116.9,23.3C96,46.2,21.6,197.1,95.5,381.7Z" fill="#fff" stroke="#000" stroke-miterlimit="10" stroke-width="0.5"  fill="#fff" stroke="#000" stroke-miterlimit="10" stroke-width="0.5"></path>
		
		<g id="grp_1_detail-fabric" display="none">
			<defs>
				<path id="grp_1_detail_def"  d="M332.4,282.6c65.2-61,18.1-175-.6-173.8L370,23.2c9.1,3.8,110.7,172.9,15.6,358.4Zm-184,.1c-64.8-62.3-15.5-171.5,4-173.3L116.9,23.3C96,46.2,21.6,197.1,95.5,381.7Z" fill="#fff" stroke="#000" stroke-miterlimit="10" stroke-width="0.5"></path>
			</defs>
			<clipPath id="grp_1_detail_clip_path">
				<use xlink:href="#grp_1_detail_def" overflow="visible"></use>
			</clipPath>
			<g clip-path="url(#grp_1_detail_clip_path)">
				<image overflow="visible" width="500" height="500" id="grp_1_detail_fab_image" xlink:href=""></image>
			</g>
		</g>
	</g>
	
	<g id="grp_e_detail">
		<path id="grp_e_detail_path" d="M268.1,220.8l13.7-.3L378,397.5c-.8,6.1-24.4,42.5-32.4,48.9Z" fill="#fff" stroke="#000" stroke-miterlimit="10" stroke-width="0.5"></path>
		<g id="grp_e_detail-fabric" display="none">
			<defs>
				<path id="grp_e_detail_def" d="M268.1,220.8l13.7-.3L378,397.5c-.8,6.1-24.4,42.5-32.4,48.9Z"></path>
			</defs>
			<clipPath id="grp_e_detail_clip_path">
				<use xlink:href="#grp_e_detail_def" overflow="visible"></use>
			</clipPath>
			<g clip-path="url(#grp_e_detail_clip_path)">
				<image overflow="visible" width="500" height="500" id="grp_3_detail_fab_image" xlink:href=""></image>
			</g>
		</g>
	</g>
	  
	  <g id="grp_d_detail">
		<path id="grp_d_detail_path" d="M246.8,220.6l21.3.2L345.8,447c-10.9,9.9-33.3,28-47.8,32.2Z" fill="#fff" stroke="#000" stroke-miterlimit="10" stroke-width="0.5"></path>
		<g id="grp_d_detail-fabric" display="none">
			<defs>
				<path id="grp_d_detail_def" d="M246.8,220.6l21.3.2L345.8,447c-10.9,9.9-33.3,28-47.8,32.2Z"></path>
			</defs>
			<clipPath id="grp_d_detail_clip_path">
				<use xlink:href="#grp_d_detail_def" overflow="visible"></use>
			</clipPath>
			<g clip-path="url(#grp_d_detail_clip_path)">
				<image overflow="visible" width="500" height="500" id="grp_3_detail_fab_image" xlink:href=""></image>
			</g>
		</g>
	</g>
	  
	  <g id="grp_c_detail">
		<path id="grp_c_detail_path" d="M232.9,220.4h13.8L298,479.2l-11.7,4.4-1.5-8.6c-1.1.1-55.4,6.9-88,0l-1.3,9.3L180.4,477Z" fill="#fff" stroke="#000" stroke-miterlimit="10" stroke-width="0.5"></path>
		<g id="grp_c_detail-fabric" display="none">
			<defs>
				<path id="grp_c_detail_def" d="M232.9,220.4h13.8L298,479.2l-11.7,4.4-1.5-8.6c-1.1.1-55.4,6.9-88,0l-1.3,9.3L180.4,477Z"></path>
			</defs>
			<clipPath id="grp_c_detail_clip_path">
				<use xlink:href="#grp_c_detail_def" overflow="visible"></use>
			</clipPath>
			<g clip-path="url(#grp_c_detail_clip_path)">
				<image overflow="visible" width="500" height="500" id="grp_3_detail_fab_image" xlink:href=""></image>
			</g>
		</g>
	</g>
	  
	  <g id="grp_b_detail">
		<path id="grp_b_detail_path" d="M213.3,220.4h19.6L180.1,477.2c1.8,2.1-29.9-17.3-45.1-36.1Z" fill="#fff" stroke="#000" stroke-miterlimit="10" stroke-width="0.5"></path>
		<g id="grp_b_detail-fabric" display="none">
			<defs>
				<path id="grp_b_detail_def" d="M213.3,220.4h19.6L180.1,477.2c1.8,2.1-29.9-17.3-45.1-36.1Z"></path>
			</defs>
			<clipPath id="grp_b_detail_clip_path">
				<use xlink:href="#grp_b_detail_def" overflow="visible"></use>
			</clipPath>
			<g clip-path="url(#grp_b_detail_clip_path)">
				<image overflow="visible" width="500" height="500" id="grp_3_detail_fab_image" xlink:href=""></image>
			</g>
		</g>
	</g>
      
     <g id="grp_a_detail">
		<path id="grp_a_detail_path" d="M198.5,220.4h14.8L134.7,440.5s-29.5-35.6-31.4-43.3Z" fill="#fff" stroke="#000" stroke-miterlimit="10" stroke-width="0.5"></path>
		<g id="grp_a_detail-fabric" display="none">
			<defs>
				<path id="grp_a_detail_def" d="M198.5,220.4h14.8L134.7,440.5s-29.5-35.6-31.4-43.3Z"></path>
			</defs>
			<clipPath id="grp_a_detail_clip_path">
				<use xlink:href="#grp_a_detail_def" overflow="visible"></use>
			</clipPath>
			<g clip-path="url(#grp_a_detail_clip_path)">
				<image overflow="visible" width="500" height="500" id="grp_3_detail_fab_image" xlink:href=""></image>
			</g>
		</g>
	</g>

    <polygon id="pinstr-3-left" points="124.9 12.4 211.7 220.6 217.1 220.6 130.7 12.7 124.9 12.4" fill="#fff" stroke="#000" stroke-miterlimit="10" stroke-width="0.25"/>
    <path id="pinstr-3-right" d="M363.4,16.2c-20.3,49.3-93.9,204-94.1,203.8h-5.4L357,16.8Z" fill="#fff" stroke="#000" stroke-miterlimit="10" stroke-width="0.25"/>
    <polygon id="pinstr-3-bottom" points="217.1 220.6 263.6 220.5 266.1 215.3 214.9 215.1 217.1 220.6" fill="#fff" stroke="#000" stroke-miterlimit="10" stroke-width="0.25"/>
	
	<g id="grp_2_detail">
		<path id="grp_2_detail_path" d="M435.9,209.4c-1.3-27-.3-19.2-2.7-44-5.1-26.3-7.7-53.8-17.3-80.5A308.5,308.5,0,0,0,376.7,9.6L402.9.9c15.6,3.2,16.7,13.5,16.7,13.5L434.1,75s12.9,77.4,14.5,90.8,15.6,223.5,15.6,223.5l6.4,169.2s-.8,32.7-18.6,45c-2.3,1.6-3.4,2.8-6.1,4.1l-.7.3c-6.8-12.1-5.2-27.1-5.2-27.1l-3.7-365.1Zm-381,3.9a322.9,322.9,0,0,1,2.9-46.9c3.8-26.5,8.5-53.7,16.7-81a252.9,252.9,0,0,1,39-77.6L89.9,1.9C74.3,5.2,73.2,15.5,73.2,15.5L58.7,76.1s-12.9,77.4-14.5,90.8S28.6,390.4,28.6,390.4L22.2,559.6s0,33.2,17.7,45.5c4.4,3.1,7.7,5.8,11.2,8l2.3,2.2c-6.8-12.1-4.4-26.7-4.4-26.7l6-373.4Z" fill="#fff" stroke="#000" stroke-miterlimit="10" stroke-width="0.5"  fill="#fff" stroke="#000" stroke-miterlimit="10" stroke-width="0.5"></path>
		
		<g id="grp_2_detail-fabric" display="none">
			<defs>
				<path id="grp_2_detail_def" d="M435.9,209.4c-1.3-27-.3-19.2-2.7-44-5.1-26.3-7.7-53.8-17.3-80.5A308.5,308.5,0,0,0,376.7,9.6L402.9.9c15.6,3.2,16.7,13.5,16.7,13.5L434.1,75s12.9,77.4,14.5,90.8,15.6,223.5,15.6,223.5l6.4,169.2s-.8,32.7-18.6,45c-2.3,1.6-3.4,2.8-6.1,4.1l-.7.3c-6.8-12.1-5.2-27.1-5.2-27.1l-3.7-365.1Zm-381,3.9a322.9,322.9,0,0,1,2.9-46.9c3.8-26.5,8.5-53.7,16.7-81a252.9,252.9,0,0,1,39-77.6L89.9,1.9C74.3,5.2,73.2,15.5,73.2,15.5L58.7,76.1s-12.9,77.4-14.5,90.8S28.6,390.4,28.6,390.4L22.2,559.6s0,33.2,17.7,45.5c4.4,3.1,7.7,5.8,11.2,8l2.3,2.2c-6.8-12.1-4.4-26.7-4.4-26.7l6-373.4Z" fill="#fff" stroke="#000" stroke-miterlimit="10" stroke-width="0.5"></path>
			</defs>
			<clipPath id="grp_2_detail_clip_path">
				<use xlink:href="#grp_2_detail_def" overflow="visible"></use>
			</clipPath>
			<g clip-path="url(#grp_2_detail_clip_path)">
				<image overflow="visible" width="500" height="500" x="0" id="grp_2_detail_fab_image" xlink:href=""></image>
			</g>
		</g>
	</g>
	
	<g id="grp_2a_detail">
		<path id="grp_2a_detail_path" d="M54.9,213.3c.1,12.8.8,25.3,1.9,37.7,4.4,49.7,13,97,31.2,134.6,28.9,60,73.2,99.1,106.4,109.5,0,0-1.4,8.6-2.7,17.3l-4.8,32.2c-1.6,10.6-2.9,18.5-2.9,18.5-8-.2-32.2-2.7-54.8,1.9a55.1,55.1,0,0,0-15.1,5,72.6,72.6,0,0,0-17.8,13c-8.1,8.1-14.5,36.5-12.7,37.5-12.9.3-25.2,2.3-30.7-8.6-3.8-7.4-4.1-12.2-3.8-20C54.2,482.8,49.5,213.3,54.9,213.3Zm380.3,25.1q-.4,5.8-.9,11.6c-.9,9-2.7,17.5-4.3,25.8-7.1,37.5-20.4,69.1-33.6,104.3C372.3,444.2,322,484.5,288.8,494.9c0,0,1.1,8.3,2.4,17l4.8,32.2,2.8,18.4c8.2-.6,32.2.6,54.7,5.5,5.4,1.2,8.9,4.3,12.9,7.8,8.2,7.1,7.7,8.8,9.7,11.5,6.3,8.8,9.1,32.8,8.2,33.3,15,.4,42.6-4.3,60.1-13,0,0-5.1-13.3-5.1-18C439.1,498.2,435.2,238.3,435.2,238.3Z" fill="#fff" stroke="#000" stroke-miterlimit="10" stroke-width="0.5"  fill="#fff" stroke="#000" stroke-miterlimit="10" stroke-width="0.5"></path>
		
		<g id="grp_2a_detail-fabric" display="none">
			<defs>
				<path id="grp_2a_detail_def" d="M54.9,213.3c.1,12.8.8,25.3,1.9,37.7,4.4,49.7,13,97,31.2,134.6,28.9,60,73.2,99.1,106.4,109.5,0,0-1.4,8.6-2.7,17.3l-4.8,32.2c-1.6,10.6-2.9,18.5-2.9,18.5-8-.2-32.2-2.7-54.8,1.9a55.1,55.1,0,0,0-15.1,5,72.6,72.6,0,0,0-17.8,13c-8.1,8.1-14.5,36.5-12.7,37.5-12.9.3-25.2,2.3-30.7-8.6-3.8-7.4-4.1-12.2-3.8-20C54.2,482.8,49.5,213.3,54.9,213.3Zm380.3,25.1q-.4,5.8-.9,11.6c-.9,9-2.7,17.5-4.3,25.8-7.1,37.5-20.4,69.1-33.6,104.3C372.3,444.2,322,484.5,288.8,494.9c0,0,1.1,8.3,2.4,17l4.8,32.2,2.8,18.4c8.2-.6,32.2.6,54.7,5.5,5.4,1.2,8.9,4.3,12.9,7.8,8.2,7.1,7.7,8.8,9.7,11.5,6.3,8.8,9.1,32.8,8.2,33.3,15,.4,42.6-4.3,60.1-13,0,0-5.1-13.3-5.1-18C439.1,498.2,435.2,238.3,435.2,238.3Z" fill="#fff" stroke="#000" stroke-miterlimit="10" stroke-width="0.5"></path>
			</defs>
			<clipPath id="grp_2a_detail_clip_path">
				<use xlink:href="#grp_2a_detail_def" overflow="visible"></use>
			</clipPath>
			<g clip-path="url(#grp_2a_detail_clip_path)">
				<image overflow="visible" width="500" height="500" x="0" id="grp_2a_detail_fab_image" xlink:href=""></image>
			</g>
		</g>
	</g>
	 <path id="back_trim" class="trim" d="M370,23.1,281.8,220.3H270L340.4,69.3l23-52.9Zm-253.1-.4,81.8,197.7h13.1L124.9,12.7Zm74,180L95.5,381.6l7.8,15.5,95.3-176.6Zm91.2,17.7,95.3,178,8.1-16.9L288.9,204.9ZM363.8,16.1c27.9,23.1,62.5,122.8,62.5,198.3s-25.8,136.9-53.6,191.9c-20.1,39.6-52,64.8-86.7,76.3l1.9,12.6c35.8-14.4,70.6-41.8,91.2-80.9,12.2-23.1,22.5-47.8,31.7-73.8,14.7-38.8,24.6-80.7,24.6-127.6.2-24.4-2.9-50.3-7.5-75.7-7.5-41-21.4-79.9-38.5-107.4C385,22.3,381,15.3,375.9,9.8L363.4,15S362.7,15.2,363.8,16.1ZM130.2,11.9l-3.1-.2L112.9,8.4c-37.3,48.9-58,125.2-58,204.9s15.8,151.4,49.2,204.2c23.1,36.4,55.2,65.1,89.6,78.2l1.8-11.9c-32.8-12.5-62.6-39.6-84.7-74.4C78.9,359.2,64,290.9,64,215c0-77.7,21.4-149.8,56.3-197.5,2.9-4,2.5-5.5,8.4-5.6Zm22.1,97.4c-28.4,8.9-62,120.3-4,173.3l4.7-9.1c-49.7-53.7-16.1-141.7,3.8-153.5Zm174.3,10.9c19.9,11.8,50.6,99.6-.1,153.6l5.2,8.9c58.9-53.3,28.6-165.2.3-174.1ZM182.1,572.9c-.2-.3,12.9.8,12.9.8s12.7-97.3,13-97.1l-11.1-1.6Zm102.7-98-11.1,1.6c.3-.2,13.4,97.7,13.4,97.7l12.5-.8ZM82.8,622.2s8.5.9,10.9-.5-2.3-6.9,2.9-19.3a65.4,65.4,0,0,1,5.7-10.3c13.6-21.2,54.9-19.8,54.9-19.8l24.9,1.1,1.2-8.6-25.2-.6c-16.1-.4-49.5,1.2-65.6,24.7-.8,1.1-8.8,16.8-9.7,33.4Zm300.8-3.9a68.9,68.9,0,0,0-8.2-29.8,42.7,42.7,0,0,0-32.7-21.6l-16.5-1.7-7.3-.6c-13.6-.9-20.4,0-20.4.5l1.5,8.1,20.3-.5s34.7-1.8,46.4,19.4,6.7,26.3,7.7,29.4,9.2.4,9.2.4Zm-289.3.2c1.6-9.2,22.9-5.8,24.3-6H374.2l-.5-3.2h-254c-3.3.1-25.2-5.3-25.9,6.6ZM426.2,293.6l9.7-62.7c2.8-.5,2.1,181,2.4,235.4,0,1.1,0,4.4,0,4.4V476l.5,24H425.3l.3-15.7V475c0-1.4-.2-9.3-.2-9.3ZM63.5,465.5v17.8l.3,16.8H50.3l.4-24.5V470s.1-5.2.1-6.2c.3-54.4,1-233.4,3.8-232.9l6.8,63.4Z" fill="#fff" stroke="#000" stroke-miterlimit="10" stroke-width="0.25"/>
	<g id="grp_3_detail">
		<path id="grp_3_detail_path" d="M251.5,34.5c20.2.2,114.1-23.2,112-17.7-19,49.1-91.9,197.3-93.9,203.8H211.7L124.9,12.9C126.5,8.6,231.3,34.3,251.5,34.5Z" fill="#fff" stroke="#000" stroke-miterlimit="10" stroke-width="0.5"></path>
		<g id="grp_3_detail-fabric" display="none">
			<defs>
				<path id="grp_3_detail_def" d="M251.5,34.5c20.2.2,114.1-23.2,112-17.7-19,49.1-91.9,197.3-93.9,203.8H211.7L124.9,12.9C126.5,8.6,231.3,34.3,251.5,34.5Z"></path>
			</defs>
			<clipPath id="grp_3_detail_clip_path">
				<use xlink:href="#grp_3_detail_def" overflow="visible"></use>
			</clipPath>
			<g clip-path="url(#grp_3_detail_clip_path)">
				<image overflow="visible" width="500" height="500" id="grp_3_detail_fab_image" xlink:href=""></image>
			</g>
		</g>
	</g>
	
	 <symbol id="custom_text_detail" viewBox="-105.605 -65.674 151.211 132.349">
		<text id="r_f_ct01" transform="matrix(1 0 0 -1 0 32)" text-anchor="middle" font-family="'Russo One'" font-size="1.5em">Custom</text>
		<text id="r_f_ct02" transform="matrix(1 0 0 -1 0 -9)" text-anchor="middle" font-family="'Russo One'" font-size="1.5em">Text</text>
	</symbol>
	<g id="resFlapTextAreaDetail" display="none">
		<use xlink:href="#custom_text_detail" width="200" height="300" fill="#815ABF" y="-65.674" transform="matrix(1 0 0 -1 182.6006 205.8916)" overflow="visible" display="inline" cursor="default" x="-75.605" id="rFlapCustomTextDetail01"></use>
	</g>
	
    <g id="backflap_logo" class="no-clear r_flap_logo" data-name="backflap logo">
      <path class="no-clear r_flap_logo" d="M316.7,52.9l-3.8,4.2-3,3.3c-3.5,3.5-6.9,7-10.5,10.3a90,90,0,0,1-15.8,12.2,106.5,106.5,0,0,1-16.3,8.2c-6.5,2.5-13.1,4.9-19.6,7.5s-14.5,5.6-21.4,9.1a60.8,60.8,0,0,0-17.7,12.9,38.5,38.5,0,0,0-5.9,8.7,41.9,41.9,0,0,0-3.1,9.7c-.5,2.2-.2,4.6-.2,6.9a8.2,8.2,0,0,0,.5,1.8c6.8-10,14.9-18.3,25.7-24.3a7.3,7.3,0,0,1-.7,1.8c-1.3,1.7-2.7,3.2-4,4.9s-1.9,3-2.8,4.5a1.5,1.5,0,0,0,0,1c13.7-14.3,30.6-21.5,49.8-23.8l.2.5a68.8,68.8,0,0,0-6.8,1.3c-5.7,1.7-11.5,3.3-16.8,6.1a103.4,103.4,0,0,0-20.4,13.6c-5.4,4.7-9.3,10.6-12.9,16.8-1.1,1.9-2,4-3.2,5.9-.4-4.1.8-8,1.3-12-5.4,4.7-9.9,10-11.1,17.6-.7-2.6-1.4-5.3-2.1-7.9a50.8,50.8,0,0,1-1.4-12.5,35.7,35.7,0,0,1,3.4-13.7A39.1,39.1,0,0,1,210,112.3a87.1,87.1,0,0,1,23-13.2c6.5-2.5,13.2-4.7,19.6-7.3s14.1-5.7,21-9a99.9,99.9,0,0,0,13-7.7A104.3,104.3,0,0,0,302,62.4c3.7-3.8,7.3-7.8,11.1-11.5a26.6,26.6,0,0,1,5.5-4c1.3-.7,2-.3,2.1,1.3a12.6,12.6,0,0,1-.1,4.2c-.6,2.4-1.6,4.7-2.3,7.1a36,36,0,0,1-5.2,9.6c-1.2,1.7-2.2,3.4-3.2,5.2a7.6,7.6,0,0,0-.4,1.1,27.5,27.5,0,0,1,3.1-.6c1.4-.1,1.8.6,1.3,1.9a10.5,10.5,0,0,1-1.3,2.1l-7.2,9.4-.6.9,3.2-.2c1.6-.2,2.3.6,1.6,2a11.9,11.9,0,0,1-1.9,3.2c-2.9,3.1-5.9,6.1-8.9,9-1.3,1.2-1.6,2.8-2.4,4.3a13.7,13.7,0,0,1-2.6,4,27,27,0,0,0-7.1,9c-1.5,3.2-3.9,5.9-7.7,6.7l-3.2.5a6.1,6.1,0,0,0-4.8,2.4c-2.2,3-5.2,4.8-9.1,4.4-1-.1-1.9-.6-2.9-.7a3.7,3.7,0,0,0-2.1.3c-2.3,1.2-4,3.4-6.7,4a13.1,13.1,0,0,1-10-1.6c2.3,0,4.4.1,6.5,0,4.1-.4,7.5-2.5,10.3-5.3a1.9,1.9,0,0,1,2.8-.4c3.8,2.4,6.3,2,9-1.6a6.9,6.9,0,0,1,5.5-3.1,14.1,14.1,0,0,0,10.9-7c.7-1.3,1-2.4-1-3.1a40.6,40.6,0,0,0,4.2-2.9,57.8,57.8,0,0,0,4.5-4.7,5.9,5.9,0,0,0,.6-1.9l-3.7.7-.3-.5,15.3-12.8-.3-.5-5.1,1.9c-1.2.4-2.3.9-3.5,1.3a4.2,4.2,0,0,1-1.6-.2,4.1,4.1,0,0,1,.5-1.4l4.3-4.5,8.2-8.4A18.7,18.7,0,0,0,309,79l-.3-.2L301,82.1a4,4,0,0,1-1.5-.1,5.6,5.6,0,0,1,.3-1.3,9,9,0,0,1,1-1.4c2.6-3.2,5.4-6.3,7.8-9.6a87.6,87.6,0,0,0,5.7-9.2,56.9,56.9,0,0,0,2.6-6.3,4.3,4.3,0,0,0,.2-.9Zm-63.3,88.3a10.6,10.6,0,0,0-3.2,1.2c-3.6,2.4-7.1,5-10.6,7.5a23.5,23.5,0,0,1-6.5,3.5,4.1,4.1,0,0,1,.4-.7c1.9-1.8,3.9-3.5,5.8-5.3a21.8,21.8,0,0,0,3.2-3.8c.7-1.2,0-2.1-1.4-1.8a14.4,14.4,0,0,0-2.7.9l-2.2,1.1c.4-2-.1-2.4-1.8-1.7a16.5,16.5,0,0,0-3.2,1.5L223,149l-6.4,4.1a8.9,8.9,0,0,1-2,.7l-.3-.5,12.5-10.6-.2-.6c-1.2.2-2.5.1-3.5.7-2.6,1.5-4.9,3.4-7.4,5.1-.3.2-.7.6-.6.7s-.5,1.3-.9,1.9a5.5,5.5,0,0,0-.9,1.3c-.3,1-1.2,2.2-.2,3.1s2.1.3,3-.2,2.6-1.4,3.8-2.2l10-6.9a25.9,25.9,0,0,1,2.8-1.5c-3.5,3.9-7.7,6.9-11.2,10.7a5.1,5.1,0,0,0,4.4-1.1l3.8-3.4c2-1.7,3.9-3.3,6-4.8a40.2,40.2,0,0,1,4.5-2.5l.3.4-2.3,1.8c-2.1,2-4.4,3.8-6.3,6a3.5,3.5,0,0,0-.5,3.1c.6,1.2,2,.6,3,.2s3-1.4,4.8-2.3c-.6,1.1-.5,1.9.6,2.2a16.8,16.8,0,0,0,2.9.2l-1.9,1a34.7,34.7,0,0,0-13.2,8.6c-.6.6-.6,1.6-1,2.5h2.8c5.3-2.4,9.8-5.9,14.4-9.5a21,21,0,0,1,3.5-2.1l3.9-1.8a23,23,0,0,0,2.3-1.6c-.1,2.1.6,2.7,2.4,2.6a11.6,11.6,0,0,0,6.4-2.8,9.9,9.9,0,0,1,3.6-2.2,2.3,2.3,0,0,0,1.8-2.5l-2,1a14.4,14.4,0,0,0,.6-3.2,2.6,2.6,0,0,1,1.8-3c.4-.2.6-.9.9-1.3h-1.8l-.5.3-7.8,5.6c-1.9,1.4-3.6,3-5.5,4.3a51.2,51.2,0,0,1-4.7,2.6l-.2-.3,5.5-5,5.8-4.9a2.5,2.5,0,0,0,.4-.8c-.3-.1-.5-.4-.8-.4l-3.5.6C255.7,141,254.6,140.9,253.4,141.2Zm-7.8,7c2.1-1.7,4.4-3.2,6.6-4.8a1.7,1.7,0,0,1,.8-.4h2a6.2,6.2,0,0,1-1,1.5c-2.6,2.2-5.1,4.4-7.8,6.4a36,36,0,0,1-4.3,2.4C242.2,150.7,244,149.5,245.5,148.2Zm10.1,1.7,9-6.3c-.3,2.8-6.1,8.8-9.1,9.3C256.6,151.5,256.6,150.9,255.6,149.8Zm-27.7,15.6a27.7,27.7,0,0,1,10.1-7.2C235.2,161.4,232.1,164.1,227.9,165.4Zm5.6-29.3c-.1-.4-.8-.8-1.3-.8s-3.2,1.2-3,2.2.7.8.9.9C232,138.4,233.7,137.1,233.5,136.1Z" fill="#000" stroke="#000" stroke-miterlimit="10" stroke-width="0.25"/>
      
    </g>
    <text class="labels" transform="translate(30.2 482.8)" font-size="12.89" font-family="MyriadPro-Regular, Myriad Pro" style="isolation: isolate">2</text>
    <text class="labels" transform="translate(78.6 489.3)" font-size="12.89" font-family="MyriadPro-Regular, Myriad Pro" style="isolation: isolate">2a</text>
    <text class="labels" transform="translate(376.7 487.3)" font-size="12.89" font-family="MyriadPro-Regular, Myriad Pro" style="isolation: isolate">2a</text>
    <text class="labels" transform="translate(448.6 479.2)" font-size="12.89" font-family="MyriadPro-Regular, Myriad Pro" style="isolation: isolate">2</text>
    <g id="annotations">
      <text class="labels" transform="translate(241.8 88.9)" font-size="12.89" font-family="MyriadPro-Regular, Myriad Pro" style="isolation: isolate">3</text>
      <text class="labels" transform="translate(151.6 189.9)" font-size="12.89" font-family="MyriadPro-Regular, Myriad Pro" style="isolation: isolate">4</text>
      <text class="labels" transform="translate(326.6 189.9)" font-size="12.89" font-family="MyriadPro-Regular, Myriad Pro" style="isolation: isolate">4</text>
      <text class="labels" transform="translate(237.5 372.2)" font-size="12.89" font-family="MyriadPro-Regular, Myriad Pro" style="isolation: isolate">5</text>
	   <text class="labels" transform="translate(238.6 493.2)" font-size="12.89" font-family="MyriadPro-Regular, Myriad Pro" style="isolation: isolate">6</text>
      <text class="labels" transform="translate(137.6 359.7)" font-size="12.89" font-family="MyriadPro-Regular, Myriad Pro" style="isolation: isolate">A</text>
      <text class="labels" transform="translate(175.1 381.6)" font-size="12.89" font-family="MyriadPro-Regular, Myriad Pro" style="isolation: isolate">B</text>
      <text class="labels" transform="translate(237.6 400.9)" font-size="12.89" font-family="MyriadPro-Regular, Myriad Pro" style="isolation: isolate">C</text>
      <text class="labels" transform="translate(295.2 382.3)" font-size="12.89" font-family="MyriadPro-Regular, Myriad Pro" style="isolation: isolate">D</text>
      <text class="labels" transform="translate(332.6 359.9)" font-size="12.89" font-family="MyriadPro-Regular, Myriad Pro" style="isolation: isolate">E</text>
      <text class="labels" transform="translate(81.4 181.3)" font-size="12.89" font-family="MyriadPro-Regular, Myriad Pro" style="isolation: isolate">1</text>
      <text class="labels" transform="translate(385.6 185.6)" font-size="12.89" font-family="MyriadPro-Regular, Myriad Pro" style="isolation: isolate">1</text>
    </g>
	<g id="grp_4_detail_pinstripes" display="none">
   <path id="pinstr_grp_4_detail" class="pinstripe" onclick="colorPinstripe(this, this.id)" d="M157.1,119.4l1.7,4.5c-15.8,7.6-50.1,92.5-3.2,144.7l-2.1,4c-48.1-52-19.9-137.4,3-152.8m170.4,0-2.7,6.6c15.8,7.6,47.4,90.4.3,142.5l2.3,4.3c47.8-51.5,22.4-133.9,2.2-151.8Z" fill="#c4a7a7" stroke="#000" stroke-miterlimit="10" stroke-width="0.25"/>
    </g>
    <g id="grp_5_detail_pinstripes" data-name="group 5 pinstripes" display="none">
      <polygon id="pinstr_4_detail" class="pinstripe" onclick="colorPinstripe(this, this.id)" data-name="pinstr-4" points="208.6 220.8 131.5 437.2 134.8 440.8 212.9 220.8 208.6 220.8" fill="#fff" stroke="#000" stroke-miterlimit="10" stroke-width="0.5"/>
      <polygon id="pinstr_5_detail" class="pinstripe" onclick="colorPinstripe(this, this.id)" points="232.4 220.8 179.9 476.4 185.5 479.3 237 220.8 232.4 220.8" fill="#fff" stroke="#000" stroke-miterlimit="10" stroke-width="0.5"/>
      <polygon id="pinstr_6_detail" class="pinstripe" onclick="colorPinstripe(this, this.id)" points="250.7 220.8 302.9 475.7 297.2 478.2 246.1 220.8 250.7 220.8" fill="#fff" stroke="#000" stroke-miterlimit="10" stroke-width="0.5"/>
      <polygon id="pinstr_7_detail" class="pinstripe" onclick="colorPinstripe(this, this.id)" points="266.2 221.5 342 448.1 346.9 443 270.3 221.4 266.2 221.5" fill="#fff" stroke="#000" stroke-miterlimit="10" stroke-width="0.5"/>
    </g>
	<g id="grp_6_detail_pinstripes" display="none">
		<path id="pinstr_area_6_detail" class="pinstripe" onclick="colorPinstripe(this, this.id)" d="M213.4,478.2l-12.9,95.6-5-.7,13-95.5Zm55.1-.1,13,95.8h4.8l-12.9-96.3Z" fill="#999" stroke="#000" stroke-miterlimit="10" stroke-width="0.5"/>
	</g>
	<g id="grp_3_detail_pinstripes" display="none">
    <polygon id="pinstr_3_left_detail" class="pinstripe" onclick="colorPinstripe(this, this.id)" data-name="pinstr-3-left" points="125.1 12.7 211.7 220.4 217.1 220.4 130.8 12.9 125.1 12.7" fill="#fff" stroke="#000" stroke-miterlimit="10" stroke-width="0.25"/>
    <path id="pinstr_3_right_detail" class="pinstripe" onclick="colorPinstripe(this, this.id)" data-name="pinstr-3-right" d="M363.1,16.5c-20.2,49.2-93.7,203.6-93.9,203.4h-5.4L356.6,17Z" fill="#fff" stroke="#000" stroke-miterlimit="10" stroke-width="0.25"/>
	</g>
  </g>
</svg>
