<svg id="rFlapDetailBottom" xmlns="http://www.w3.org/2000/svg" xmlns:xlink="http://www.w3.org/1999/xlink" viewBox="0 0 500 500" display="none">
  <defs>
    <clipPath id="clip-path-res-detail-bottom">
      <rect width="500" height="408.33" fill="none"/>
    </clipPath>
    <clipPath id="clip-path-2-res-detail-bottom">
      <rect x="-368.5" y="-485.6" width="1247" height="1247" fill="none"/>
    </clipPath>
    <clipPath id="clip-path-3-res-detail-bottom">
      <path d="M169.7,134.5c47.4,5.8,116.7,5.8,169.7,0,1.4-.3,37.2,253.2,33.5,250.4s-236.8.8-236.8-1.9C136.1,373.9,168.6,134.2,169.7,134.5Z" fill="none"/>
    </clipPath>
  </defs>
  <title>res_flap_detail_bottom</title>
  <g id="Layer_2" data-name="Layer 2">
    <g clip-path="url(#clip-path-res-detail-bottom)">
      <g clip-path="url(#clip-path-2-res-detail-bottom)">
        <g id="grp_6_clip" data-name="grp_6 clip">
          <g clip-path="url(#clip-path-3-res-detail-bottom)">
            <g id="_6" data-name=" 6">
              <path d="M169.7,133.5c47.4,5.8,116.7,5.8,169.7,0,1.4-.3,37.2,253.2,33.5,250.4s-236.8.8-236.8-1.9C136.1,372.9,168.6,133.2,169.7,133.5Z" fill="none" stroke="#000" stroke-miterlimit="10" stroke-width="0.25"/>
            </g>
          </g>
        </g>
        <g id="_6-2" data-name=" 6">
          <path d="M169.7,132.8c47.4,5.8,116.7,5.8,169.7,0,1.4-.3,37.2,254.8,33.5,252s-236.8.8-236.8-1.9C136.1,373.8,168.6,132.6,169.7,132.8Z" fill="#fff" stroke="#000" stroke-miterlimit="10" stroke-width="0.5"/>
        </g>
        <g id="_7" data-name=" 7">
          <path d="M-94,475c141.9-1.3,691.5,3.9,690.7.6-3.3-6.9-6.1-41.3-36.9-65.7a117.6,117.6,0,0,0-26.9-14.7c-27.7-11.9-68.2-14.1-127-10.8-67.6,3.8-295.8,1.5-305.3-2l-1.2-.3c-68-4.9-115.4.1-147.7,12a137.5,137.5,0,0,0-37.2,19.7c-29.5,22.8-36.6,52.1-38.3,65.2a2.7,2.7,0,0,0,4.1,2.6C-115.1,478.7-107.2,475.3-94,475Z" fill="none" stroke="#000" stroke-linecap="round" stroke-linejoin="round" stroke-width="0.5"/>
        </g>
        <path d="M-136.6-1087.8c-40.2,8.3-43,34.9-43,34.9L-217-896.5s-33.3,199.6-37.4,234.3S-294.6-85.5-294.6-85.5l-16.6,436.7s2.8,83.5,48.5,115.1,65.2,43.5,109.5,42.4c-4.7-2.5,11.9-76,32.7-96.8a187.4,187.4,0,0,1,46-33.5,142.2,142.2,0,0,1,39.1-13c58.2-11.9,120.9-5.5,141.4-5,0,0,3.3-20.2,7.5-47.7L126,229.5c3.3-22.5,6.9-44.6,6.9-44.6C47.3,158-67,57-141.6-97.7c-46.9-97-69-219-80.4-347.4-6.1-70.4-7.8-143.1,2.8-218.5,9.7-68.5,21.9-138.6,43-209.1A652.7,652.7,0,0,1-75.6-1072.9Z" fill="none" stroke="#000" stroke-linecap="round" stroke-linejoin="round" stroke-width="0.5"/>
        <path d="M671.4-1090.6c40.2,8.3,43,34.9,43,34.9l37.4,156.4S785.1-699.6,789.2-665,829.4-88.3,829.4-88.3l16.6,436.7s-2.8,83.5-48.5,115.1-130,46.3-174.4,45.2c2.5-1.4-4.7-63.2-21.1-86-5-6.9-3.9-11.4-25-29.7-10.3-9.1-19.4-17.2-33.3-20.2-57.9-12.5-120.1-15.8-141.1-14.1l-7.2-47.4L383,228.1c-3.3-22.5-6.1-43.8-6.1-43.8,85.7-26.9,215.4-130.9,277.5-296.4,34.1-90.9,68.5-172.5,86.8-269.2,4.2-21.3,8.9-43.3,11.1-66.5,6.1-70.4,9.4-143.1-2.8-218.2-11.1-68.2-19.7-138.9-44.6-207.7a796,796,0,0,0-101.2-194.4Z" fill="none" stroke="#000" stroke-linecap="round" stroke-linejoin="round" stroke-width="0.5"/>
        <g id="_7-2" data-name=" 7">
          <path d="M-94,475c141.9-1.3,691.5,3.9,690.7.6-3.3-6.9-6.1-41.3-36.9-65.7a117.6,117.6,0,0,0-26.9-14.7c-27.7-11.9-68.2-14.1-127-10.8-67.6,3.8-295.8,1.5-305.3-2l-1.2-.3c-68-4.9-115.4.1-147.7,12a137.5,137.5,0,0,0-37.2,19.7c-29.5,22.8-36.6,52.1-38.3,65.2a2.7,2.7,0,0,0,4.1,2.6C-115.1,478.7-107.2,475.3-94,475Z" fill="none"/>
        </g>
        <path d="M-136.6-1087.8c-40.2,8.3-43,34.9-43,34.9L-217-896.5s-33.3,199.6-37.4,234.3S-294.6-85.5-294.6-85.5l-16.6,436.7s2.8,83.5,48.5,115.1,65.2,43.5,109.5,42.4c-4.7-2.5,11.9-76,32.7-96.8a187.4,187.4,0,0,1,46-33.5,142.2,142.2,0,0,1,39.1-13c58.2-11.9,120.9-5.5,141.4-5,0,0,3.3-20.2,7.5-47.7L126,229.5c3.3-22.5,6.9-44.6,6.9-44.6C47.3,158-67,57-141.6-97.7c-46.9-97-69-219-80.4-347.4-6.1-70.4-7.8-143.1,2.8-218.5,9.7-68.5,21.9-138.6,43-209.1A652.7,652.7,0,0,1-75.6-1072.9Z" fill="none"/>
        <path d="M671.4-1090.6c40.2,8.3,43,34.9,43,34.9l37.4,156.4S785.1-699.6,789.2-665,829.4-88.3,829.4-88.3l16.6,436.7s-2.8,83.5-48.5,115.1-130,46.3-174.4,45.2c2.5-1.4-4.7-63.2-21.1-86-5-6.9-3.9-11.4-25-29.7-10.3-9.1-19.4-17.2-33.3-20.2-57.9-12.5-120.1-15.8-141.1-14.1l-7.2-47.4L383,228.1c-3.3-22.5-6.1-43.8-6.1-43.8,85.7-26.9,215.4-130.9,277.5-296.4,34.1-90.9,68.5-172.5,86.8-269.2,4.2-21.3,8.9-43.3,11.1-66.5,6.1-70.4,9.4-143.1-2.8-218.2-11.1-68.2-19.7-138.9-44.6-207.7a796,796,0,0,0-101.2-194.4Z" fill="none"/>
        <g id="e">
          <path d="M324.8-527.5l35.3-.9L608.6-71.4c-1.9,15.8-62.9,109.8-83.7,126.2Z" fill="#fff" stroke="#000" stroke-miterlimit="10" stroke-width="0.25"/>
        </g>
        <g id="d">
          <path d="M269.8-527.9l55,.4L525.4,56.3c-28.3,25.6-86,72.2-123.4,83Z" fill="#fff" stroke="#000" stroke-miterlimit="10" stroke-width="0.25"/>
        </g>
        <g id="c">
          <path d="M234-528.3h35.5L402,139.3l-30.2,11.4-3.9-22.2c-2.8.3-143.1,17.7-227.1,0l-3.3,24.1L98.6,133.8Z" fill="#fff" stroke="#000" stroke-miterlimit="10" stroke-width="0.25"/>
        </g>
        <g id="b">
          <path d="M183.5-528.3H234L97.9,134.3c4.7,5.5-77.1-44.6-116.5-93.2Z" fill="#fff" stroke="#000" stroke-miterlimit="10" stroke-width="0.25"/>
        </g>
        <g id="a">
          <path d="M145.3-528.3h38.3L-19.4,39.5s-76-91.8-81-111.8Z" fill="#fff"/>
        </g>
        <g id="back_trim" data-name="back trim">
          <path id="t1a" class="trim" d="M570.8-1058.6l32.2-13.3c13.3,14.1,23.6,32.2,35.2,51.3,44.1,71,79.9,171.4,99.3,277.3,11.9,65.7,20,132.5,19.4,195.5,1.7,120.7-25.5,229.2-63.5,329.4-24.3,67.2-44,130-80.3,192.3C557.4,73,469.3,147.1,376.9,184.3l-5.8-35.9c89.6-29.7,171.9-94.5,223.8-196.9,71.8-142,138.4-300.3,138.4-495.2S644-995.9,571.9-1055.5C568.9-1058,570.8-1058.6,570.8-1058.6Z" fill="#fff" stroke="#000" stroke-miterlimit="10" stroke-width="0.25"/>
          <path id="t1b" class="trim" d="M-35-1066.5c-15.2.3-14.1,4.2-21.6,14.4-90.1,123.1-145.3,309.2-145.3,509.6,0,196,38.5,372.1,120.9,501.9C-24.1,49,52.9,119.2,137.5,151.3l-4.6,33.5C44.2,151-38.8,74.2-98.4-19.8c-86.2-136.4-127-321.4-127-527.1s53.5-402.6,149.7-528.8l36.6,8.6,8,.6Z" fill="#fff" stroke="#000" stroke-miterlimit="10" stroke-width="0.25"/>
          <path id="t6b" class="trim" d="M141.1,128.5l28.6,4.2c-.8-.6-33.5,250.7-33.5,250.7s-33.8-2.8-33.3-1.9Z" fill="#fff" stroke="#000" stroke-miterlimit="10" stroke-width="0.25"/>
          <path id="t6a" class="trim" d="M367.9,128.5l-28.6,4.2c.8-.6,34.7,252,34.7,252l32.2-1.9Z" fill="#fff" stroke="#000" stroke-miterlimit="10" stroke-width="0.25"/>
          <path id="t7b" class="trim" d="M-153.6,508.4c2.2-43,23-83.5,25-86.2C-87.1,361.5-.8,357.3,40.7,358.4l65.2,1.7-3,22.2-64.3-2.8s-106.5-3.6-141.7,51a168.9,168.9,0,0,0-14.7,26.6c-13.3,32.2-1.4,46.3-7.5,49.9s-28,1.4-28,1.4Z" fill="#fff" stroke="#000" stroke-miterlimit="10" stroke-width="0.25"/>
          <path id="t7a" class="trim" d="M623,498.3a177.7,177.7,0,0,0-21.1-76.8,110.1,110.1,0,0,0-84.3-55.7L475,361.4l-18.9-1.7c-35.2-2.2-52.7,0-52.7,1.4l3.9,20.8,52.4-1.4s89.6-4.7,119.8,50.2,17.2,67.9,20,76,23.8,1.1,23.8,1.1Z" fill="#fff" stroke="#000" stroke-miterlimit="10" stroke-width="0.25"/>
        </g>
        <g id="_7-3" data-name=" 7">
          <path d="M-119.5,480.9a2.7,2.7,0,0,1-4.1-2.6c1.7-13.1,8.8-42.4,38.3-65.2a137.5,137.5,0,0,1,37.2-19.7c32.3-11.9,79.7-16.9,147.7-12l1.2.3c9.4,3.5,237.6,5.8,305.3,2,58.8-3.3,99.3-1.1,127,10.8a117.6,117.6,0,0,1,26.9,14.7c30.8,24.4,33.5,58.8,36.9,65.7.8,3.3-548.8-1.8-690.7-.6C-107.2,474.6-115.1,478-119.5,480.9Z" fill="#fff" stroke="#000" stroke-miterlimit="10"/>
        </g>
        <path d="M-75.6-1073.6A652.7,652.7,0,0,0-176.2-873.4c-21.1,70.4-33.3,140.6-43,209.1-10.5,75.4-8.9,148.1-2.8,218.5,11.4,128.4,33.5,250.4,80.4,347.4C-67,56.3,47.3,157.2,132.9,184.1c0,0-3.6,22.2-6.9,44.6L113.5,312c-4.2,27.4-7.5,47.7-7.5,47.7-20.5-.6-83.2-6.9-141.4,5a142.2,142.2,0,0,0-39.1,13,187.4,187.4,0,0,0-46,33.5c-20.8,20.8-37.4,94.3-32.7,96.8-44.4,1.1-63.8-10.8-109.5-42.4s-48.5-115.1-48.5-115.1l16.6-436.7s36-542.1,40.2-576.7S-217-897.2-217-897.2l37.4-156.4s2.8-26.6,43-34.9Z" fill="#fff" stroke="#000" stroke-miterlimit="10" stroke-width="0.5"/>
        <path d="M603.7-1068.9A796,796,0,0,1,704.9-874.5c25,68.8,33.5,139.5,44.6,207.7,12.2,75.1,8.9,147.8,2.8,218.2-2.2,23.3-6.9,45.2-11.1,66.5-18.3,96.8-52.7,178.3-86.8,269.2C592.4,52.7,462.6,156.7,376.9,183.6c0,0,2.8,21.3,6.1,43.8l12.5,83.2,7.2,47.4c21.1-1.7,83.2,1.7,141.1,14.1,13.9,3,23,11.1,33.3,20.2,21.1,18.3,20,22.7,25,29.7,16.4,22.7,23.6,84.6,21.1,86,44.4,1.1,128.7-13.6,174.4-45.2s48.5-115.1,48.5-115.1L829.4-89s-36-542.1-40.2-576.7S751.8-900,751.8-900l-37.4-156.4s-2.8-26.6-43-34.9Z" fill="#fff" stroke="#000" stroke-miterlimit="10" stroke-width="0.5"/>
        <g id="annotations">
          <text transform="translate(246.2 284)" font-size="33.27" font-family="MyriadPro-Regular, Myriad Pro" style="isolation: isolate">6</text>
        </g>
      </g>
      <path id="grp_6_detail_pinstripes_bottom" class="pinstripe" onclick="colorPinstripe(this, this.id)" d="M182.8,134.3,149.2,383.8,136.1,382l33.8-249.1Zm143.8-.1,33.9,249.8h12.5L339.3,132.7Z" fill="#fff" stroke="#000" stroke-miterlimit="10" stroke-width="0.5"/>
    </g>
  </g>
</svg>
