<svg id="rFlapDetail" xmlns="http://www.w3.org/2000/svg" xmlns:xlink="http://www.w3.org/1999/xlink" viewBox="0 0 500 500">
  <defs>
    <clipPath id="clip-path-rFlapDetail">
      <path d="M188,197.1l-37.4,70.1c-51.6-57.4-13.4-143.5,3.6-151.7Z" fill="none" stroke="#000" stroke-miterlimit="10" stroke-width="0.25"/>
    </clipPath>
    <clipPath id="clip-path-2-rFlapDetail">
      <path d="M327.6,275.8c64.4-60.3,17.8-172.9-.6-171.7l37.8-84.5c9,3.7,109.3,170.8,15.4,354.1Z" fill="none" stroke="#000" stroke-miterlimit="10" stroke-width="0.25"/>
    </clipPath>
    <clipPath id="clip-path-3-rFlapDetail">
      <rect width="500" height="500" fill="none"/>
    </clipPath>
    <clipPath id="clip-path-4-rFlapDetail">
      <path d="M285.9,196.8l36.9,70.3c51.5-57.3,16.2-143.3-.7-151.5Z" fill="none" stroke="#000" stroke-miterlimit="10" stroke-width="0.25" clip-path="url(#clip-path)"/>
    </clipPath>
    <clipPath id="clip-path-5-rFlapDetail">
      <path d="M122,9.4l85.8,205.2h57.1c2-6.5,74-152.8,92.8-201.4C359.8,7.8,267,30.9,247,30.7S123.6,5.1,122,9.4Z" fill="#fff" stroke="#000" stroke-miterlimit="10" stroke-width="0.25"/>
    </clipPath>
    <clipPath id="clip-path-6-rFlapDetail">
      <path d="M145.7,275.9c-64-61.6-15.3-169.4,3.9-171.2l-35-85C94,42.3,20.5,191.3,93.5,373.6Z" fill="none" stroke="#000" stroke-miterlimit="10" stroke-width="0.25" clip-path="url(#clip-path-2)"/>
    </clipPath>
    <clipPath id="clip-path-7-rFlapDetail">
      <path d="M263.8,214.7l13.5-.2,95.1,174.9c-.7,6.1-24.1,42-32.1,48.3Z" fill="none"/>
    </clipPath>
    <clipPath id="clip-path-8-rFlapDetail">
      <path d="M233.6,214h9l50.7,255.6L281.8,474l-1.5-8.5c-1.1.1-54.8,6.8-86.9,0l-1.3,9.2-9.6-4Z" fill="none"/>
    </clipPath>
    <clipPath id="clip-path-9-rFlapDetail">
      <path d="M209.7,214.2H229L176.9,467.8c1.8,2.1-29.5-17.1-44.6-35.7Z" fill="none"/>
    </clipPath>
    <clipPath id="clip-path-10-rFlapDetail">
      <path d="M195.2,214.8h10.4L129.1,429.5s-26-32.5-27.9-40.1Z" fill="none"/>
    </clipPath>
  </defs>
  <title>Reserve Flap Detail</title>
  <g id="Layer_2" data-name="Layer 2">
    <g clip-path="url(#clip-path-3-rFlapDetail)">
      <line x1="149.3" y1="104.7" x2="153.8" y2="115.2" fill="none" stroke="#000" stroke-miterlimit="10" stroke-width="0.25"/>
      <g id="grp_4_clip" data-name="grp_4 clip">
        <g clip-path="url(#clip-path-4-rFlapDetail)">
          <g id="grp_4" data-name="grp 4">
            <path d="M188,197.1l-37.4,70.1c-51.6-57.4-13.4-143.5,3.6-151.7Z" fill="none" stroke="#000" stroke-miterlimit="10" stroke-width="0.25"/>
            <path d="M322.1,115.6c17,8.2,52.2,94.1.7,151.5l-36.9-70.3Z" fill="none" stroke="#000" stroke-miterlimit="10" stroke-width="0.25"/>
          </g>
        </g>
        <path d="M188,197.1l-37.4,70.1c-51.6-57.4-13.4-143.5,3.6-151.7Z" fill="none" stroke="#000" stroke-miterlimit="10" stroke-width="0.25"/>
        <path d="M285.9,196.8l36.9,70.3c51.5-57.3,16.2-143.3-.7-151.5Z" fill="none" stroke="#000" stroke-miterlimit="10" stroke-width="0.25"/>
      </g>
        </g>
        <path d="M122,9.4l85.8,205.2h57.1c2-6.5,74-152.8,92.8-201.4C359.8,7.8,267,30.9,247,30.7S123.6,5.1,122,9.4Z" fill="none" stroke="#000" stroke-miterlimit="10" stroke-width="0.25"/>
      </g>
	  
	  <g id="grp_1_detail">
		<path id="grp_1_detail_path" d="M327.3,275.8c64.4-60.3,17.8-172.9-.6-171.7l37.8-84.5c9,3.7,109.3,170.8,15.4,354.1Zm-181.8.1c-64-61.6-15.3-169.4,3.9-171.2l-35-85C93.6,42.3,20.3,187,93.3,373.6Z" fill="#fff" stroke="#000" stroke-miterlimit="10" stroke-width="0.5"  fill="#fff" stroke="#000" stroke-miterlimit="10" stroke-width="0.5"></path>
		
		<g id="grp_1_detail-fabric" display="none">
			<defs>
				<path id="grp_1_detail_def" d="M327.3,275.8c64.4-60.3,17.8-172.9-.6-171.7l37.8-84.5c9,3.7,109.3,170.8,15.4,354.1Zm-181.8.1c-64-61.6-15.3-169.4,3.9-171.2l-35-85C93.6,42.3,20.3,187,93.3,373.6Z"></path>
			</defs>
			<clipPath id="grp_1_detail_clip_path">
				<use xlink:href="#grp_1_detail_def" overflow="visible"></use>
			</clipPath>
			<g clip-path="url(#grp_1_detail_clip_path)">
				<image overflow="visible" width="500" height="500" id="grp_3_detail_fab_image" xlink:href=""></image>
			</g>
		</g>
	</g>
	  
	  <g id="grp_2_detail">
		<path id="grp_2_detail_path" d="M110.5,5.6A249.9,249.9,0,0,0,72,82.3c-8.1,27-12.7,53.8-16.5,80A435.5,435.5,0,0,0,54.5,246c4.4,49.1,12.8,95.8,30.8,133,28.6,59.2,72.2,97.1,105,107.4,0,0-1.3,9.3-2.6,17.9L182.9,536c-1.6,10.5-2.9,18.3-2.9,18.3-7.9-.2-31.8-2.7-54.1,1.9a54.5,54.5,0,0,0-15,5A71.8,71.8,0,0,0,93.3,574c-8,8-14.3,36.1-12.5,37-17,.4-24.4-4.1-41.9-16.2s-18.6-44-18.6-44l6.4-167.2S40.5,176.1,42.1,162.8,56.4,73.2,56.4,73.2L70.7,13.3S71.8,3.1,87.2-.1Zm259.8.6a313.2,313.2,0,0,1,39,75.6c9,26.5,12.8,53.4,17.1,79.5,3.8,28.5,2.5,56.6.2,83.5-.8,8.9-2.5,17.2-4.1,25.4-7,37-20.2,68.1-33.3,102.9C360.1,443.8,316,473.3,283.5,485.8l2.6,17.8,4.8,31.8,2.8,18.2c8.1-.6,31.8.6,54,5.4,5.3,1.2,8.8,4.2,12.7,7.7,8.1,7,7.6,8.7,9.6,11.4,6.3,8.7,9,32.4,8.1,32.9,17,.4,49.3-5.2,66.8-17.3s18.6-44,18.6-44L457,382.6s-13.8-207.5-15.4-220.8-14.3-89.7-14.3-89.7L412.9,12.2S411.9,2,396.5-1.1Z" fill="#fff" stroke="#000" stroke-miterlimit="10" stroke-width="0.5"></path>
		
		<g id="grp_2_detail-fabric" display="none">
			<defs>
				<path id="grp_2_detail_def" d="M110.5,5.6A249.9,249.9,0,0,0,72,82.3c-8.1,27-12.7,53.8-16.5,80A435.5,435.5,0,0,0,54.5,246c4.4,49.1,12.8,95.8,30.8,133,28.6,59.2,72.2,97.1,105,107.4,0,0-1.3,9.3-2.6,17.9L182.9,536c-1.6,10.5-2.9,18.3-2.9,18.3-7.9-.2-31.8-2.7-54.1,1.9a54.5,54.5,0,0,0-15,5A71.8,71.8,0,0,0,93.3,574c-8,8-14.3,36.1-12.5,37-17,.4-24.4-4.1-41.9-16.2s-18.6-44-18.6-44l6.4-167.2S40.5,176.1,42.1,162.8,56.4,73.2,56.4,73.2L70.7,13.3S71.8,3.1,87.2-.1Zm259.8.6a313.2,313.2,0,0,1,39,75.6c9,26.5,12.8,53.4,17.1,79.5,3.8,28.5,2.5,56.6.2,83.5-.8,8.9-2.5,17.2-4.1,25.4-7,37-20.2,68.1-33.3,102.9C360.1,443.8,316,473.3,283.5,485.8l2.6,17.8,4.8,31.8,2.8,18.2c8.1-.6,31.8.6,54,5.4,5.3,1.2,8.8,4.2,12.7,7.7,8.1,7,7.6,8.7,9.6,11.4,6.3,8.7,9,32.4,8.1,32.9,17,.4,49.3-5.2,66.8-17.3s18.6-44,18.6-44L457,382.6s-13.8-207.5-15.4-220.8-14.3-89.7-14.3-89.7L412.9,12.2S411.9,2,396.5-1.1Z"></path>
			</defs>
			<clipPath id="grp_2_detail_clip_path">
				<use xlink:href="#grp_2_detail_def" overflow="visible"></use>
			</clipPath>
			<g clip-path="url(#grp_2_detail_clip_path)">
				<image overflow="visible" width="500" height="500" x="0" id="grp_2_detail_fab_image" xlink:href=""></image>
			</g>
		</g>
	</g>
	
	
	<g id="grp_3_detail">
		<path id="grp_3_detail_path" d="M122.4,9.4l85.8,205.2h57.1c2-6.5,74-152.8,92.8-201.4,2.1-5.4-90.6,17.7-110.6,17.5S124,5.1,122.4,9.4Z" fill="#fff" stroke="#000" stroke-miterlimit="10" stroke-width="0.5"></path>
		<g id="grp_3_detail-fabric" display="none">
			<defs>
				<path id="grp_3_detail_def" d="M122.4,9.4l85.8,205.2h57.1c2-6.5,74-152.8,92.8-201.4,2.1-5.4-90.6,17.7-110.6,17.5S124,5.1,122.4,9.4Z"></path>
			</defs>
			<clipPath id="grp_3_detail_clip_path">
				<use xlink:href="#grp_3_detail_def" overflow="visible"></use>
			</clipPath>
			<g clip-path="url(#grp_3_detail_clip_path)">
				<image overflow="visible" width="500" height="500" id="grp_3_detail_fab_image" xlink:href=""></image>
			</g>
		</g>
	</g>

	<g id="grp_4_detail">
		<path id="grp_4_detail_path" d="M188,196.7l-37.4,70.1c-51.8-57.6-13.9-143.9,3.6-151.7Zm95.5,2.7,38.1,67.8c52.2-58.6,16.3-143.9.1-151.9Z" fill="#fff" stroke="#000" stroke-miterlimit="10" stroke-width="0.5"  fill="#fff" stroke="#000" stroke-miterlimit="10" stroke-width="0.5"></path>
		
		<g id="grp_4_detail-fabric" display="none">
			<defs>
				<path id="grp_4_detail_def" d="M188,196.7l-37.4,70.1c-51.8-57.6-13.9-143.9,3.6-151.7Zm95.5,2.7,38.1,67.8c52.2-58.6,16.3-143.9.1-151.9Z" fill="#fff" stroke="#000" stroke-miterlimit="10" stroke-width="0.5"></path>
			</defs>
			<clipPath id="grp_4_detail_clip_path">
				<use xlink:href="#grp_4_detail_def" overflow="visible"></use>
			</clipPath>
			<g clip-path="url(#grp_4_detail_clip_path)">
				<image overflow="visible" width="500" height="500" id="grp_3_detail_fab_image" xlink:href=""></image>
			</g>
		</g>
	</g>
	
	
	 <g id="grp_e_detail">
		<path id="grp_e_detail_path" d="M263.8,214.7l13.5-.3,95.1,174.9c-.7,6.1-24.1,42-32.1,48.3Z" fill="#fff" stroke="#000" stroke-miterlimit="10" stroke-width="0.5"></path>
		<g id="grp_e_detail-fabric" display="none">
			<defs>
				<path id="grp_e_detail_def" d="M263.8,214.7l13.5-.3,95.1,174.9c-.7,6.1-24.1,42-32.1,48.3Z"></path>
			</defs>
			<clipPath id="grp_e_detail_clip_path">
				<use xlink:href="#grp_e_detail_def" overflow="visible"></use>
			</clipPath>
			<g clip-path="url(#grp_e_detail_clip_path)">
				<image overflow="visible" width="500" height="500" id="grp_e_detail_fab_image" xlink:href=""></image>
			</g>
		</g>
	</g>
	  
	  <g id="grp_d_detail">
		<path id="grp_d_detail_path" d="M242.8,214.5l21.1.2,76.8,223.5c-10.8,9.8-32.9,27.7-47.2,31.8Z" fill="#fff" stroke="#000" stroke-miterlimit="10" stroke-width="0.5"></path>
		<g id="grp_d_detail-fabric" display="none">
			<defs>
				<path id="grp_d_detail_def" d="M242.8,214.5l21.1.2,76.8,223.5c-10.8,9.8-32.9,27.7-47.2,31.8Z"></path>
			</defs>
			<clipPath id="grp_d_detail_clip_path">
				<use xlink:href="#grp_d_detail_def" overflow="visible"></use>
			</clipPath>
			<g clip-path="url(#grp_d_detail_clip_path)">
				<image overflow="visible" width="500" height="500" id="grp_d_detail_fab_image" xlink:href=""></image>
			</g>
		</g>
	</g>
	  
	  <g id="grp_c_detail">
		<path id="grp_c_detail_path" d="M229,214.4h13.6L293.4,470l-11.6,4.4-1.5-8.5c-1.1.1-54.8,6.8-86.9,0l-1.3,9.2-14.9-7.2Z" fill="#fff" stroke="#000" stroke-miterlimit="10" stroke-width="0.5"></path>
		<g id="grp_c_detail-fabric" display="none">
			<defs>
				<path id="grp_c_detail_def" d="M229,214.4h13.6L293.4,470l-11.6,4.4-1.5-8.5c-1.1.1-54.8,6.8-86.9,0l-1.3,9.2-14.9-7.2Z"></path>
			</defs>
			<clipPath id="grp_c_detail_clip_path">
				<use xlink:href="#grp_c_detail_def" overflow="visible"></use>
			</clipPath>
			<g clip-path="url(#grp_c_detail_clip_path)">
				<image overflow="visible" width="500" height="500" id="grp_c_detail_fab_image" xlink:href=""></image>
			</g>
		</g>
	</g>
	  
	  <g id="grp_b_detail">
		<path id="grp_b_detail_path" d="M209.7,214.4H229L176.9,468.1c1.8,2.1-29.5-17.1-44.6-35.7Z" fill="#fff" stroke="#000" stroke-miterlimit="10" stroke-width="0.5"></path>
		<g id="grp_b_detail-fabric" display="none">
			<defs>
				<path id="grp_b_detail_def" d="M209.7,214.4H229L176.9,468.1c1.8,2.1-29.5-17.1-44.6-35.7Z"></path>
			</defs>
			<clipPath id="grp_b_detail_clip_path">
				<use xlink:href="#grp_b_detail_def" overflow="visible"></use>
			</clipPath>
			<g clip-path="url(#grp_b_detail_clip_path)">
				<image overflow="visible" width="500" height="500" id="grp_b_detail_fab_image" xlink:href=""></image>
			</g>
		</g>
	</g>
      
     <g id="grp_a_detail">
		<path id="grp_a_detail_path" d="M195.1,214.4h14.6L132.1,431.8S103,396.6,101,389Z" fill="#fff" stroke="#000" stroke-miterlimit="10" stroke-width="0.5"></path>
		<g id="grp_a_detail-fabric" display="none">
			<defs>
				<path id="grp_a_detail_def" d="M195.1,214.4h14.6L132.1,431.8S103,396.6,101,389Z"></path>
			</defs>
			<clipPath id="grp_a_detail_clip_path">
				<use xlink:href="#grp_a_detail_def" overflow="visible"></use>
			</clipPath>
			<g clip-path="url(#grp_a_detail_clip_path)">
				<image overflow="visible" width="500" height="500" id="grp_a_detail_fab_image" xlink:href=""></image>
			</g>
		</g>
	</g>
	
	<g id="grp_6_detail">
		<path id="grp_6_detail_path" d="M204.6,467.6c18,2,44.2,1.7,64.3-.8.5-.1,15.2,96.3,13.9,95.3s-89.7,1.4-89.7.4C193,559,204.2,467.5,204.6,467.6Z" fill="#fff" stroke="#000" stroke-miterlimit="10" stroke-width="0.5"></path>
		<g id="grp_6_detail-fabric" display="none">
			<defs>
				<path id="grp_6_detail_def" d="M204.6,467.6c18,2,44.2,1.7,64.3-.8.5-.1,15.2,96.3,13.9,95.3s-89.7,1.4-89.7.4C193,559,204.2,467.5,204.6,467.6Z"></path>
			</defs>
			<clipPath id="grp_6_detail_clip_path">
				<use xlink:href="#grp_6_detail_def" overflow="visible"></use>
			</clipPath>
			<g clip-path="url(#grp_6_detail_clip_path)">
				<image overflow="visible" width="500" height="500" id="grp_6_detail_fab_image" xlink:href=""></image>
			</g>
		</g>
	</g>
	
	
      <path d="M240.1,155.1a27.4,27.4,0,0,0-9.9,7.1C234.2,160.9,237.3,158.3,240.1,155.1Z" fill="none"/>
      <g id="back_trim" data-name="back trim">
        <path id="back_trim" class="trim" data-name="back trim" d="M364.5,19.4,277.3,214.3H265.7L335.3,65.1,358,12.8ZM114.4,19l80.8,195.3h12.9L122.4,9.1Zm73.1,177.9L93.3,373.6l7.7,15.3,94.1-174.5Zm90.1,17.5,94.2,175.8,8-16.7L284.3,199ZM358.4,12.6c27.6,22.8,61.8,121.3,61.8,195.9s-25.5,135.2-53,189.6c-19.8,39.2-51.4,64-85.7,75.4l1.9,12.4c35.3-14.2,69.7-41.3,90.1-79.9,12.1-22.8,22.2-47.2,31.3-72.9,13.6-38.2,23.8-79.7,24.3-126.1.2-24.1-2.9-49.7-7.4-74.8-7.4-40.5-21.1-79-38-106.1-4.5-7.3-8.4-14.2-13.5-19.6L358,11.4S357.2,11.6,358.4,12.6ZM127.6,8.4l-3.1-.2-14-3.3C73.7,53.2,53.2,128.5,53.2,207.3s15.6,149.6,48.6,201.8c22.8,36,54.6,64.3,88.5,77.3l1.8-11.8c-32.4-12.3-61.9-39.2-83.6-73.5C76.9,351.2,62.1,283.8,62.2,209c.1-76.7,21.1-148,55.6-195.1,2.9-3.9,2.4-5.4,8.3-5.5Zm21.9,96.2c-28,8.8-61.2,118.9-3.9,171.2l4.7-9c-49.1-53.1-15.9-140,3.7-151.7Zm172.2,10.7c19.6,11.7,50,98.4-.1,151.8l5.1,8.8c58.2-52.6,28.3-163.2.3-172ZM178.8,562.6c-.2-.3,12.7.7,12.7.7s12.5-96.2,12.8-96l-10.9-1.6Zm101.5-96.8-10.9,1.6c.3-.2,13.3,96.5,13.3,96.5l12.3-.7ZM80.8,611.3s8.4.8,10.7-.5-2.2-6.8,2.9-19.1a64.6,64.6,0,0,1,5.6-10.2c13.5-20.9,54.2-19.5,54.2-19.5l24.6,1.1,1.2-8.5-24.9-.6c-15.9-.4-48.9,1.2-64.9,24.4-.7,1.1-8.7,16.6-9.6,33ZM378,607.4a68,68,0,0,0-8.1-29.4,42.1,42.1,0,0,0-32.3-21.3L321.3,555l-7.2-.6c-13.5-.8-20.2,0-20.2.5l1.5,8,20.1-.5s34.3-1.8,45.9,19.2,6.6,26,7.6,29.1,9.1.4,9.1.4Zm-285.8.2c1.6-9.1,22.6-5.7,24-5.9H368.6l-.5-3.2H117.2c-3.3.1-24.9-5.2-25.6,6.5Z" fill="#fff" stroke="#000" stroke-miterlimit="10" stroke-width="0.25"/>
      </g>
	  <symbol id="custom_text_detail" viewBox="-90.605 -65.674 151.211 132.349">
	<text id="r_f_ct01" transform="matrix(1 0 0 -1 0 32)" text-anchor="middle" font-family="Russo One">Custom</text>
	<text id="r_f_ct02" transform="matrix(1 0 0 -1 0 -9)" text-anchor="middle" font-family="Russo One">Text</text>
</symbol>
	<g id="resFlapTextAreaDetail" display="none">
		<use xlink:href="#custom_text_detail" width="200" height="300" fill="#815ABF" y="-65.674" transform="matrix(1 0 0 -1 202.6006 205.8916)" overflow="visible" display="inline" cursor="default" x="-85.605" id="rFlapCustomTextDetail01"></use>
	</g>
     
      <g id="backflap_logo" data-name="backflap logo">
        <path class="no-clear r_flap_logo" d="M310.5,60.3l-3.4,3.7L304.4,67,295,76.3a80.7,80.7,0,0,1-14.1,11,95.5,95.5,0,0,1-14.6,7.3c-5.8,2.3-11.7,4.4-17.6,6.7s-13,5-19.1,8.2A54.5,54.5,0,0,0,213.7,121a34.5,34.5,0,0,0-5.3,7.8,37.6,37.6,0,0,0-2.8,8.7,29.7,29.7,0,0,0-.2,6.2,7.3,7.3,0,0,0,.4,1.6c6.1-9,13.3-16.4,23.1-21.8a6.5,6.5,0,0,1-.6,1.6c-1.2,1.5-2.5,2.9-3.6,4.4s-1.7,2.7-2.5,4a1.3,1.3,0,0,0,0,.9c12.2-12.8,27.4-19.3,44.7-21.3l.2.4a61.6,61.6,0,0,0-6.1,1.1c-5.1,1.5-10.3,3-15.1,5.5a92.7,92.7,0,0,0-18.3,12.2c-4.8,4.2-8.4,9.5-11.6,15-1,1.7-1.8,3.6-2.8,5.3-.3-3.7.7-7.1,1.2-10.7-4.8,4.3-8.9,8.9-10,15.8-.6-2.4-1.3-4.7-1.9-7.1a45.5,45.5,0,0,1-1.2-11.2,32,32,0,0,1,3-12.3A35.1,35.1,0,0,1,215,113.6a78.1,78.1,0,0,1,20.6-11.8c5.8-2.3,11.8-4.2,17.6-6.6s12.6-5.1,18.8-8.1a89.5,89.5,0,0,0,11.7-6.9,93.5,93.5,0,0,0,13.8-11.4c3.4-3.4,6.5-7,9.9-10.3a23.9,23.9,0,0,1,4.9-3.6c1.1-.7,1.7-.2,1.9,1.1a11.3,11.3,0,0,1-.1,3.8c-.5,2.1-1.4,4.2-2.1,6.3a32.2,32.2,0,0,1-4.7,8.6c-1,1.5-1.9,3.1-2.9,4.6a6.8,6.8,0,0,0-.4.9l2.8-.5c1.2-.1,1.6.5,1.1,1.7a9.4,9.4,0,0,1-1.1,1.9l-6.4,8.4-.6.8,2.9-.2c1.4-.2,2,.5,1.4,1.8a10.7,10.7,0,0,1-1.7,2.9c-2.6,2.8-5.2,5.5-8,8.1-1.2,1.1-1.5,2.5-2.2,3.8a12.2,12.2,0,0,1-2.3,3.5,24.2,24.2,0,0,0-6.4,8.1c-1.3,2.9-3.5,5.3-6.9,6l-2.9.4a5.4,5.4,0,0,0-4.3,2.1c-2,2.7-4.6,4.3-8.2,3.9-.9-.1-1.7-.6-2.6-.7a3.3,3.3,0,0,0-1.9.3c-2.1,1.1-3.6,3-6,3.6a11.8,11.8,0,0,1-9-1.4c2.1,0,4,.1,5.9,0a14.7,14.7,0,0,0,9.3-4.8,1.7,1.7,0,0,1,2.5-.3c3.5,2.1,5.7,1.8,8-1.5a6.2,6.2,0,0,1,4.9-2.8,12.6,12.6,0,0,0,9.7-6.3c.7-1.1.9-2.2-.9-2.8a36.4,36.4,0,0,0,3.8-2.6,51.8,51.8,0,0,0,4-4.2,5.3,5.3,0,0,0,.6-1.7l-3.3.6-.2-.4,13.7-11.5-.3-.4L294.9,98l-3.1,1.1a3.7,3.7,0,0,1-1.4-.2,3.7,3.7,0,0,1,.5-1.2l3.9-4.1,7.4-7.5a16.8,16.8,0,0,0,1.6-2.4l-.3-.2-6.9,2.9a3.6,3.6,0,0,1-1.4-.1,5,5,0,0,1,.3-1.1,8.1,8.1,0,0,1,.9-1.2c2.4-2.9,4.8-5.7,7-8.7a78.5,78.5,0,0,0,5.1-8.3,51,51,0,0,0,2.4-5.6,3.9,3.9,0,0,0,.1-.8Z" stroke="#000" stroke-miterlimit="10" stroke-width="0.25"/>
        <path class="no-clear r_flap_logo" d="M256.2,140.4l3.1-.5c.2,0,.5.2.7.3a2.3,2.3,0,0,1-.4.7l-5.2,4.4-4.9,4.5.2.3a45.9,45.9,0,0,0,4.2-2.3c1.7-1.2,3.3-2.6,4.9-3.9l7-5,.4-.3h1.6c-.3.4-.4,1-.8,1.2a2.4,2.4,0,0,0-1.6,2.6,12.9,12.9,0,0,1-.5,2.9l1.8-.9a2,2,0,0,1-1.6,2.2,8.9,8.9,0,0,0-3.2,2,10.4,10.4,0,0,1-5.8,2.6c-1.7.2-2.3-.4-2.2-2.3a20.6,20.6,0,0,1-2,1.4l-3.5,1.6a18.9,18.9,0,0,0-3.2,1.8c-4.1,3.2-8.1,6.4-12.9,8.6h-2.5c.3-.7.3-1.7.9-2.2a31.1,31.1,0,0,1,11.8-7.7l1.7-.9a15.1,15.1,0,0,1-2.6-.2c-1-.3-1-1-.5-2l-4.3,2c-.9.4-2.1.9-2.6-.2a3.1,3.1,0,0,1,.5-2.8c1.7-1.9,3.7-3.6,5.6-5.4l2.1-1.6-.2-.4a36,36,0,0,0-4,2.2c-1.9,1.3-3.6,2.8-5.4,4.3l-3.4,3.1a4.6,4.6,0,0,1-4,1c3.1-3.4,6.9-6.1,10.1-9.6a23.2,23.2,0,0,0-2.5,1.3l-8.9,6.2c-1.1.7-2.3,1.3-3.4,2s-1.9,1-2.7.2-.1-1.9.2-2.8a5,5,0,0,1,.8-1.1c.4-.5,1.2-.8.8-1.7s.3-.5.5-.7c2.2-1.6,4.3-3.2,6.6-4.6s2.1-.4,3.1-.6l.2.5-11.2,9.5.2.5a8,8,0,0,0,1.8-.6l5.7-3.7,7.3-4.9a14.8,14.8,0,0,1,2.9-1.3c1.6-.6,1.9-.2,1.6,1.5l1.9-.9a12.9,12.9,0,0,1,2.4-.8c1.2-.2,1.9.6,1.3,1.6a19.5,19.5,0,0,1-2.9,3.4c-1.7,1.6-3.4,3.2-5.2,4.7l-.4.7a21.1,21.1,0,0,0,5.9-3.2c3.1-2.3,6.3-4.6,9.5-6.7a9.5,9.5,0,0,1,2.9-1.1C254.9,139.2,255.9,139.3,256.2,140.4Zm-12.8,10a32.3,32.3,0,0,0,3.8-2.2c2.4-1.8,4.7-3.8,7-5.8a5.6,5.6,0,0,0,.9-1.4h-1.8l-.7.3c-2,1.4-4,2.8-5.9,4.3S243.8,148,243.4,150.4Zm12.4-.5c2.6-.4,7.9-5.8,8.1-8.3l-8.1,5.7C256.7,148.2,256.7,148.7,255.8,149.8ZM240,154.7a24.8,24.8,0,0,0-9,6.4C234.7,160,237.5,157.6,240,154.7Z" stroke="#000" stroke-miterlimit="10" stroke-width="0.25"/>
        <path class="no-clear r_flap_logo" d="M232.9,137c-.1-.1-.7-.4-.8-.8s1.5-2.1,2.7-2,1.1.4,1.2.7S234.6,137,232.9,137Z" stroke="#000" stroke-miterlimit="10" stroke-width="0.25"/>
      </g>
	  
	   <g id="grp_3_detail_pinstripes" display="none">
      <polygon id="pinstr_3_left_detail" class="pinstripe" onclick="colorPinstripe(this, this.id)" points="122.4 8.8 208.1 214.5 213.5 214.5 128.1 9.1 122.4 8.8" fill="#fff" stroke="#000" stroke-miterlimit="10" stroke-width="0.25"/>
      <path id="pinstr_3_right_detail" class="pinstripe" onclick="colorPinstripe(this, this.id)" d="M358,12.7C338,61.4,265.3,214.2,265,214h-5.4L351.6,13.2Z" fill="#fff" stroke="#000" stroke-miterlimit="10" stroke-width="0.25"/>
	  </g>
	  
	  <g id="grp_4_detail_pinstripes" display="none">
	   <path id="pinstr_grp_4_detail" class="pinstripe" onclick="colorPinstripe(this, this.id)" d="M154.2,115.3l1.7,4.4c-15.7,7.5-49.6,91.6-3.2,143.3l-2.1,4c-47.6-51.5-19.7-136.1,3-151.4m167.7-.8-2.6,6.5c15.7,7.5,46.9,89.5.3,141.1l2.3,4.2c47.3-51,22.2-132.6,2.2-150.4Z" fill="#fff" stroke="#000" stroke-miterlimit="10" stroke-width="0.25"/>
	   </g>
	  
      <g id="grp_5_detail_pinstripes" data-name="group 5 pinstripes" display="none">
        <polygon id="pinstr_4_detail" class="pinstripe" onclick="colorPinstripe(this, this.id)" points="205.5 214.7 129.6 429 132.9 432.6 209.8 214.7 205.5 214.7" fill="#fff" stroke="#000" stroke-miterlimit="10" stroke-width="0.5"/>
        <polygon id="pinstr_5_detail" class="pinstripe" onclick="colorPinstripe(this, this.id)" points="229.2 214.7 177.4 468 183 470.9 233.8 214.7 229.2 214.7" fill="#fff" stroke="#000" stroke-miterlimit="10" stroke-width="0.5"/>
        <polygon id="pinstr_6_detail" class="pinstripe" onclick="colorPinstripe(this, this.id)" points="247.4 214.7 299.1 466.2 293.4 468.8 242.8 214.7 247.4 214.7" fill="#fff" stroke="#000" stroke-miterlimit="10" stroke-width="0.5"/>
        <polygon id="pinstr_7_detail" class="pinstripe" onclick="colorPinstripe(this, this.id)" points="263 214.9 337.8 438.8 342.7 433.7 267.1 214.7 263 214.9" fill="#fff" stroke="#000" stroke-miterlimit="10" stroke-width="0.5"/>
      </g>
     <g id="grp_6_detail_pinstripes" display="none">
      <path id="pinstr_area_6_detail" class="pinstripe" onclick="colorPinstripe(this, this.id)" d="M209.4,468.2l-12.9,95.6-5-.7,13-95.5Zm55.1-.7,13,95.8h4.8L269.4,467Z" fill="#fff" stroke="#000" stroke-miterlimit="10" stroke-width="0.5"/>
	  </g>
	  
      <g id="annotations">
        <text class="labels" transform="translate(237.9 84.4)" font-size="12.74" stroke="#000" stroke-miterlimit="10" stroke-width="0.25" font-family="MyriadPro-Regular, Myriad Pro" style="isolation: isolate">3</text>
        <text class="labels" transform="translate(148.7 184.2)" font-size="12.74" stroke="#000" stroke-miterlimit="10" stroke-width="0.25" font-family="MyriadPro-Regular, Myriad Pro" style="isolation: isolate">4</text>
        <text class="labels" transform="translate(321.6 184.2)" font-size="12.74" stroke="#000" stroke-miterlimit="10" stroke-width="0.25" font-family="MyriadPro-Regular, Myriad Pro" style="isolation: isolate">4</text>
        <text class="labels" transform="translate(233.6 364.3)" font-size="12.74" stroke="#000" stroke-miterlimit="10" stroke-width="0.25" font-family="MyriadPro-Regular, Myriad Pro" style="isolation: isolate">5</text>
        <text class="labels" transform="translate(68.8 476.5)" font-size="12.74" stroke="#000" stroke-miterlimit="10" stroke-width="0.25" font-family="MyriadPro-Regular, Myriad Pro" style="isolation: isolate">2</text>
        <text class="labels" transform="translate(414.8 476.5)" font-size="12.74" stroke="#000" stroke-miterlimit="10" stroke-width="0.25" font-family="MyriadPro-Regular, Myriad Pro" style="isolation: isolate">2</text>
        <text class="labels" transform="translate(233.7 489.7)" font-size="12.74" stroke="#000" stroke-miterlimit="10" stroke-width="0.25" font-family="MyriadPro-Regular, Myriad Pro" style="isolation: isolate">6</text>
        <text class="labels" transform="translate(134.9 351.9)" font-size="12.74" stroke="#000" stroke-miterlimit="10" stroke-width="0.25" font-family="MyriadPro-Regular, Myriad Pro" style="isolation: isolate">A</text>
        <text class="labels" transform="translate(172 373.6)" font-size="12.74" stroke="#000" stroke-miterlimit="10" stroke-width="0.25" font-family="MyriadPro-Regular, Myriad Pro" style="isolation: isolate">B</text>
        <text class="labels" transform="translate(233.7 392.7)" font-size="12.74" stroke="#000" stroke-miterlimit="10" stroke-width="0.25" font-family="MyriadPro-Regular, Myriad Pro" style="isolation: isolate">C</text>
        <text class="labels" transform="translate(290.6 374.2)" font-size="12.74" stroke="#000" stroke-miterlimit="10" stroke-width="0.25" font-family="MyriadPro-Regular, Myriad Pro" style="isolation: isolate">D</text>
        <text class="labels" transform="translate(327.6 352.1)" font-size="12.74" stroke="#000" stroke-miterlimit="10" stroke-width="0.25" font-family="MyriadPro-Regular, Myriad Pro" style="isolation: isolate">E</text>
        <text class="labels" transform="translate(79.4 175.7)" font-size="12.74" stroke="#000" stroke-miterlimit="10" stroke-width="0.25" font-family="MyriadPro-Regular, Myriad Pro" style="isolation: isolate">1</text>
        <text class="labels" transform="translate(379.9 179.9)" font-size="12.74" stroke="#000" stroke-miterlimit="10" stroke-width="0.25" font-family="MyriadPro-Regular, Myriad Pro" style="isolation: isolate">1</text>
      </g>
    </g>
  </g>
</svg>
