<svg id="ringCoverDetail" data-name="Ring Cover Detail" xmlns="http://www.w3.org/2000/svg" xmlns:xlink="http://www.w3.org/1999/xlink" viewBox="0 0 500 500">
  <defs>
    <clipPath id="clip-path-rcDetail">
      <rect width="499" height="503" fill="none"/>
    </clipPath>
    <clipPath id="clip-path-2-rcDetail">
      <rect x="-79.5" y="-83" width="663.9" height="660" fill="none"/>
    </clipPath>
  </defs>
  <title>ring_cover_detail</title>
  <g clip-path="url(#clip-path-rcDetail)">
    <g clip-path="url(#clip-path-2-rcDetail)">
      <g>
        <g id="harness-right-upper">
          <path id="harness-right-upper-detail" class="harness" d="M291.3,10l-1.6-3.7L229.5,3.7q-51.5,0-58.8,6.8a3.1,3.1,0,0,0-1.3,1.6,29.8,29.8,0,0,1-2.4,5.2l.5,17.2h4.2l117.2-2.6h4.4C292.7,24,292,16.8,291.3,10Z" fill="#fff" stroke="#000" stroke-miterlimit="10" stroke-width="0.5"/>
        </g>
        <path d="M329.5-308.8c0-1.2,126.7,66.4,394.5-.2,5-1.3,13.9,1.4,17.6,20.1,1.9,9.4,1.1,23.1,0,40.5-1.9,32.1-90.8,454.2-34.4,639.7L342.7,393s42.1-216.3,1.1-449.7c-5.3-30.2-9-60.8-17.5-91.1C281.4-308.7,329.5-308.8,329.5-308.8ZM437.4,911.9c93.7.2,188.4.5,241,.7,25.9.1,42.2-.1,42.5.5l63.5-2.3,25.5,1.3,75.1-7-8.5-396.6L216.4,506s-58.7,325.6-49,401.8C168.3,914.1,301.6,911.7,437.4,911.9Z" fill="#fff"/>
        
	<g id="grp_backpad_detail">
		<path id="grp_backpad_detail_path" d="M329.5-308.8c0-1.2,126.7,66.4,394.5-.2,5-1.3,13.9,1.4,17.6,20.1,1.9,9.4,1.1,23.1,0,40.5-1.9,32.1-90.8,454.2-34.4,639.7L342.7,393s42.1-216.3,1.1-449.7c-5.3-30.2-9-60.8-17.5-91.1C281.4-308.7,329.5-308.8,329.5-308.8ZM437.4,911.9l241,.7c25.9.1,42.2-.1,42.5.5l63.5-2.3,25.5,1.3,75.1-7-8.5-396.6L216.4,506s-58.7,325.6-49,401.8C168.3,914.1,301.6,911.7,437.4,911.9Z" fill="#fff" stroke="#000" stroke-miterlimit="10" stroke-width="0.5"  fill="#fff" stroke="#000" stroke-miterlimit="10" stroke-width="0.5"></path>
		
		<g id="grp_backpad_detail-fabric" display="none">
			<defs>
				<path id="grp_backpad_detail_def" d="M329.5-308.8c0-1.2,126.7,66.4,394.5-.2,5-1.3,13.9,1.4,17.6,20.1,1.9,9.4,1.1,23.1,0,40.5-1.9,32.1-90.8,454.2-34.4,639.7L342.7,393s42.1-216.3,1.1-449.7c-5.3-30.2-9-60.8-17.5-91.1C281.4-308.7,329.5-308.8,329.5-308.8ZM437.4,911.9l241,.7c25.9.1,42.2-.1,42.5.5l63.5-2.3,25.5,1.3,75.1-7-8.5-396.6L216.4,506s-58.7,325.6-49,401.8C168.3,914.1,301.6,911.7,437.4,911.9Z" fill="#fff" stroke="#000" stroke-miterlimit="10" stroke-width="0.5"></path>
			</defs>
			<clipPath id="grp_backpad_detail_clip_path">
				<use xlink:href="#grp_backpad_detail_def" overflow="visible"></use>
			</clipPath>
			<g clip-path="url(#grp_backpad_detail_clip_path)">
				<image overflow="visible" width="650" height="650" id="grp_backpad_detail_fab_image" xlink:href=""></image>
			</g>
		</g>
	</g>
		
		
		<g id="grp_8b_detail">
		<path id="grp_8b_detail_path" d="M340.8,261.6c-2,38.9.4,76.1-9,103.6l1.5-2.4q-13.6,7.8-87.4,28.5l-10.5,2.9-93.3,25.5L149.7,225c.3-12.6,6.2-162.9,6.2-162.9l109.6-4.4L338.7,55c.5,14.4,2.1,27.5,2.1,43.2C341,138.5,345.7,168.4,340.8,261.6Z" fill="#fff" stroke="#000" stroke-miterlimit="10" stroke-width="0.5"  fill="#fff" stroke="#000" stroke-miterlimit="10" stroke-width="0.5"></path>
		
		<g id="grp_8b_detail-fabric" display="none">
			<defs>
				<path id="grp_8b_detail_def" d="M340.8,261.6c-2,38.9.4,76.1-9,103.6l1.5-2.4q-13.6,7.8-87.4,28.5l-10.5,2.9-93.3,25.5L149.7,225c.3-12.6,6.2-162.9,6.2-162.9l109.6-4.4L338.7,55c.5,14.4,2.1,27.5,2.1,43.2C341,138.5,345.7,168.4,340.8,261.6Z" fill="#fff" stroke="#000" stroke-miterlimit="10" stroke-width="0.5"></path>
			</defs>
			<clipPath id="grp_8b_detail_clip_path">
				<use xlink:href="#grp_8b_detail_def" overflow="visible"></use>
			</clipPath>
			<g clip-path="url(#grp_8b_detail_clip_path)">
				<image overflow="visible" width="650" height="650" id="grp_8b_detail_fab_image" xlink:href=""></image>
			</g>
		</g>
	</g>
        <g>
          <path d="M294.6,23.9l5.9.4a6.8,6.8,0,0,0,3-2.4l1.7-5.1a1.5,1.5,0,0,1,.1-2.1,31.6,31.6,0,0,1-.4-8.1,9.2,9.2,0,0,1-.4-2.1,71.8,71.8,0,0,1-.1-8.1,3.2,3.2,0,0,1-.5-1.6c-.1-2.6-.2-5.5-.4-8.1v-2.1l-.9-7.9-.4-2.4-1.2-7.9-.4-1.9-.9-7.9-.4-2.4-1.2-8.2V-56h0L296-63.8l-.7-2.4-4-7.8a3.5,3.5,0,0,0-1.3-1.7,64.7,64.7,0,0,0-5.4-7.9,4.8,4.8,0,0,1-1.6-1.9" fill="none" stroke="#999" stroke-linecap="round" stroke-linejoin="round" stroke-width="0.5"/>
          <path d="M321.2-45.2h.2l1,7.9-2.8-.2.4,2.6h2.5l.7,7.9-.5.2-.3,5.2h1.3l.3,7.9h-2l3.3.2v7.9L322-5.9l.4,2.6,2.9.2V4.8l-2.8-.2.4,2.6,2.9.2v7.9l-2.8-.2-.2,2.6,2.7.2-.5,7.8-2.6-.2-.2,2.6,2.6.2v.8" fill="none" stroke="#999" stroke-linecap="round" stroke-linejoin="round" stroke-width="0.5"/>
          <path d="M293.3,26.9l-.2,3.6h2.6l.4-6.5-2.6-.2h0" fill="none" stroke="#999" stroke-linecap="round" stroke-linejoin="round" stroke-width="0.5"/>
          <path d="M293.3,27.2v-.3" fill="none" stroke="#999" stroke-linecap="round" stroke-linejoin="round" stroke-width="0.5"/>
          <line x1="305.2" y1="3.6" x2="320.9" y2="4.3" fill="none" stroke="#999" stroke-linecap="round" stroke-linejoin="round" stroke-width="0.5"/>
          <line x1="295.7" y1="31" x2="321.8" y2="31.1" fill="none" stroke="#999" stroke-linecap="round" stroke-linejoin="round" stroke-width="0.5"/>
          <line x1="322.2" y1="25.6" x2="301.3" y2="24.3" fill="none" stroke="#999" stroke-linecap="round" stroke-linejoin="round" stroke-width="0.5"/>
          <line x1="304.4" y1="16.7" x2="322.7" y2="17.5" fill="none" stroke="#999" stroke-linecap="round" stroke-linejoin="round" stroke-width="0.5"/>
          <line x1="322.8" y1="15.1" x2="304.5" y2="14.3" fill="none" stroke="#999" stroke-linecap="round" stroke-linejoin="round" stroke-width="0.5"/>
          <line x1="323.3" y1="7.3" x2="305" y2="6.5" fill="none" stroke="#999" stroke-linecap="round" stroke-linejoin="round" stroke-width="0.5"/>
        </g>
        <path class="no-clear" d="M278.5-95a45.2,45.2,0,0,1,7.1,10.2,83.2,83.2,0,0,1,6.8,12.9,263.9,263.9,0,0,1,12.9,37.5L310.8-10a68.3,68.3,0,0,1,3.9,22.3c-.5,7.1-2.4,10.5-6.3,10s-9.7-4.7-12.9-12.1A13.1,13.1,0,0,1,294,6.8h-3.4a1.4,1.4,0,0,0-.3-.7l-1-.5-1,.5a1.3,1.3,0,0,0-.5,1L234.7,4.8q-58.1,0-60.4,8.6a12.8,12.8,0,0,1-2.4,5.2,19.1,19.1,0,0,1-3.1,3.7l-.8.5-1-.3H163c-.8.2-1.5-.7-1.8-1.8a38.2,38.2,0,0,1-.8-5.2,2.1,2.1,0,0,0,0-2.1,43.7,43.7,0,0,0,.5-8.1,8.9,8.9,0,0,0,.3-2.1c.3-2.6.3-5.2.3-8.1a4.2,4.2,0,0,0,.3-1.6,57,57,0,0,0-.6-8.5v-1.6l.4-7.9v-2.4l1.1-8.1.4-2.5.6-8.2L164-52l.3-5.7.9-4.1.9-4,.8-3.9,1.9-3.4,1.7-4.2a5.9,5.9,0,0,1,.8-2,36.8,36.8,0,0,1,2.8-5,8.5,8.5,0,0,0,1.3-2.4l1.8-1,2.4-2.2,1-1a56.5,56.5,0,0,1,5.5-7.3l-3.7-6.5a88.9,88.9,0,0,1-3.1-8.9,4.2,4.2,0,0,0-.3-1.8c-.4-2.9.6-8.9.6-8.9v-1.9c.3-3-.1-6,.2-8.4.3-.7.1-1.5.3-2.2a12.2,12.2,0,0,0,.7-2.5l2.1-4.3,1.1-3.5c1.4-2.4,3.6-4.4,5.3-6.6l2-.3.8-1.6a6.1,6.1,0,0,1,.8,2.1,4,4,0,0,0,1.1,1.9l1.9,2.9a9.3,9.3,0,0,0,2.4,2.7,10.3,10.3,0,0,1-2.4-2.7l-1.9-2.9a4.8,4.8,0,0,1-1.1-1.9,7.2,7.2,0,0,0-.8-2.1,65.1,65.1,0,0,1-2.1-7.7,17,17,0,0,0-.3-2.9c.1-.3-.3-.8-.5-1.2a32.2,32.2,0,0,1,1.1-6.9,31.5,31.5,0,0,1,.8-3.8,36.3,36.3,0,0,1,7.4-12.2c3.3-3.2,7.7-5.3,12.1-6.8,0,2.5-1.2,2.8-.7,5.3a36.7,36.7,0,0,0-7.8,5.1c-2.6,2.4-2.7,7.9-3.7,11.3a15.9,15.9,0,0,0-.8,3.4,29.7,29.7,0,0,0,0,8.8,6.4,6.4,0,0,0,.3,1.9h0l2-1.8h.5a39.1,39.1,0,0,1,23.1-7.3,41.9,41.9,0,0,1,19.1,4.4,20.8,20.8,0,0,1-3.5,10.2,32.9,32.9,0,0,0-15.9-3.9,31.3,31.3,0,0,0-20.9,7.8l1,.8a26,26,0,0,0,5,3.9,8.4,8.4,0,0,0-1.7,7.1,25,25,0,0,1-7.9-6.3l-.7-.8a35.9,35.9,0,0,0-7.7,22.2,36.7,36.7,0,0,0,5.2,18.8,59.6,59.6,0,0,1,33.5-12,45.5,45.5,0,0,1,25.6,6.3,27.9,27.9,0,0,0,2-12.8,32.8,32.8,0,0,0-9.7-25.1,4.5,4.5,0,0,0-1.7-1.6,24.5,24.5,0,0,1-4.2,5,36.3,36.3,0,0,1-8.2,6.5l-1,.5a3,3,0,0,1-3.2-2.9h0a12.1,12.1,0,0,1,.5-4.2,18.1,18.1,0,0,0,6.5-4.7,24.7,24.7,0,0,0,3.7-5,19.5,19.5,0,0,0,3.2-10.2v-2.2a22.1,22.1,0,0,0-7.4-16.8,21.8,21.8,0,0,0-15.2-7.1,17.3,17.3,0,0,1-3.4-7.4h1.8a31.5,31.5,0,0,1,22.3,8.9,31.2,31.2,0,0,1,9.2,22.3,44.6,44.6,0,0,1-.5,6.8,26.8,26.8,0,0,1-4.2,10.2,27.6,27.6,0,0,0,4.2-10.2,28.6,28.6,0,0,1,5.5,4.5,59.6,59.6,0,0,1,8.1,11,46.5,46.5,0,0,1,1.1,40.7,46.7,46.7,0,0,1-5.8,9.5,49.9,49.9,0,0,0,5.8-9.5A80.6,80.6,0,0,1,278.5-95Zm-75-3.2,1.6.8c-2.9,2.4-5.7,5.6-3.8,9.7v-.7L196-90.9a53.4,53.4,0,0,0-13.6,35.8,54.4,54.4,0,0,0,14.4,37.1A46.3,46.3,0,0,0,231.6-2.2a45.2,45.2,0,0,0,35-15.7,52,52,0,0,0,14.6-37.1,51.5,51.5,0,0,0-14.6-37.1,27.5,27.5,0,0,0-4.7-4.7L258.2-93a61.5,61.5,0,0,1-7.1,5.5,5.5,5.5,0,0,1-6.5-3.9,9.4,9.4,0,0,1,.5-5,32.4,32.4,0,0,0,5-4.2,10.5,10.5,0,0,0,2.4-2.6,34.3,34.3,0,0,0,5.8-9.4,34.3,34.3,0,0,1-5.8,9.4l-1.8-.5a49.7,49.7,0,0,0-45.5,3.9Z" fill="#ccc"/>
        <path class="no-clear" d="M880.2-321.8a39.5,39.5,0,0,1,10.2,3.1L881-321ZM763.1-200.2a26.7,26.7,0,0,0-16.2,14.4,37.4,37.4,0,0,0-3.7,10.5l-.8,1v-2.4a26.9,26.9,0,0,1,6.3-14.9,22,22,0,0,1,3.9-3.9,28.8,28.8,0,0,1,21.2-6.3h0A35.3,35.3,0,0,0,763.1-200.2ZM45.6,776.4m937.4,379a27.1,27.1,0,0,1,.3,4.2,143.5,143.5,0,0,0-5.5-14.1v-.8a25.1,25.1,0,0,0,0-11q2.9,10.7,5.2,21.7ZM208.9-205.2v-1.9h7.3a68.4,68.4,0,0,0,1.8,10.5,18,18,0,0,0,3.4,7.3,15.4,15.4,0,0,0,3.9,2.4c2.9.5,1,1-5.5,2.1s-8.6,0-10.9-2.1v-.5c1-2.4.7-4.9.7-7.3A92.1,92.1,0,0,1,208.9-205.2Zm-.8,61.4,2.1-1.6q2.9-2.1,13.3-2.6t7.8,3.9c-2.6,3.7-1.3.5-1.6,1a11,11,0,0,0-.5,4.2c.5,1.8,1.6,2.9,3.1,2.9l1-.5h.3q1.8-.8,2.6,0a1.6,1.6,0,0,1-.3,2.1c-2.1,2.4-6.8,3.7-13.9,3.9s-15.4-1.3-16.2-5.8h0a8.4,8.4,0,0,1,2.1-7.6Zm40.3,46.6a30.9,30.9,0,0,1-5,4.2,3.4,3.4,0,0,1,2.4-2.1q2.9-3.1,1.6-4.7c-1.6-1.3-6.5-1.8-14.9-1-12.6.5-20.7,1.8-24.6,3.9l-1.8.5h0l-2.9,2.4-1.6-.8,2.1-1.6a49.7,49.7,0,0,1,45.5-3.9l1.8.5a9.4,9.4,0,0,1-2.9,2.6ZM728,392.4l2.6,2.1h-2.1Zm-404-.5H321l2.6,2.6h.3v-2.6ZM775.8-102.8l1.8.5.8-2-1.5-.8,3.1-7.4,1.5.5,16.3,6.9h.9l1.8.3-3.1,7.6-2.1-.8-17-7.1,17,7.1,2.1.8,3.1-7.6-1.8-.3h-.5l-16.7-7.8.5-1.6-.8-1.1h-.6l3.6-7.8h1.1a14.8,14.8,0,0,0-.2-2.5l3-7.2,2,.7.5-1.5-1.7-1,1-2,2.5-4.9h.6l1,.5.7-1.7-1.5-1,2.9-5.6h2.8l.8-.8h0l.5-1.6v-.8a23.5,23.5,0,0,1,0-2.9l2.6-4.4H801l1,.8,3.7,2.1c-.3,2.9-.5,6-.5,9.2a2.9,2.9,0,0,1,0,1.8v2.9l-2.4,5-.8,2.4c-.5,2.6-1,5.2-1.8,8.1a11.3,11.3,0,0,1-.3,1.8v8.4a5.9,5.9,0,0,1,1,2.4,21.7,21.7,0,0,1,1,5,27.5,27.5,0,0,0,2.6,6.8,45.5,45.5,0,0,0-8.4,8.6,58.1,58.1,0,0,0-5,6.5l-.8,1a69.6,69.6,0,0,0-4.4,6.8,5.5,5.5,0,0,1-1,2.4L781.1-71l-.8,1.8a3.1,3.1,0,0,1-.3,1,59.1,59.1,0,0,0-2.6,6.3,12,12,0,0,1-.8,2.4l-2.9,7.6-.8,1.8a68.5,68.5,0,0,1-2.4,7.6,2.6,2.6,0,0,1-.8,2.1,73.7,73.7,0,0,0-1.8,8.1l-.5,1.6-1.8,7.8-.5,2.1-1.8,8.1v1.6l-1.1,4.7a16,16,0,0,0-.8,3.1l-.8,1.6q-1,4.4-1.6,8.1a14.1,14.1,0,0,1-.3,2.4,63.7,63.7,0,0,0-.3,7.1,1.3,1.3,0,0,1,0,1,5,5,0,0,1,.3,1.8,9.7,9.7,0,0,0,2.6,6.5l2.1.4h1c5.5-.4,9.7-4.6,12.8-12-.8,7.1-2.4,22.4-2.4,22.4H762.2l.8-5.2h-2.6s.2-2.1.3-2.6h0c0,.5-.3,2.6-.3,2.6h2.6l-.8,4.3-23-.5.8-6.4h1.8l.5-5.2h-2l1.4-7.8H744a5.5,5.5,0,0,1,.3-1.7l-2.5-.6L744,4.8h.1l.6-3.1,1.1-5.9,2,.6a11,11,0,0,0,.3-2h-1.9l1.8-7.8h1.9l.5-2.6h-1.6l1.8-7.8,1.8.5.5-2.1-2.1-.8,2.4-7.8,1.8.5.5-1.8-2.1-.5,2.4-11.6h1.8l.8,2.6h-2.1l2.6-9.1,1.6.5a8.6,8.6,0,0,0,.5-1.9H749.5l13.3-10.5,2.6-7.8h1.4a2.6,2.6,0,0,0,.8-1.5l-1.8-.5,2.6-7.4,1.5.8,1-2.6-1.8-.5,2.8-7.7,1.8.5.5-1.5-1.8-.5,1.5-4.1Zm3.3-41.8-2.9-5h1a27.2,27.2,0,0,1,2.1,4.7Zm24.6-18.6,3.9-7.3h.8c-.3,3.4-.5,6.5-.5,9.7l-2.6-1.6,2.6,1.6v2.6l-3.7-2.1.8-2.1Zm60.9,26.9h0q-.8,6.8-16.2,5.8-11-.3-13.9-3.9a1.3,1.3,0,0,1-.3-1.8l.3-.3q.8-.8,2.9,0h.8c1.8.5,2.6-.3,2.9-2.4a7.8,7.8,0,0,0,0-4.2,1.8,1.8,0,0,0-1-1q-4.2-5.2,7.3-3.9t13.3,2.6a4.2,4.2,0,0,1,2.1,1.6A11.8,11.8,0,0,1,864.5-136.2Zm-2.3-70.5.5,1.8v10.2a65.4,65.4,0,0,1-1,7.8q-1.3,2.9-9.4,2.1t-5.8-2.1a13.6,13.6,0,0,0,3.9-2.4,17.3,17.3,0,0,0,3.4-7.3,51.5,51.5,0,0,0,1.6-10.5Zm-62.8,99.9,1.8.5,1.6-3.4-1.6,3.4-1.8-.5-.5,1Zm-12.8-17.3a5.5,5.5,0,0,1-1,2.4,6.5,6.5,0,0,0,1-2.4l-1.8-.5Zm-45,19.5a1.6,1.6,0,0,0,.5-1c1,1.8,1.8,3.1,2.6,3.1h1.6l-7.8,5Zm80.6,7.9L820.1-99l1.8-.8a50,50,0,0,1,19.4-3.9,45.2,45.2,0,0,1,26.2,7.6l2.1,1.6a2.1,2.1,0,0,1-1.6.8,10.5,10.5,0,0,0-2.6-2.4h0l-2.1-.5q-5.8-2.9-25.1-3.9-12-.8-14.6,1l-1.8-.5,1.8.5q-1.6,1.6,1.6,4.7a4.4,4.4,0,0,1,2.6,2.6ZM898.3,23.7a1.6,1.6,0,0,0,.5-1l.5-5.2,2.1,4.7c-.2,5.8-.5,16.7-.5,16.7h-4.1V36.2h.7s.5.2.5-.2l1.3-3.7h0V29.2a5.3,5.3,0,0,1-1.3-1l-1.3-.5V24.7Zm-135-86.6a6.8,6.8,0,0,1,.8-2.4l13.6,3.7-13.6-4.2a5.8,5.8,0,0,0-.8,2.4l13.6,4.2Zm-4.2,7.3,2.6-7.6h0l-2.6,7.6Zm37.7-38.7-2.1-1,.5-1.8-.5,1.8,2.1,1ZM261.2,504.3h2.1l-1.6,10-3.9,29.2h-1.9l4-29.7-5.6-2.1a39.2,39.2,0,0,0,2.1-7.4h4.8l-1.1,9.5,1.1-9.5Zm536.1,39.2-8.9,2.6h-1l-8.5,1a1.3,1.3,0,0,0-.3-.8l-2.3.5-2.1-8,2.1-.5-.5-1.5-2.1.5-2.1-8,1.8-.5a9.8,9.8,0,0,0-.3-2.3l-2.3.8-1.8-8,1.8-.5a3.9,3.9,0,0,0-.3-1.8l-2.1.5-2.1-8h2.3l-.5-2.6-2.3.5v-3.2h30.9q1.1,3.5,2.1,7.5l-5.9,2.1-.5-2.7-2.4.5a3.2,3.2,0,0,0-.3-1.6l2.4-.5-1.6-5.4,1.6,5.4-2.4.5a3.2,3.2,0,0,1,.3,1.6l2.4-.5.5,2.7,1.1,5.6-2.1.5a4,4,0,0,1,.5,2.4l2.4-.8,2.1,7.8-2.1.5.5,2.1,2.4-.8,1.9,7.8-1.9.5.5,2.4,1.9-.8.8,2.1Z" fill="#fff" stroke="gray" stroke-miterlimit="10" stroke-width="0.25"/>
        <path d="M163.8,33.7l-19.1.5Z" fill="#fff"/>
        <path d="M322.8,392.3a3.1,3.1,0,0,0,.5-1.8A3.1,3.1,0,0,1,322.8,392.3Z" fill="#fff"/>
        <path d="M470.4,503.9H405v-2.6h5.8q5.3,0,5.6-55.1t-5.6-54.8H405v-2.6h65.4V503.9Z" fill="#666"/>
        <path d="M287.3,9.1c.8.4.6.8.2,1l-1,.5-1-.5a3,3,0,0,1-.7-1V7.3a3,3,0,0,1,.7-1l1-.5,1,.5c.3.2.5.6-.2,1h0Z"/>
        <path d="M115.4,736.5c1.5-.3-.3-3.7,1.3-3.9q4.5-37.4,10.6-91.5l.5-5.5q10.6-93.1,15.9-149.3c-11.9-2.1-17.9-5.2-18.2-9.2,0,0,12.8-397.4,21.5-454.4,6.1-40.2-3-70.8-4.9-107.2-6.1-76.5-6.4-110.3-6.6-129.3.2-39.8-.9-74.5,11.3-103.7,5.8-2.4,4.8-3.3,11-3.4v.5q4-3.1,20.4-6.3" fill="none" stroke="#000" stroke-linecap="round" stroke-linejoin="round" stroke-width="0.5"/>
        <path d="M143.9,486.2q2.6-25.1,4.2-42.6-5.5,1-5.8-.5c-.2-1-.4-7.6-.2-19.6v-3.7S155.7,72.9,155.9,62.1l.5-25" fill="none" stroke="#000" stroke-linecap="round" stroke-linejoin="round" stroke-width="0.5"/>
        <path d="M169,17.7q.5,8.1.8,16.7h1.1" fill="none" stroke="#000" stroke-linecap="round" stroke-linejoin="round" stroke-width="0.5"/>
        <path d="M156.4,37h14.5" fill="none" stroke="#000" stroke-linecap="round" stroke-linejoin="round" stroke-width="0.5"/>
        <path d="M291.2,31.8h4.4q-.8-11-2.1-20.9" fill="none" stroke="#000" stroke-linecap="round" stroke-linejoin="round" stroke-width="0.5"/>
        <path d="M173.8,35.5l114-3.1" fill="none" stroke="#000" stroke-linecap="round" stroke-linejoin="round" stroke-width="0.5"/>
        <path d="M295.6,31.9l42.6-1.3" fill="none" stroke="#000" stroke-linecap="round" stroke-linejoin="round" stroke-width="0.5"/>
        <path d="M338.3,54.8l-73,3.7L155.7,63.2h0" fill="none" stroke="#000" stroke-linecap="round" stroke-linejoin="round" stroke-width="0.5"/>
        <g id="harness_fabric_right" data-name="harness fabric right">
          <path class="harness" d="M572.9,393.9l-102.3-.5V503.2H572.9a9.9,9.9,0,0,1-.3-2.4V396.3A7.3,7.3,0,0,1,572.9,393.9Z" fill="#fff" stroke="#000" stroke-miterlimit="10" stroke-width="0.5"/>
        </g>
        <path d="M142.1,419.7l93.3-24.4,10.2-2.9c49.3-13.9,74.6-20.4,83.7-25.4h0" fill="none" stroke="#000" stroke-linecap="round" stroke-linejoin="round" stroke-width="0.5"/>
        <path d="M193.1,432.8q17.8-4.4,30.1-6.8l11.8-2.9" fill="none" stroke="#000" stroke-linecap="round" stroke-linejoin="round" stroke-width="0.5"/>
        <path d="M147.8,443.7l.3-.2,9.8-.7,31.4-8.1" fill="none" stroke="#000" stroke-linecap="round" stroke-linejoin="round" stroke-width="0.5"/>
        <polyline points="148.4 443.7 142.6 502.6 249.4 502.6" fill="none" stroke="#000" stroke-linecap="round" stroke-linejoin="round" stroke-width="0.5"/>
        <polyline points="322.6 392.7 322.8 392.7 320 392.7" fill="none" stroke="#000" stroke-linecap="round" stroke-linejoin="round" stroke-width="0.5"/>
        <path d="M322.8,392.3a3.1,3.1,0,0,0,.5-1.8" fill="none" stroke="#000" stroke-linecap="round" stroke-linejoin="round" stroke-width="0.5"/>
        <line x1="406.3" y1="500" x2="406.3" y2="502.6" fill="none" stroke="#000" stroke-linecap="round" stroke-linejoin="round" stroke-width="0.5"/>
        <path d="M388,500h-7.8" fill="none" stroke="#000" stroke-linecap="round" stroke-linejoin="round" stroke-width="0.5"/>
        <polygon points="381.7 500 374.9 500 374.9 499.7 381.7 500" fill="none" stroke="#000" stroke-linecap="round" stroke-linejoin="round" stroke-width="0.5"/>
        <line x1="471.7" y1="502.6" x2="471.7" y2="392.7" fill="none" stroke="#000" stroke-linecap="round" stroke-linejoin="round" stroke-width="0.5"/>
        <path d="M242.3,421a439.9,439.9,0,0,0,56.5-18.6,159.3,159.3,0,0,0,22-10.5l2.6-1.8h.3l-1,2.4v.5l20.4-.3h63.3v-2.6h62.8v2.6H572.3a12.7,12.7,0,0,1,6.5-5.7,27.2,27.2,0,0,1,16.5-2.2h85.3a25.9,25.9,0,0,1,16.2,2.2,11,11,0,0,1,6.3,5.5l16.5-.5,8.4.5V392l-.5-2.1" fill="none" stroke="#000" stroke-linecap="round" stroke-linejoin="round" stroke-width="0.5"/>
        <path d="M178.7-90.5l-3.1,3.5L174.3-86c-.4.3-.8,1.4-1.3,2a69.3,69.3,0,0,0-3.9,7.6,3.4,3.4,0,0,0-.8,1.6l-2.9,7.6-.5,2.4c-.5,2.4-1.5,8-1.5,8l-.4,1.9-.4,8-.3,2.9-.6,7.6-1.1,9.2-.2,2.6-.6,8.1s.5,7.3.5,9.9a4.7,4.7,0,0,1-.3,1.6,78.7,78.7,0,0,1-.3,8.1,13.3,13.3,0,0,1-.3,2.1,47.3,47.3,0,0,1-.5,8.1,1.8,1.8,0,0,1,0,2.1l.8,5.2a26.4,26.4,0,0,0,1.8,3.3h3.9l1-.5.8-.5a17,17,0,0,0,3.1-3.7A12.8,12.8,0,0,0,173,14" fill="none" stroke="#999" stroke-linecap="round" stroke-linejoin="round" stroke-width="0.5"/>
        <line x1="163.1" y1="23.9" x2="163.1" y2="23.9" fill="none" stroke="#999" stroke-linecap="round" stroke-linejoin="round" stroke-width="0.5"/>
        <path d="M285.2,7.3,232.1,4.9q-57.8,0-60.4,8.6" fill="none" stroke="#999" stroke-linecap="round" stroke-linejoin="round" stroke-width="0.5"/>
        <path d="M265.6-105a62.5,62.5,0,0,1,11.2,11.8A59.9,59.9,0,0,1,283.9-83a82.1,82.1,0,0,1,6.8,12.8,264.9,264.9,0,0,1,12.8,37.4L309-8.5a67,67,0,0,1,3.9,22.2c-.5,7.1-2.4,10.5-6.3,9.9s-9.7-4.7-12.8-12a14.9,14.9,0,0,1-1.6-3.4h-3.6" fill="none" stroke="#999" stroke-linecap="round" stroke-linejoin="round" stroke-width="0.5"/>
        <path d="M189.4,432.8l.8.4h1l1.8-.4,1,.5.8.8a1.6,1.6,0,0,1,0,1l-.8.7h-1l-2.9-1-.8-4.3h-.3S189.2,433.2,189.4,432.8Z"/>
        <symbol id="rc_custom_text_detail" viewBox="-105.605 -65.674 300 132.349">
	<text id="rc_ct01" transform="matrix(1 0 0 -1 0 52)" text-anchor="middle" font-family="'Russo One'" font-size="1em">Custom</text>
	<text id="rc_ct02" transform="matrix(1 0 0 -1 0 -52)" text-anchor="middle" font-family="'Russo One'" font-size="1em">Text</text>
	<text id="rc_ct03" transform="matrix(1 0 0 -1 0 -152)" text-anchor="middle" font-family="'Russo One'" font-size="1em">Area</text>
</symbol>
	<g id="ringCoverTextAreaDetail" display="none">
		<use xlink:href="#rc_custom_text_detail" width="250" height="300" fill="#815ABF" y="-155.674" transform="matrix(1 0 0 -1 182.6006 205.8916)" overflow="visible" display="inline" cursor="default" x="-25.605" id="rFlapCustomTextDetail01"></use>
	</g>
		<g>
          <path id="ring_cover_logo_detail" class="ring_cover_logo no-clear" d="M320.3,150.2l-4.8,5.1-6.6,7.8c-2.6,3-5.1,5.9-7.9,8.8a90.7,90.7,0,0,1-8.2,7.9c-5.5,4.5-11.1,8.8-16.9,12.9a97.2,97.2,0,0,1-13.1,7.4c-6.4,3.1-13,5.8-19.5,8.6s-11.7,4.8-17.4,7.4-13.2,6-19.4,9.6a87.1,87.1,0,0,0-18.8,14.1c-4.2,4.2-7.9,8.8-10.2,14.3a48.7,48.7,0,0,0-4.2,19.9c0,1.5.7,2.9,1.1,4.8,8.8-12.9,18-24.8,31.9-32.1-3.1,5.2-7.2,9.6-9.4,15.6l4.5-4c2.6-2.5,4.9-5.2,7.7-7.4a116.7,116.7,0,0,1,13.8-9.4,102.4,102.4,0,0,1,14.9-6.6c5.4-2,11.1-3.5,16.7-5a13.9,13.9,0,0,1,5.4-.1l-1.9.5c-3.4.9-6.8,1.4-10.1,2.6a101.3,101.3,0,0,0-13.9,5.9,190.3,190.3,0,0,0-18.5,11.3c-6.4,4.5-12.5,9.7-17,16.2s-7.7,12.6-11.4,19c-.6,1.1-1,2.4-1.7,3.6-1.2-5.2,1-10.1,1.2-15.6-6.9,6.8-12.4,13.7-13.2,23.8-.4-.9-.7-1.4-.9-1.9-1.9-5.4-3.7-10.7-4.2-16.5-.2-2.9-.9-5.7-1-8.6a19,19,0,0,1,.5-5.8c1-4,2.3-8,3.7-11.9,2.7-7.8,7.8-14,13.9-19.3a122.3,122.3,0,0,1,12.7-9.4,92.8,92.8,0,0,1,12.1-7.1c7.2-3.4,14.5-6.3,21.8-9.4,5.6-2.4,11.4-4.5,16.9-7.2s13.9-6.8,20.5-10.7a126,126,0,0,0,22.4-16.5c4.8-4.5,9.3-9.3,13.8-14.1s7.8-9,11.8-13.3a13.8,13.8,0,0,1,4.3-2.8,1.9,1.9,0,0,1,2.8,1.4,11.1,11.1,0,0,1,.2,4.6c-1.3,5.4-2.2,10.9-5.1,15.8s-4.1,7.6-6.2,11.4l-2.1,4.1a28.1,28.1,0,0,1,3.8-1c1.8-.2,2.7,1.2,1.8,2.7s-3.8,5.9-5.7,8.7l-5.2,7.4a19.3,19.3,0,0,1,3.4-.6c.9,0,2.4.1,2.6.7a3.5,3.5,0,0,1-.1,3.1c-4.2,5.2-8.7,10.2-12.9,15.4-1.2,1.4-1.6,3.4-2.5,5.1A26.6,26.6,0,0,1,294,226c-1.8,2.1-3.9,3.8-5.8,5.8a5.5,5.5,0,0,0-1.5,2.1,21.4,21.4,0,0,1-4.6,8.9,16.9,16.9,0,0,1-4.8,4.1,28.8,28.8,0,0,1-7.5,2c-2.1.4-3.9.9-5,2.9-2.5,4.5-6.7,6.1-11.6,6.5a3.6,3.6,0,0,1-2-.4c-2.2-1.4-4-.4-5.6,1.1-4,3.4-8.6,5.5-13.9,5-2.2-.2-4.3-1.3-6.3-2.2,9.5,1.2,17-2.1,22.6-9.4,1.6.7,3,1.4,4.5,1.9s2.8,1.1,4,.7a10.1,10.1,0,0,0,5.9-4.9,5.8,5.8,0,0,1,5.3-3.6c6.7-.7,12.2-3.9,15.2-10.5.9-1.9-.7-2.4-1.6-3.7a7.2,7.2,0,0,1,1.4-1.1c3.6-1.6,6.1-4.4,8.4-7.5a3,3,0,0,0,.7-1.1,18.9,18.9,0,0,0,.1-2.4l-2.1.3-2.2.4-.3-.5,19.3-17.7-.4-.5-1.5.6-10,4.5c-.5.2-1.2-.2-1.7-.3s0-1.5.4-2c3.4-3.7,7-7.2,10.3-11s4.8-6,7.1-9.1a4.5,4.5,0,0,0,.4-1.1c-4.3,1.2-7.3,5.6-12.7,4.5l3.2-4.8c3.9-5.5,8.1-10.7,11.6-16.4a53.4,53.4,0,0,0,7-16A6.5,6.5,0,0,0,320.3,150.2Z" stroke="#000" stroke-miterlimit="10" stroke-width="0.5"/>
          <path id="ring_cover_logo_detail_1" class="ring_cover_logo no-clear" d="M202.5,286.1l15.3-14.2-.4-.5-7.2,5-14.5,10.8c-1.2.8-2.9,1.5-3.8.2s-.1-2.4.2-3.6,1-1.3,1.4-2,.3-1.5.6-2.2a3.6,3.6,0,0,1,.9-1.5c3-2.4,6-4.8,9.2-6.9,1.2-.8,3-.5,4.5-.8l.3.7-15.5,14.2c2.6.6,4.1-.8,5.7-2l16.4-12.3a9.1,9.1,0,0,1,2.9-1.3c2.1-.6,2.8,0,2.7,2l6.2-2.4c.5-.2,1.4-.1,1.5.1a2.7,2.7,0,0,1,.1,1.9c-1.2,3.1-3.6,5.1-6.1,7.1s-4.1,3.2-5.1,5.6l.4.5c2.2-1.5,4.6-2.8,6.6-4.4,5.4-4.2,10.4-8.9,16.6-12,2.4-1.2,3.7-.9,5,.5l5.3-1.1.4.7-14.7,14.1.4.5,4.8-3.4,8.1-6.3,9.3-7.5c.3-.3.7-.7,1.1-.7a7.1,7.1,0,0,1,1.7.2,8.8,8.8,0,0,1-.7,1.5,2.4,2.4,0,0,1-1,.8,2.2,2.2,0,0,0-1.5,2.5,39.8,39.8,0,0,1-.4,4.7l2.6-1.2a3.2,3.2,0,0,1-2.6,3.3c-3.2.9-4.5,4.2-7.4,5.3a28.5,28.5,0,0,1-6.4,1.8c-1.6.2-2.2-1.1-1.4-3l-4.5,2.4a22,22,0,0,1-4.1,2.2c-3.1.9-5,3.5-7.2,5.5a69,69,0,0,1-13.5,9.8,9.8,9.8,0,0,1-2.1,1.2,11,11,0,0,1-2.7,0c0-.7-.2-1.6.1-2.1a36.4,36.4,0,0,1,4.2-4.6,52.5,52.5,0,0,1,13.8-8.7l.8-.5a3.6,3.6,0,0,0,.5-.8c-1.3,0-2.7.3-3.5-.1s-.7-1.8-1-2.8l-4.2,2.9a3.4,3.4,0,0,1-1.6.7c-1.1.1-2.3-.1-3.5-.1s-.3-2.6.3-3.4a52.6,52.6,0,0,1,5.4-6.5,63.8,63.8,0,0,1,5-4.3l-.4-.7a32.2,32.2,0,0,0-4.9,3c-4.6,4-8.9,8.3-13.5,12.3-1,.8-3,.6-4.5.8Zm25.8-3.1.6.7a55.2,55.2,0,0,0,6.3-4c3-2.5,5.7-5.2,8.5-7.9a10.7,10.7,0,0,0,1.3-2h-2.5a1.5,1.5,0,0,0-.7.4c-2.8,2.1-5.8,4.1-8.4,6.5S230,280.9,228.3,283Zm17.9-.9c3.9-.5,11.7-8.8,11.6-12.6l-11.2,9.1C248.6,280.1,247.1,281,246.2,282.1Zm-34.5,18.1c5.3-1.9,8.8-6.1,12.7-10A37.7,37.7,0,0,0,211.7,300.2Z" stroke="#000" stroke-miterlimit="10" stroke-width="0.5"/>
          <path class="ring_cover_logo no-clear" d="M215.5,260.9c.5.3,1.3.4,1.6.8s-.2,1.2-.5,1.5a11.2,11.2,0,0,1-3.5,2.1c-1.2.3-1.7-.7-1.1-1.8S213.7,260.9,215.5,260.9Z" stroke="#000" stroke-miterlimit="10" stroke-width="0.5"/>

        </g>
        <path class="harness" d="M186.9,832.2s7.6-38,18.3-54.7l18.1-115.5q12.3-73.1,23.1-122.1l7.1-29.6a54.2,54.2,0,0,0,1.8-7.6H411.8q4.4,0,5.5-55.1t-5.5-54.8H342.5l-20.1.5v-.5h-.6a152.9,152.9,0,0,1-22.3,10.9,479.3,479.3,0,0,1-63.2,20.2l-13.5,3.2q-13.3,2.7-32.9,7.7l-33.5,8.5-9.6,1.9h1.1q-1.6,17.5-4.2,42.3-5.5,55.9-16.5,149.2Q121,694.2,116,733.4c-2.1,15.9-4.4,31.4-5.5,37.4a5.2,5.2,0,0,0,1.3,4.2c8.6,9.9,20.9,57,20.9,57s3.7,12,3.9,12c15.9,8.6,35,8.4,49.4-.5,0,0,1.6-11,1.6-11.2Z" fill="#fff" stroke="#000" stroke-miterlimit="10" stroke-width="0.5"/>
        <path class="trim" id="trim_group_front" data-name="trim group front" d="M786.1,57,711,53.5c.4-7.6,1.4-14.8,2.1-22.1l27.3,1.3,22.4.5,16.8.3,119.8,2.7a1.4,1.4,0,0,0,1.3,1.9h9.7c.4.8.4,2.7.6,10.7.4,11.3-1.5,11.4-2,13.1l-16.3-.3ZM290.8,32.4,156.4,36.8l-.5,25,111.6-4.6,70.7-2.7c0-2.4.3-21.7,0-24.2l-41,1.3ZM769.2,381.6l-4.3-1.3-5.6-1.6L746,374.4c-16.5-5.3-22.6-8.4-27.2-11h0l1.6,6.2,3.7,14.6c.8,1.4,4.7,6.2,2.8,7.2h0A245.6,245.6,0,0,0,750,402.3a484.6,484.6,0,0,0,63,20.2l13.6,3.2q13.8,2.7,33.5,8l33.2,8.2,8.2,1.6h1.3c4.3.8,6.4.5,6.6-.5s.3-9.2.3-20.2V419l-95.7-25.3ZM331.8,364.8q-13.5,7.6-86.9,27.7l-10.4,2.8-93.6,24.1v4q0,18,.5,19.6t6.2.5h.3l9.3-1.8,32.5-8.2,32-7.5,13.1-3.1A465.1,465.1,0,0,0,296,403.3a150.2,150.2,0,0,0,21.6-10.6l2.6-1.5h2Q327.1,379,332,365h-.3Zm-170,616.5v-.5a35.4,35.4,0,0,0-5-13.6,92.1,92.1,0,0,0-15.5,22l1.8,6.3-3.2,11.2-2.9-5c-10.5-15.2-16.6-24.1-26.1-36.9s-15.8-20.7-19-23.3q15.8-25.1,27.7-37.1l-3.2-8.6c-3.7-3.4-6.8-4.4-9.5-2.9s-8.1,11.2-13.7,29.6c-2.1,6.8-4,13.6-5.8,20.4a64.2,64.2,0,0,1-1.6,6.8,30.7,30.7,0,0,0,0,11v.5q3.4,6.5,46.1,73.2L85.4,1192.8l21.3,1q3.7-7.6,29.8-104.9,4.2-17,8.2-31.4,10.8-41.8,14.7-60.9,55.8,37.4,84.8,37.9l28.4,76.9q24.8,68.8,27.7,81.3a15.6,15.6,0,0,0,3.2,7.1q5.5,6.8,18.7-2.4-3.2-18.8-34.5-105.4t-36.9-96.2c-7-10.3-17-19.1-26.1-27.7l3.2,29.1a52.3,52.3,0,0,1,6.6,16.1h0l-3.7-2-4.2-1.6Q207.1,1001.6,161.8,981.2ZM890,977.4v-.5a35.4,35.4,0,0,1,5-13.6,92.1,92.1,0,0,1,15.5,22l-1.8,6.3,3.2,11.2,2.9-5c10.5-15.2,16.6-24.1,26.1-36.9s15.8-20.7,19-23.3q-15.8-25.1-27.7-37.1l3.2-8.6c3.7-3.4,6.8-4.4,9.5-2.9s8.1,11.2,13.7,29.6c2.1,6.8,4,13.6,5.8,20.4a64.2,64.2,0,0,0,1.6,6.8,30.7,30.7,0,0,1,0,11v.5q-3.4,6.5-46.1,73.2L966.4,1189l-21.3,1q-3.7-7.6-29.8-104.9-4.2-17-8.2-31.4-10.8-41.8-14.7-60.9-55.8,37.4-84.8,37.9l-28.4,76.9q-24.8,68.8-27.7,81.3a15.6,15.6,0,0,1-3.2,7.1q-5.5,6.8-18.7-2.4,3.2-18.8,34.5-105.4T801,992a175,175,0,0,1,24.2-28.5l-4.5,29.8a53.9,53.9,0,0,0-6.3,16.5h1.3l5.3-2.4c.8.3,2.4-.3,4.2-1.6Q844.7,997.8,890,977.4ZM907.4-310.5c8.5,15.8,9.3,39.9,10.3,88.8L915-173.5c-.9,6.8-.8,12.7-1.6,20.6L907-87.6c-.3,4.3-.4,8.9-.9,13.1l-.7,6.3,2.1,7.3c-.1,0,.3,1.7.5,2.4s-.6,1.2-.6,1.3c-2.8,9,4.3,38.4,4.3,38.4,1.7,21,2.8,32.3,2.2,35.9s-.7,7.8-6.1,7.3a7.6,7.6,0,0,1-5.1-2.8c-.2,5.6-.7,8.2-1.1,13.9h8.4a2,2,0,0,1,2.2.5,30,30,0,0,1,1.4,9.3,127.4,127.4,0,0,1-1,13.2l-1.5,5.4-.3,38.2c-.6,5.9-.7,12.3-.8,19.1-1,55.6-1.3,89.7-.6,102.6l2.3,197.6.4,8s-.2,4-.2,6.5a15.7,15.7,0,0,1-.2,2.3v4.1l-.2,1.7c-.6,1.8-2.2,2.4-6,1.4l.8,15.1,2.6,23q18-3.4,18.3-8.9h0l-3.4-119c-.1-8.9.2-29.3.2-30,2.3-72.2,2.8-128.9,1.6-178,.2-5.8-.5-11.1-.3-16.3h0c2-41.9-4-98.6.5-167.7l1-13.9L929-75.8q9.9-114.8,9.4-143.3c.3-39.6-8.7-70.2-26.1-97.7-5.5-2.4-9.5-2.9-15.5-3,4.7,1.4,5.8,3,5.8,3l1.9,1.6C906.1-314,906.3-312.3,907.4-310.5ZM322.1,391.2c13.7-4.5,30.1-163.5,18.3-329.5-12.2-171.5-79.8-387-23.4-379.8l12.8,7.8c-54.2,1.6,17.9,200.1,30.1,371.6,11.8,166.1-4.6,325-18.3,329.5Zm406.6-.1c-13.7-4.5-30.1-163.5-18.3-329.5,12.2-171.5,82.4-385.8,26-378.5l-12.1,6.5c54.2,1.6-21.2,200.2-33.4,371.7-11.8,166.1,4.6,325,18.3,329.5Zm-586.3-692c-2.7,11.3-4.2,28.7-4.9,40.1-1.7,26.9.6,107.7.2,107.6s7.6,95.8,11.8,130.8c.7,5.8.4,23,.4,23l-6.6,72.7-5.1,81.2-4.5,87.1L131.5,314l-4.8,162.9c2.5,6.3,16.1,7.5,16.1,7.5l3.9-39.5c-6.6,1.1-5.5-3.6-5.5-3.6L155.5,38.2c-.7-2.6.8-2.6.8-2.6h12.1l-.5-11.9C156.4,28,157.7,14.9,158.4,5s.5-7.9.8-10.5-.5-11.1-.5-11.1l1.2-15.6-1.3-21.8-3.8-37.5-4.1-58.4s-2-47-2-48.7-1.3-29-1.3-29l-.4-34.2c.4-44.4,10.7-57.7,10.7-57.7-4.5-1.9-9.8,2.3-9.8,2.3S143.3-305.1,142.4-300.9Z" fill="#fff" stroke="#000" stroke-miterlimit="10" stroke-width="0.25"/>
        <path d="M915.4-259a1.5,1.5,0,0,1,.6,1v6.3a1.5,1.5,0,0,1-.6,1l-1,.5-1-.5c-.3-.2-.5-.6,0-1v-6.3c-.6-.4-.4-.8,0-1l1-.5Zm-.1-11.4c0-.4-.2-.8-.5.7h-1l-1-1.2a1.3,1.3,0,0,0-.3,1l.5,6.3a11.1,11.1,0,0,0,.5,1.8h1l1-1.2a1.3,1.3,0,0,0,.3-1Zm-1.6-10.3a1.2,1.2,0,0,0-.5-.7h-1l-.7.5a1.4,1.4,0,0,0-.3.9l.8,5.7a1.2,1.2,0,0,0,.5.7h1l.7-.5a1.4,1.4,0,0,0,.3-.9Zm-.7-3a1.5,1.5,0,0,0,.3-1l-1.4-5.5-.7-.8h-1l-.8.7a1.2,1.2,0,0,0-.1,1l1.2,5.5.7.8h1Zm-17.8-33.9-.8.8a1.6,1.6,0,0,0,.3,1l.8.8a9.9,9.9,0,0,1,4.4,2.1l.8.8h1l.8-.8a1.6,1.6,0,0,0,0-1c-.5-1.6-2.6-2.6-6.3-3.9Zm13.3,17.5-1-.8-1.1-.2a1.7,1.7,0,0,0-.8,1,1.7,1.7,0,0,0,0,1.2,23.8,23.8,0,0,1,2.3,5.4l.6,1,1.1.2,1-.6a1.4,1.4,0,0,0,.2-1.1A28.6,28.6,0,0,0,908.5-300.1ZM905-310.3l-1-.8-1.1-.2a1.7,1.7,0,0,0-.8,1,1.7,1.7,0,0,0,0,1.2,23.8,23.8,0,0,1,2.3,5.4l.6,1,1.1.2,1-.6a1.4,1.4,0,0,0,.2-1.1A28.6,28.6,0,0,0,905-310.3Zm-25.4,40h1a2.6,2.6,0,0,0,.5-1.2,1,1,0,0,0-.3-1l-1-.5-5.5.2h-1c-.3-.4-.5-.1-.5.3a1,1,0,0,0,.3,1l1,.5Zm-22.2-2.6,1,.3a1,1,0,0,0,.5-1,1.3,1.3,0,0,0-.5-1l-1-.9h-5.5l-1,.9a1.6,1.6,0,0,0,0,2.1l1-.3Zm5.5-3.1-1,.5-.3.3a1.3,1.3,0,0,0,.3,1.8l1,.5h6.5l.3-.2a1.3,1.3,0,0,0-.1-1.8l-1-.5Zm32,21c1.5-.4,1.3-.8,1-1l-1-.5-1,.5a4.4,4.4,0,0,1-1.5,1v6.3a4.4,4.4,0,0,1,1.5,1l1,.5,1-.5c.3-.2.5-.6-1-1Zm-3.2-15.2-5.8-2.7h-1c-.4,1.1-.7,1.5-.8,1.9a1.3,1.3,0,0,0,.3,1l1,.8,5.2,1.5h1a1.3,1.3,0,0,0,.3,1,18,18,0,0,1,1,5.8,1.6,1.6,0,0,0,.5,1h1l1-.4a1.3,1.3,0,0,0,.3-1,16.7,16.7,0,0,0-1.8-7.3l-1-1.6h-.7v.3Zm-83.2-40.9a1.6,1.6,0,0,0-.5-1h-1l-1,.5a1.3,1.3,0,0,0-.3,1,48.6,48.6,0,0,1,.3,5.5,1.3,1.3,0,0,0,.5,1l1,.5,1-.5a1,1,0,0,0,.5-1,44.7,44.7,0,0,0-.3-5.2A1.8,1.8,0,0,0,808.4-311.1Zm-1,21.7-1,.5a1.3,1.3,0,0,0-.5,1,53.9,53.9,0,0,1-.3,5.5,1.3,1.3,0,0,0,.3,1l1,.5h1a1.3,1.3,0,0,0,.5-1,44.3,44.3,0,0,0,.3-5.8,1.3,1.3,0,0,0-.5-1Zm1-10.9-1-.5-1,.5a1.2,1.2,0,0,0-.5,1v5.5a1.2,1.2,0,0,0,.5,1l1,.5,1-.5c.4-.2.6-.6,0-1v-5.5A.6.6,0,0,0,808.4-300.3Zm-.8,46.2a1.3,1.3,0,0,0-.5-1l-1-.5-1,.5a1.3,1.3,0,0,0-.5,1,56.7,56.7,0,0,1-.3,5.8,1.3,1.3,0,0,0,.3,1l1,.5h1a1.6,1.6,0,0,0,.5-1C807.3-249.9,807.3-251.7,807.6-254.1Zm.6-12.4-1-.5-1,.5a1.2,1.2,0,0,0-.5,1v5.2a1.2,1.2,0,0,0,.5,1l1,.5,1-.5a1.2,1.2,0,0,0,.2-1v-5.2A1,1,0,0,0,808.2-266.5Zm10.6,10.8a1.3,1.3,0,0,0-.3-1l-1-.5h-1a1.5,1.5,0,0,0-.5,1l-.5,5.3a1.3,1.3,0,0,0,.3,1l1,.5h1a1.5,1.5,0,0,0,.5-1Zm1-10.5a1.3,1.3,0,0,0-.3-1l-1-.5h-1a1.5,1.5,0,0,0-.5,1l-.5,5.3a1.3,1.3,0,0,0,.3,1l1,.5h1a1.5,1.5,0,0,0,.5-1Zm-11.7-5.4c0-2.1.3-3.9.3-5.8a1.3,1.3,0,0,0-.5-1l-1-.5-1,.5a1,1,0,0,0-.5,1,38.6,38.6,0,0,1-.3,5.5,1,1,0,0,0,.3,1l1,.5h1A1.6,1.6,0,0,0,808.1-271.6Zm39.8-1.8a1.3,1.3,0,0,0-.5-1l-1-1.1h-5.5l-1,1.1a1,1,0,0,0-.5,1,1.3,1.3,0,0,0,.5,1l1-.6h5.5l1,.6A1.3,1.3,0,0,0,847.9-273.4Zm-23.3.5a1,1,0,0,0,.5-1,1.3,1.3,0,0,0-.5-1l-1-.6h-4.8a1.6,1.6,0,0,0-1.3,1.8,1.3,1.3,0,0,0,.5,1l1-.3h5.5Zm10.2-.1,1,.3a1.3,1.3,0,0,0,.5-1,1.3,1.3,0,0,0-.5-1l-1-.9h-5.8l-1,.9-.3.3a1.3,1.3,0,0,0,.3,1.8l1-.3ZM262.3-314.5a1.6,1.6,0,0,0-.5,1v6.5a1.4,1.4,0,0,0,.5,1l1,.5,1-.5a1.4,1.4,0,0,0,.2-1,55.5,55.5,0,0,1,.2-6.3,1.4,1.4,0,0,0-.2-1v-.5h-.5Zm0,14.3a1.2,1.2,0,0,0-.5,1v5.7a1.2,1.2,0,0,0,.5,1l1,.5,1-.5a1.2,1.2,0,0,0,.2-1v-5.7a1.4,1.4,0,0,0-.2-1l-1-.5Zm1.3,37.2a1.3,1.3,0,0,0-.3,1,50.4,50.4,0,0,0,.3,6.3,1.6,1.6,0,0,0,.5,1h1l1-.5a1.3,1.3,0,0,0,.3-1c0-2.1-.3-4.2-.3-6a1.3,1.3,0,0,0-.5-1l-1-.5Zm.8-11.7a1.4,1.4,0,0,0-.2-1l-1-.5-1,.5a1.2,1.2,0,0,0-.5,1v5.7a1.2,1.2,0,0,0,.5,1l1,.5,1-.5a1.2,1.2,0,0,0,.2-1Zm-2.6-6.6a1.2,1.2,0,0,0,.5,1l1,.5,1-.5a1.2,1.2,0,0,0,.2-1v-5.7a1.4,1.4,0,0,0-.2-1l-1-.5-1,.5a1.2,1.2,0,0,0-.5,1Zm-103,161.2v-3.7a4.2,4.2,0,0,1-.2-1.7,1.5,1.5,0,0,0-.5-1h-1l-1,.5a1.2,1.2,0,0,0-.2,1,40.1,40.1,0,0,0,.5,5.4l.5,1h1l1-.5v-.5a2.2,2.2,0,0,0,0-.5Zm-3-17.4a1.5,1.5,0,0,0-.2,1l.5,5.4a1.5,1.5,0,0,0,.5,1h1l1-.5a1.2,1.2,0,0,0,.2-1l-.5-5.4a1.5,1.5,0,0,0-.5-1h-1Zm73.6-135.5,1,.9.3-.3a1.3,1.3,0,0,0-.3-1.8l-1-1.4h-5.8l-1,1.4a1,1,0,0,0-.5,1,1.3,1.3,0,0,0,.5,1l1-.9Zm12.8-1.2-1-1.4h-5.8l-1,1.4a1,1,0,0,0-.5,1,1.3,1.3,0,0,0,.5,1l1-.9h5.8l1,.9a1.3,1.3,0,0,0,.5-1A1.3,1.3,0,0,0,242.1-274.1Zm-86.1-17.4a1.3,1.3,0,0,0-.3-1l-.8-.8h-1l-.8.8a47.6,47.6,0,0,0-.8,5.6,1.3,1.3,0,0,0,.3,1l1,.5h1a1.5,1.5,0,0,0,.5-1A31.1,31.1,0,0,1,156.1-291.6Zm.4-12.7-.8.8c-.5,1.8-1,3.5-1.5,5.6a1.5,1.5,0,0,0,.3,1l.8.5h1a1,1,0,0,0,.5-.8,44.8,44.8,0,0,1,1.3-5.3,1.3,1.3,0,0,0,0-1l-.8-.8Zm5.2-11.6-.8.8a37.9,37.9,0,0,0-2.4,5.2,1.6,1.6,0,0,0,0,1l.8.8h1l.8-.8,2.4-5a1.6,1.6,0,0,0,0-1l-.8-.8Zm49.6,40.4-1,1.4a1.3,1.3,0,0,0-.5,1,1.3,1.3,0,0,0,.5,1l1-.9h6.3l1,.9.3-.3a1.3,1.3,0,0,0-.3-1.8l-1-1.4Zm-4.4,3.5a1.6,1.6,0,0,0,.3-1c-.1-.4-.2-.8-.5.2h-1l-5.8-.7-1,.5a1.3,1.3,0,0,0-.3,1,11.1,11.1,0,0,0,.5,1.8h1l5.8-1.2Zm48.4,18.6-.5-5.3a1.5,1.5,0,0,0-.5-1h-1l-1,.5a1.3,1.3,0,0,0-.3,1l.5,5.3a1.8,1.8,0,0,0,.5,1h1l1-.5A1.3,1.3,0,0,0,255.2-253.5Zm-1-10.5a27,27,0,0,0-.5-5.2l-.5-1h-1l-1,.5a1.3,1.3,0,0,0-.3,1,49.9,49.9,0,0,0,.5,5.2,1.6,1.6,0,0,0,.5,1h1l1-.5A1.6,1.6,0,0,0,254.2-264Zm-41.5,45.9a1,1,0,0,0-.5,1,1.3,1.3,0,0,0,.5,1l1,.4h5.8l1-.4.3-.3a1.3,1.3,0,0,0-.3-1.8h-7.8Zm-11.2,2.5h1l5.8.3,1-.5a1.3,1.3,0,0,0,.3-1,4,4,0,0,0-.5-1.4h-1l-5.8.9-1,.5a1.3,1.3,0,0,0-.3,1C200.9-215.4,201.1-215,201.4-215.6Zm48.6-.5.7.5h4c2.1-.2,2.9-.7,2.6-1.7a1.4,1.4,0,0,0-.2-1l-1-.5-1,.5h-4l-1,.5a1,1,0,0,0-.2.7A1.2,1.2,0,0,0,250-216.1Zm-10.8-2.1h-1a4,4,0,0,0-.5,1.4,1.3,1.3,0,0,0,.3,1l1,.5,5.8-.3h1c.3.6.5.2.5-.2a1,1,0,0,0-.3-1l-1-.5Zm-6,2.6h1a2.6,2.6,0,0,0,.5-1.2,1,1,0,0,0-.3-1l-1-.5-4.7.2h-3.7l-1-.2a1,1,0,0,0-.5,1,1.3,1.3,0,0,0,.5,1l1,.7h8.1Zm23.7-9.8-1-.5-1,.5a1.2,1.2,0,0,0-.5,1v5.2a1.2,1.2,0,0,0,.5,1l1,.5,1-.5a1.2,1.2,0,0,0,.2-1v-5.2A1,1,0,0,0,256.9-225.4Zm-1.9-11a1.2,1.2,0,0,0-.5,1v5a1.2,1.2,0,0,0,.5,1l1,.5,1-.5a1.2,1.2,0,0,0,.2-1v-5a1.4,1.4,0,0,0-.2-1l-1-.5Zm.3-13h-1l-1,.5a1.3,1.3,0,0,0-.3,1,49.9,49.9,0,0,1,.3,5.5,1.3,1.3,0,0,0,.5,1l1,.5,1-.5a1.3,1.3,0,0,0,.3-1,52.3,52.3,0,0,0-.3-5.8A1.3,1.3,0,0,0,255.2-249.4Zm-101.5,68a1.3,1.3,0,0,0-.5,1,44.3,44.3,0,0,0,.3,5.8,1.8,1.8,0,0,0,.5,1h1l1-.5a1.6,1.6,0,0,0,.3-1c0-1.8-.3-3.7-.3-5.5a1.6,1.6,0,0,0-.3-1l-1-.5Zm1.9-10.6a1.3,1.3,0,0,0-.5-1l-1-.5-1,.5a1.3,1.3,0,0,0-.5,1,44.3,44.3,0,0,0,.3,5.8,1.6,1.6,0,0,0,.5,1h1l1-.5a1.3,1.3,0,0,0,.3-1A48.4,48.4,0,0,1,155.6-191.9Zm-.3-5.7a40.5,40.5,0,0,1-.3-5.5,1.3,1.3,0,0,0-.5-1l-1-.5-1,.5a1.3,1.3,0,0,0-.3,1,44.3,44.3,0,0,0,.3,5.8,1.6,1.6,0,0,0,.5,1h1l1-.5A1.6,1.6,0,0,0,155.3-197.6ZM190.4-213h.8l5.5-1.2.8-.5a1.6,1.6,0,0,0,.3-1c-.1-.3-.3-.6-.5.2h-1l-5.8.6-.8.8a1.3,1.3,0,0,0,0,1Zm-7.6.9-.8-.9h-1l-.8.9a1.6,1.6,0,0,0,0,1l.5,1.8.5,1.5h1.8l3.4-2.5.8-.8a1.6,1.6,0,0,0,0-1l-.8-.9h-1Zm-2.5-7.5a1.5,1.5,0,0,0-.5-1h-1l-1,.5a1.5,1.5,0,0,0-.2,1,36.7,36.7,0,0,0,.5,5.4,1.5,1.5,0,0,0,.5,1h1l1-.5a1.2,1.2,0,0,0,.2-1A33.8,33.8,0,0,1,180.3-219.6Zm-4.1-12.5a37.8,37.8,0,0,0,.5,5.3,1.5,1.5,0,0,0,.5,1h1l1-.5a1.3,1.3,0,0,0,.3-1l-.5-5.3a1.8,1.8,0,0,0-.5-1h-1l-1,.5A1,1,0,0,0,176.3-232.2Zm.4-3.6,1-.5a1.2,1.2,0,0,0,.5-1v-4.5a1.2,1.2,0,0,0-.5-1l-1-.5-1,.5a1.2,1.2,0,0,0-.2,1v4.5a1.4,1.4,0,0,0,.2,1Zm-22.3,21.7a1.5,1.5,0,0,0-.5-1h-1l-1,.5a1.2,1.2,0,0,0-.2,1l.5,5.4.5,1h1l1-.5a1.5,1.5,0,0,0,.2-1Zm-1.8-10.4-1,.5a.6.6,0,0,0-.2,1v3.4a.7.7,0,0,0,.2,1l1,.5,1-.5a.8.8,0,0,0,.3-1v-3.4a.8.8,0,0,0-.3-1Zm-.4-11.8-1,.5a.6.6,0,0,0-.2,1v5.8a.7.7,0,0,0,.2,1l1,.5,1-.5a.8.8,0,0,0,.3-1v-5.8a.8.8,0,0,0-.3-1Zm-1.3-10.2v5.8a.7.7,0,0,0,.2,1l1,.5,1-.5a.8.8,0,0,0,.3-1v-5.8a.8.8,0,0,0-.3-1l-1-.5-1,.5A.7.7,0,0,0,150.9-246.5Zm3-12.1a.8.8,0,0,0-.3-1l-1-.5-1,.5a.6.6,0,0,0-.2,1v5.8a.7.7,0,0,0,.2,1l1,.5,1-.5a.8.8,0,0,0,.3-1Zm-2.3-12.2a1.3,1.3,0,0,0-.4,1.1v5.3a1,1,0,0,0,.3,1l1.1.4h1a1.5,1.5,0,0,0,.4-1.1,37.8,37.8,0,0,1,.1-5.3,1.3,1.3,0,0,0-.3-1l-1.1-.4Zm3-11.2-1-.5h-1a1.5,1.5,0,0,0-.5,1l-.5,5.3a1.3,1.3,0,0,0,.3,1l1,.5h1a1.5,1.5,0,0,0,.5-1l.5-5.3A1.3,1.3,0,0,0,154.6-281.9Zm23.5,24.7h-1a1.6,1.6,0,0,0-.5,1,50.4,50.4,0,0,0-.3,6.5,1.6,1.6,0,0,0,.3,1l1,.5,1-.5a1.3,1.3,0,0,0,.5-1,62.8,62.8,0,0,1,.3-6.3,1.3,1.3,0,0,0-.3-1Zm16.5-15.7h-1l-6,.6-.8.8a1.3,1.3,0,0,0-.3,1l.8.2h1l5.8-.2,1-.5a1.3,1.3,0,0,0,.3-1ZM183-270.3h-1a8.6,8.6,0,0,0-3.7,2.6,14.6,14.6,0,0,0-1.6,7.3,1.8,1.8,0,0,0,.5,1l.8.5,1-.5a1,1,0,0,0,.5-.8,18,18,0,0,1,.8-5.8,6.5,6.5,0,0,1,2.4-1.6l.8-.8a1.8,1.8,0,0,0,0-1A1,1,0,0,0,183-270.3ZM157.6-148.1l-.5-1h-1l-1,.5a1.5,1.5,0,0,0-.3,1l.5,5.3a1.5,1.5,0,0,0,.5,1h1l1-.5a1.3,1.3,0,0,0,.3-1Zm-3-11.5a1.3,1.3,0,0,0-.5,1,44.3,44.3,0,0,0,.3,5.8,1.6,1.6,0,0,0,.5,1h1l1-.5a1.3,1.3,0,0,0,.3-1,38.6,38.6,0,0,1-.3-5.5,1.3,1.3,0,0,0-.5-1l-1-.5Zm8.1,81.5v-3.7a4.2,4.2,0,0,1-.2-1.7,1.5,1.5,0,0,0-.5-1h-1l-1,.5a1.2,1.2,0,0,0-.2,1,40.1,40.1,0,0,0,.5,5.4l.5,1h1l1-.5v-.5a2.2,2.2,0,0,0,0-.5Zm0,11.2v-3.7a4.2,4.2,0,0,1-.2-1.7,1.5,1.5,0,0,0-.5-1h-1l-1,.5a1.2,1.2,0,0,0-.2,1,40.1,40.1,0,0,0,.5,5.4l.5,1h1l1-.5v-.5a2.2,2.2,0,0,0,0-.5Zm-3.7-27a1.5,1.5,0,0,0-.2,1l.5,5.4a1.5,1.5,0,0,0,.5,1h1l1-.5a1.2,1.2,0,0,0,.2-1l-.5-5.4a1.5,1.5,0,0,0-.5-1h-1Zm1.7-10-.5-1h-1l-1,.5a1.5,1.5,0,0,0-.3,1l.5,5.3a1.5,1.5,0,0,0,.5,1h1l1-.5a1.3,1.3,0,0,0,.3-1Zm-3-11.6a1.3,1.3,0,0,0-.5,1,44.3,44.3,0,0,0,.3,5.8,1.6,1.6,0,0,0,.5,1h1l1-.5a1.3,1.3,0,0,0,.3-1,38.6,38.6,0,0,1-.3-5.5,1.3,1.3,0,0,0-.5-1l-1-.5Zm-1.5-55.4-1-.5-1,.5a1.3,1.3,0,0,0-.3,1,44.3,44.3,0,0,0,.3,5.8,1.6,1.6,0,0,0,.5,1h1l1-.5a1.3,1.3,0,0,0,.3-1,40.5,40.5,0,0,1-.3-5.5A2.1,2.1,0,0,0,156.3-170.9ZM172.7,16.8l-1,.5a1.2,1.2,0,0,0-.2,1,40.1,40.1,0,0,0,.5,5.4,1.5,1.5,0,0,0,.5,1h1l1-.5a1.2,1.2,0,0,0,.2-1,40.1,40.1,0,0,0-.5-5.4,1.5,1.5,0,0,0-.5-1Zm2.8,10.6h-1l-1,.5a1.3,1.3,0,0,0-.3,1,42.4,42.4,0,0,1,.3,5.8,1.3,1.3,0,0,0,.5,1l1,.5,1-.5a1.3,1.3,0,0,0,.3-1,46.3,46.3,0,0,0-.3-6,1.6,1.6,0,0,0-.5-1Zm115.2,4.2-.5-5.3-.5-1h-1l-1,.5a1.3,1.3,0,0,0-.3,1,37.8,37.8,0,0,0,.5,5.3h0a1.5,1.5,0,0,0,.5,1h1l1-.5A1.5,1.5,0,0,0,290.6,31.6ZM289,15.8a1.5,1.5,0,0,0-.5-1h-1l-1,.5a1.2,1.2,0,0,0-.2,1,40.1,40.1,0,0,0,.5,5.4,1.5,1.5,0,0,0,.5,1h1l1-.5a1.2,1.2,0,0,0,.2-1ZM270.3-201.3a1.7,1.7,0,0,0-.5-1h-1l-1,.5a1.2,1.2,0,0,0-.2,1,40.1,40.1,0,0,0,.5,5.4,1.5,1.5,0,0,0,.5,1h1l1-.5a1.2,1.2,0,0,0,.2-1A44,44,0,0,1,270.3-201.3Zm-3.6-10.9a50.4,50.4,0,0,0,.3,6.3,1.8,1.8,0,0,0,.5,1h1l1-.5a1.6,1.6,0,0,0,.3-1c0-2.1-.3-4.2-.3-6a1.6,1.6,0,0,0-.3-1l-1-.5-1,.5A1.3,1.3,0,0,0,266.7-212.2Zm1.3-14.4-1,.5a1,1,0,0,0-.5,1,46.3,46.3,0,0,0,.3,6,1.6,1.6,0,0,0,.5,1h1l1-.5a1.3,1.3,0,0,0,.3-1q-.3-2.9-.3-5.8a1.3,1.3,0,0,0-.5-1Zm-.8-12.3h-1l-1,.5a1.2,1.2,0,0,0-.2,1,40.1,40.1,0,0,0,.5,5.4,1.7,1.7,0,0,0,.5,1h1l1-.5a1.2,1.2,0,0,0,.2-1,40.1,40.1,0,0,0-.5-5.4A1.2,1.2,0,0,0,267.2-238.9Zm-3.4-11.2.5,6.3c0,.4.2.8.5-.3h1l1,.9a1.3,1.3,0,0,0,.3-1l-.5-6.3a4,4,0,0,0-.5-1.4h-1l-1,.9A1.3,1.3,0,0,0,263.9-250.1Zm12.5,132.5a1.5,1.5,0,0,0-.5-1h-1l-1,.5a1.2,1.2,0,0,0-.2,1,40.1,40.1,0,0,0,.5,5.4,1.5,1.5,0,0,0,.5,1h1l1-.5a1.2,1.2,0,0,0,.2-1ZM272-135.3a1.5,1.5,0,0,0,.5,1h1l1-.5a1.2,1.2,0,0,0,.2-1,40.1,40.1,0,0,0-.5-5.4l-.5-1h-1l-1,.5a1.5,1.5,0,0,0-.2,1Zm.7,5a1.3,1.3,0,0,0-.3,1l.5,6.3c.1.4.2.8.5,1.8h.8l1-1.2a1.6,1.6,0,0,0,.3-1,43.4,43.4,0,0,0-.5-6.3c0-.4-.2-.8-.5.7h-1Zm1.3-14.7a1.3,1.3,0,0,0,.3-1,42.4,42.4,0,0,1-.3-5.8,1.3,1.3,0,0,0-.5-1l-1-.5-1,.5a1.3,1.3,0,0,0-.5,1,46.3,46.3,0,0,0,.3,6,1.6,1.6,0,0,0,.5,1h1Zm-1-20.1a1.6,1.6,0,0,0-.3-1l-1-.5-1,.5a1.3,1.3,0,0,0-.5,1,58.1,58.1,0,0,0,.3,6.3,1.6,1.6,0,0,0,.5,1h1l1-.5a1.3,1.3,0,0,0,.3-1A35.3,35.3,0,0,1,273-165.2Zm-3.7-13.1a50.4,50.4,0,0,0,.3,6.3,1.6,1.6,0,0,0,.5,1h1l1-.5a1.3,1.3,0,0,0,.3-1q-.3-3.1-.3-6a1.3,1.3,0,0,0-.5-1l-1-.5-1,.5A1.3,1.3,0,0,0,269.3-178.2Zm-.8-12.5a1.3,1.3,0,0,0-.3,1l.5,6.3c0,.4.2.8.5-.6h1l1,1.1a1.3,1.3,0,0,0,.3-1l-.5-6.3a8.1,8.1,0,0,0-.5-1.6h-1Zm7,85.2-1,.5a1.2,1.2,0,0,0-.2,1,44,44,0,0,0,.5,5.4,1.5,1.5,0,0,0,.5,1h1l1-.5a1.2,1.2,0,0,0,.2-1,44,44,0,0,0-.5-5.4,1.7,1.7,0,0,0-.5-1Zm574.7-110-.3.3a1.3,1.3,0,0,0,.3,1.8l1,.7h6.3l1-.7a1.3,1.3,0,0,0,.3-1,1.6,1.6,0,0,0-.3-1l-1,.2h-6.3Zm-22.8,2.4c0,.4.2.8.5.4h6.8l1-.5a1.3,1.3,0,0,0,.3-1,1.9,1.9,0,0,0-.5-1.1h-1l-5.8.6-1,.5A1.3,1.3,0,0,0,827.5-213.2Zm17.5-2.2h-4.4l-1-.2a1,1,0,0,0-.5,1,1.3,1.3,0,0,0,.5,1l1,.7H845l1-.7a1.3,1.3,0,0,0,.5-1,1.3,1.3,0,0,0-.5-1Zm-39.8-3.7a1.3,1.3,0,0,0-.3-1l-1-.5h-1a1.5,1.5,0,0,0-.5,1,41.7,41.7,0,0,1-.5,5.3,1.3,1.3,0,0,0,.3,1l1,.5h1a1.5,1.5,0,0,0,.5-1Zm.5-11.5-1-.5h-1a1.2,1.2,0,0,0-.5,1,40.1,40.1,0,0,1-.5,5.4,1,1,0,0,0,.2,1l1,.5h1a1.2,1.2,0,0,0,.5-1,40.1,40.1,0,0,1,.5-5.4A1.2,1.2,0,0,0,805.7-230.6Zm10.6,7.7c1.5-.4,1.3-.8,1-1l-1-.5-1,.5a4.4,4.4,0,0,1-1.5,1v5.5a4.4,4.4,0,0,1,1.5,1l1,.5,1-.5c.4-.2.6-.6-1-1Zm0-12.8-1,.5a4.4,4.4,0,0,1-1.5,1v5.5a4.4,4.4,0,0,1,1.5,1l1,.5,1-.5c.4-.2.6-.6-1-1v-5.5c1.5-.4,1.3-.8,1-1Zm-1-10.5a4.4,4.4,0,0,1-1.5,1v5.5a4.4,4.4,0,0,1,1.5,1l1,.5,1-.5c.4-.2.6-.6-1-1v-5.5c1.5-.4,1.3-.8,1-1l-1-.5Zm-9.7,2h-1a1.5,1.5,0,0,0-.5,1l-.5,5.3a1.3,1.3,0,0,0,.3,1l1,.5h1a1.5,1.5,0,0,0,.5-1,37.8,37.8,0,0,1,.5-5.3,1.3,1.3,0,0,0-.3-1Zm-.9,38.1a1,1,0,0,0-.2-1l-1-.5h-1a1.5,1.5,0,0,0-.5,1,40.1,40.1,0,0,1-.5,5.4,1.2,1.2,0,0,0,.2,1l1,.5h1a1.5,1.5,0,0,0,.5-1C804.4-202.6,804.4-204.3,804.6-206.1Zm11.9-9.1a1.3,1.3,0,0,0-.5.8,1.6,1.6,0,0,0,.3,1l.8.5h6l1-.5a1.6,1.6,0,0,0,.3-1,1.8,1.8,0,0,0-.5-1h-6.3Zm-14,32.6a1.2,1.2,0,0,0-.2-1l-1-.5h-1a1.5,1.5,0,0,0-.5,1,40.1,40.1,0,0,1-.5,5.4,1.2,1.2,0,0,0,.2,1l1,.5h1a1.5,1.5,0,0,0,.5-1Zm-1.7-13.8a43.4,43.4,0,0,1-.3,5.5,1.3,1.3,0,0,0,.3,1l1,.5h1a1.6,1.6,0,0,0,.5-1c0-2.1.3-3.9.3-5.8a1.3,1.3,0,0,0-.5-1l-1-.5-1,.5A1.3,1.3,0,0,0,800.8-196.3Zm-.2,23.6c.7-.4.5-.8.2-1l-1-.5-1,.5a3,3,0,0,0-.7,1v1.8a14,14,0,0,1,0,4.2,1.3,1.3,0,0,0,.3,1h2.4c.3.4.5,0,.5-.4a7.2,7.2,0,0,0-.5-4.4Zm62.5-42.7h-1c-.3-.4-.5-.1-.5.3a1.3,1.3,0,0,0,.3,1l1,.5,6.3.7h1a1,1,0,0,0,.5-.7,1.3,1.3,0,0,0-.3-1l-.8-.5Zm48.4,31.1a1.3,1.3,0,0,0,.3,1l1,.5h1a1.6,1.6,0,0,0,.5-1,50.4,50.4,0,0,0,.3-6.3,1.3,1.3,0,0,0-.5-1l-1-.5-1,.5a1.3,1.3,0,0,0-.5,1A21.2,21.2,0,0,0,911.5-184.2ZM890.8-209h0l-3.1-3.7h-1l-.8,3.2a1.6,1.6,0,0,0,0,1l.8.8,4.2,2.8h1.6l.5-1.5.5-1.8a1.3,1.3,0,0,0,0-1l-.8-.9h-1Zm2.1-12.4a1.6,1.6,0,0,0-.5,1,47.3,47.3,0,0,1-.8,5.8,1.3,1.3,0,0,0,.3,1l.8.8h1l.8-.8a49.4,49.4,0,0,0,.8-6,1.3,1.3,0,0,0-.3-1l-1-.5Zm.8-11.3-.5,5.3a1.3,1.3,0,0,0,.3,1l1,.5h1a1.5,1.5,0,0,0,.5-1l.5-5.3a1.3,1.3,0,0,0-.3-1l-1-.5h-1A1.5,1.5,0,0,0,893.7-232.7Zm2.3-10.6-1-.5-1,.5c-.3.2-.5.6.8,1v5c-1.3.4-1.2.8-.8,1l1,.5,1-.5a5.3,5.3,0,0,1,1.3-1v-5A5.3,5.3,0,0,1,896-243.3Zm-21.4,29.5a1.3,1.3,0,0,0-.5.8,1.6,1.6,0,0,0,.3,1l.8.5,5.5,1.3h1l.8-.8a1.6,1.6,0,0,0,0-1l-.8-.8-6-1.6Zm38.3,47.3a1.2,1.2,0,0,0-.2-1l-1-.5h-1a1.5,1.5,0,0,0-.5,1l-.5,5.4a1.2,1.2,0,0,0,.2,1l1,.5h1a1.5,1.5,0,0,0,.5-1Zm-.1-4.9a1.5,1.5,0,0,0,.5-1l.5-5.4a1.2,1.2,0,0,0-.2-1l-1-.5h-1a1.5,1.5,0,0,0-.5,1l-.5,5.4a1.2,1.2,0,0,0,.2,1l1,.5Zm2.8-30.6a1.3,1.3,0,0,0-.5-1l-1-.5-1,.5a1.3,1.3,0,0,0-.5,1,48.3,48.3,0,0,1-.3,6,1.3,1.3,0,0,0,.3,1l1,.5h1a1.6,1.6,0,0,0,.5-1C915.3-197.8,915.3-199.9,915.5-202ZM913-213.5l-.5,6.3a1.3,1.3,0,0,0,.3,1l1,1h1a5.4,5.4,0,0,0,.5-1.5,43.4,43.4,0,0,1,.5-6.3,1.3,1.3,0,0,0-.3-1l-1,1h-1C913.2-214.3,913-213.9,913-213.5Zm.9-12-1,.5c-.3.2-.5.6.3,1v4.7c-.8.4-.6.8-.3,1l1,.5,1-.5a4.8,4.8,0,0,0,.8-1v-4.7a4.8,4.8,0,0,0-.8-1Zm2.3-9.3a1.5,1.5,0,0,0-.6-1l-1-.5-1,.5c-.3.2-.5.6,0,1v6c-.6.4-.4.8,0,1l1,.5,1-.5a1.5,1.5,0,0,0,.6-1Zm-2.7-12.6c-.3.2-.5.6,0,1v7.1c-.6.4-.4.8,0,1l1,.5,1-.5a1.5,1.5,0,0,0,.6-1v-6.8a1.5,1.5,0,0,0-.6-1l-1-.5Zm-5.8,140.2-1-.5-1,.5a1.2,1.2,0,0,0-.5,1v5.8a1.2,1.2,0,0,0,.5,1l1,.5,1-.5a.6.6,0,0,0,0-1v-5.8A.6.6,0,0,0,907.8-107.3Zm-.7-11.3a1.5,1.5,0,0,0-.5,1l-.5,5.4a1.2,1.2,0,0,0,.2,1l1,.5h1a1.5,1.5,0,0,0,.5-1l.5-5.4a1.2,1.2,0,0,0-.2-1l-1-.5Zm3.3-11.6a1.2,1.2,0,0,0-.2-1l-1-.5h-1a1.5,1.5,0,0,0-.5,1l-.5,5.4a1.2,1.2,0,0,0,.2,1l1,.5h1a1.5,1.5,0,0,0,.5-1Zm-1.9-15.1a1.5,1.5,0,0,0-.5,1l-.5,5.4a1.2,1.2,0,0,0,.2,1l1,.5h1a1.5,1.5,0,0,0,.5-1l.5-5.4a1.2,1.2,0,0,0-.2-1l-1-.5Zm1.4-10.8a1.5,1.5,0,0,0-.5,1l-.5,5.4a1.2,1.2,0,0,0,.2,1l1,.5h1a1.5,1.5,0,0,0,.5-1l.5-5.4a1.2,1.2,0,0,0-.2-1l-1-.5Zm-6.2,72.4-1,1v5.8l1,1,1,.5,1-.5c.3-.2.5-.6-.5-1v-5.8c1-.4.8-.8.5-1l-1-.5Zm4.2-10.2v-.8a4.8,4.8,0,0,0-.8-1l-1-.5-1,.5c-.3.2-.5.6.3,1v.5L903.9-89a1.3,1.3,0,0,0,.3,1l1,.7h1a2.6,2.6,0,0,0,.5-1.2ZM50,836.9v.8l1.3,1.6h0a1.8,1.8,0,0,0,.3-.8c0-.3,0-.7,1.1-1v-.8l-2.9-.6h-.3c-.2-.6-.2-.3-.3.1A1.5,1.5,0,0,0,50,836.9Zm53.6,41c-.2,2-.2,2.3-.3,2.7s0,.7-1,1v.8l2.6.7h.3c.2.3.2-.1.3-.4a.9.9,0,0,0-.5-1v-.8l-1.1-3Zm17-64.9v.8a5.2,5.2,0,0,0,0,1.3,1.6,1.6,0,0,0,.3.8l1.6,1.8h.3a2.4,2.4,0,0,0,.3-.8,4.2,4.2,0,0,0,0-1,1.1,1.1,0,0,0-.3-.8l-1.6-1.8Zm-68,28.1a.6.6,0,0,1,0,1V844h2.6c.1.8.1.4,0,.1a1.8,1.8,0,0,1,0-1v-.5l-2.6-1Zm13.1,2.8v1.6l1.5.8.8.2h2.9c.3.6.3.6,0,.3v-.8l-.6-2.2H65.6Zm-2.6,0v.9l-.6.8.8,1h2.9c.3-.2.3-.2.3-.4l-.5-.8-.8-1.4H63Zm-5.5-.4c-.3,0-.3,0,.3.3v1.8l.5.5,2.1.5c.3,0,.3,0,0-.3v-.8l-.3-1-.5-.5ZM84,851.7v1.9a1.2,1.2,0,0,1,.5,1,1.3,1.3,0,0,0,.3.8l1.6,1.5h.3v-1a6.3,6.3,0,0,0,0-1,1.3,1.3,0,0,0-.3-.8l-1.6-2.4Zm-2.4-2.6a4.5,4.5,0,0,0-.3,1.1,2.9,2.9,0,0,0,0,1v.8l1.5,2.3h.3c.1-1.3.2-1.7.3-2a1.2,1.2,0,0,1,.6-1v-.8l-2.1-1.4Zm-5.5-.4,1.3.5h2.4c.1.5.1.2-1-.2v-1l.5-.5-2.1-.9h-.3a1.2,1.2,0,0,1-.7,1.1Zm-2.6-1.8-1.1.8.5,1.5h3.2v-2l-1.3-1-.5.4H72.1c-.3-1.2-.3-1,1.3-.7Zm31.4,30.6v.8l2.3,2.3h.3c.2-1.3.2-1.7.3-2a1.3,1.3,0,0,0-.2-1v-.8l-1.3-1.4h-.3a4.1,4.1,0,0,0-.3,1.1A1.1,1.1,0,0,1,104.9,877.4Zm-1.3-4.8h-.3a8.8,8.8,0,0,0-.3,1.4,1.1,1.1,0,0,1-.7,1v.8l2.3,2h.3c.2-1,.2-1.4.3-1.8a1.4,1.4,0,0,0-.2-1v-.8ZM99.3,870h-.3c-.1.1-.1.3.6.6v1.6l2.1.4h.3c0,.6,0,.3.3.1v-1l-.8-.5ZM97,868.3l-.8-.9h-.3c-.2-.1-.2.2-.3.6s0,.7-1.3,1v.5l2.8.4h.3c.2.5.2.2.3-.2s0-.7-.7-1Zm-5.2-2.1v.8l2.1,3.1h.3c.2-2.1.3-2.4.3-2.8a8,8,0,0,0,0-1v-.8l-1.6-.6h-.3c-.2-.4-.2,0-.3.3A1.3,1.3,0,0,1,91.8,866.2ZM89.2,861a2.9,2.9,0,0,0,0,1.3v.8l1.8,1.8h.8v-.7a.7.7,0,0,1,0-1.3V862l-2.4-2.4h-.2Zm-1.9-4h-.7v1.8l1.3,3.3h.3l1.1-2.3v-1.8ZM57.8,741.9v1.6a1.1,1.1,0,0,1,0,1v.8l1.8,1.8h.8v-1c-.5-.3-.5-.7,0-1v-.8l-2.1-2.4Zm-2.6.9v.8l.5,1h-.5c.8-.3.8-.7.7-1a1.6,1.6,0,0,0-.3-.8l-1.6-3.5h1.1v2.4S54,742.4,55.2,742.7Zm-5.2-5c1,.3,1,.7,0,1v.8l2.6,2.3h0v-1.5a.8.8,0,0,0,0-1v-.8l-1.3-1.9H50Zm23.2,10.9c-.3,0-.3,0-.3.3a2.4,2.4,0,0,0,.3.8l.5,1,.5.5,2.4,1h.3a1.6,1.6,0,0,0-.3-.8l-.5-1-.5-.5Zm-6-1.6h-.5a2,2,0,0,0,0,1.1l.5.8.8.5,3.1.2h.5c.1.7.1.5,0,.3l-.5-.8-.5-.5Zm-5-2.6h-.3a3.3,3.3,0,0,0,.3,1.6l.5,1,.5.5,2.1-.6h.3c.1,1.4.1,1.1,0,.9l-.5-1-.5-.5Zm29.3,13.2a1.2,1.2,0,0,0,.3,1v.8l1.3.7h1.3c-1-.3-1-.7,0-1v-.8l-2.7-1.6A2.4,2.4,0,0,0,91.5,757.7Zm-5-2.7a2.9,2.9,0,0,0,.3,1.1l.5,1,.5.5h2.4c0,.5-.1.1-.3-.2l-.5-1-.5-.5-2.1-.9Zm-3.1.3.5.5,2.1,1.8h.3a3.8,3.8,0,0,0-.3-1.8l-.5-1-.5-.5-2.1.7h-.3c-.1-1.4-.1-1.1,0-.7Zm-5.8-3,.5,1,.5.5,2.1,1H81a2.4,2.4,0,0,0,0-1l-.5-1-.5-.5-2.1-1c-.3,0-.3,0-.3.3A2.9,2.9,0,0,0,77.6,752.3Zm42.9,66.5c1,.3,1,.7,0,1v.8l2.6,2.3h0v-1.5a.8.8,0,0,0,0-1v-.8l-1.3-1.9h-1.3ZM119,811c-.1.4-.1.9-1,1.3v.8l2.6,2h0v-.4a1.3,1.3,0,0,0,.2-1,1.6,1.6,0,0,0-.3-.8l-1.6-3h-.3C118.4,810.7,118.4,811,119,811Zm-4.2-9h.6v.9c-.9.3-.9.7-.8,1a1.1,1.1,0,0,0,.3.8l1,1.3,2.1,1.2h0v.3a1.3,1.3,0,0,0,.2-1,1.1,1.1,0,0,0-.3-.8l-1.8-2.4h0Zm-2.1-5.2h0a1.2,1.2,0,0,0-.3,1,1.6,1.6,0,0,0,.3.8l1.6,3.3h1.1v-2.3c-.8-.3-.8-.7-.8-1a1.6,1.6,0,0,0-.3-.8l-1.6-1.1Zm-3.7-4.6a1.6,1.6,0,0,0,0,.8l1.3,1.2h.8a3.9,3.9,0,0,0,.3-1,1.6,1.6,0,0,0,0-.8l-1.3-3.5h-.3l-.5,2.2Zm-1.8-5.8h.3v-.4a1.2,1.2,0,0,0-.6,1.3,1.8,1.8,0,0,0,.3,1l1.6,3.3h.5c.1-1.8.2-2.2.3-2.5a6.8,6.8,0,0,0,0-1.3,2.1,2.1,0,0,0-.3-.8Zm-2.3-4.4v.8c1.3.4,1.3.9,0,1.3v-.3h1l1.6-1.2v-.8q-4.9-.7,0-1.3v-1.9h-2.9Zm-1.1-5-1.3-1.1h-.2a2.9,2.9,0,0,0,0,1,1.6,1.6,0,0,0,.3.8l1.3,3.3h1.1v-2.3c-.8-.3-.8-.7-.8-1A1.6,1.6,0,0,0,103.8,777Zm-4.2-5.2a1.6,1.6,0,0,0,0,.8l1.3,3.3h1.3v-2.3c-1-.3-.9-.7-.8-1a1.6,1.6,0,0,0,0-.8l-1.3-1.1h-.3l-.5.3ZM97,765.5v1a2.7,2.7,0,0,1,.2.8l1,3.3h.5l.8-1.5v-1a1.5,1.5,0,0,1-.3-.8l-1-1.9H97Zm-1.1-5.3h-.3l-1.3.3v1c.7.3.7.5.7.8l1.3,3.1h.3l.3-1.8v-1a.7.7,0,0,0,.2-.8Zm816.8-203a1.5,1.5,0,0,0-.5-1h-1l-1,.5a1.3,1.3,0,0,0-.3,1l.5,5.3a1.5,1.5,0,0,0,.5,1h1l1-.5a1.3,1.3,0,0,0,.3-1Zm7,62.9-.5-5.4a1.5,1.5,0,0,0-.5-1h-1l-1,.5a1.2,1.2,0,0,0-.2,1l.5,5.4a1.5,1.5,0,0,0,.5,1h1l1-.5A1.5,1.5,0,0,0,919.7,620.1Zm-3-19.5-1,.5a1.2,1.2,0,0,0-.2,1l.5,5.4a1.5,1.5,0,0,0,.5,1h1l1-.5a1.2,1.2,0,0,0,.2-1l-.5-5.4a1.5,1.5,0,0,0-.5-1Zm-.3-10.5h-1l-1,.5a1.2,1.2,0,0,0-.2,1l.5,5.4a1.5,1.5,0,0,0,.5,1h1l1-.5a1.2,1.2,0,0,0,.2-1l-.5-5.4A1.5,1.5,0,0,0,916.4,590.2Zm-1-13.1h-1l-1,.5a1.3,1.3,0,0,0-.3,1l.5,5.3a1.5,1.5,0,0,0,.5,1h1l1-.5a1.3,1.3,0,0,0,.3-1l-.5-5.3A1.5,1.5,0,0,0,915.3,577.1Zm-.6-4.1-.5-5.3a1.8,1.8,0,0,0-.5-1h-1l-1,.5a1.3,1.3,0,0,0-.3,1l.5,5.3a2,2,0,0,0,.5,1h1l1-.5A1.5,1.5,0,0,0,914.8,573Zm-3.7-28.9a1.5,1.5,0,0,0-.5-1h-1l-1,.5a1.2,1.2,0,0,0-.2,1,44.4,44.4,0,0,0,.7,5.6l.5.7h1l.7-.5a1.5,1.5,0,0,0,.2-1A40.1,40.1,0,0,1,911.1,544.1Zm-2.3-11.4h-1l-1,.5a1.2,1.2,0,0,0-.2,1l.5,5.4a1.5,1.5,0,0,0,.5,1h1l1-.5a1.2,1.2,0,0,0,.2-1l-.5-5.4A1.5,1.5,0,0,0,908.8,532.7Zm-1.3-13.1h-1l-1,.5a1.2,1.2,0,0,0-.2,1,44.4,44.4,0,0,0,.7,5.6,1.2,1.2,0,0,0,.5.7h1.2l.7-.5a1.5,1.5,0,0,0,.2-1l-.7-5.4A1.5,1.5,0,0,0,907.5,519.6Zm-.8-9.4a1.5,1.5,0,0,0-.5-1h-1l-1,.5a1.3,1.3,0,0,0-.3,1l.5,5.3a1.5,1.5,0,0,0,.5,1h1l1-.5a1.3,1.3,0,0,0,.3-1ZM828.9,631.9a1.3,1.3,0,0,0-.5-.8h-1l-.8.5a1.5,1.5,0,0,0-.3,1l1,5.6a1.3,1.3,0,0,0,.5.8h1.3l.8-.5a1.8,1.8,0,0,0,.3-1.3ZM810.7,462.4l5.2,2.3h1l.8-1a1.6,1.6,0,0,0,0-1l-.8-.8-5.2-2.4h-1l-.8,1.1a1.6,1.6,0,0,0,0,1Zm6.3-12,.8-.8a1.6,1.6,0,0,0,0-1l-.8-2.2h-1l-5.2,3.2-.8.8a1.6,1.6,0,0,0,0,1l.8.2h1ZM806.6,454l.8-.8a1.8,1.8,0,0,0,0-1l-.8-.6h-1l-5.2,2.2-.8.8a1.8,1.8,0,0,0,0,1l.5.5-.5.8a1.6,1.6,0,0,0,0,1l.8.8,5.2.7h1l.8.3a1.6,1.6,0,0,0,0-1l-.8-.8-5-1.6Zm22,12-.8-.8-5.2-3.2h-1l-.8,2.2a1,1,0,0,0,0,1l.8.8,5.2,1.2h1l.8-.2A1.3,1.3,0,0,0,828.5,466Zm11,5.2a1.6,1.6,0,0,0-.3-1l-.8-.8-5.5-2.2h-1l-.8,1.1a1.6,1.6,0,0,0,.3,1l.8.8,5.5,2.3h1Zm13.3-31.6a1.6,1.6,0,0,0,.3,1l.8.8,5.8,2.3h1l.8-1.2a1.3,1.3,0,0,0,0-1l-.8-.8-5.8-2.2h-1ZM831.1,443a1.3,1.3,0,0,0,0,1l.8,2.3h1l5.2-3.3.8-.8a1.3,1.3,0,0,0,0-1h-1.8l-5.2,1.1Zm-2.6,1.8-.8-1.1h-1l-5.2,2.2-.8.8a1,1,0,0,0,0,1l.8,1.2h1l5.2-2.3.8-.8A1,1,0,0,0,828.5,444.8Zm12.8-9.7-.8-.5-5.5-1.4h-1a5.6,5.6,0,0,0-.5,1.1,1.3,1.3,0,0,0,.3,1l.8.5h6.5c.3.9.5.7.5.3A1.6,1.6,0,0,0,841.3,435.2Zm11.8.7-4.7.9-2.1-3.5h-1s-.7,3.6-.8,4a1,1,0,0,0,0,.8l-1.8.5-.8.8a1.3,1.3,0,0,0,0,1l.8.7h6.5l1-2h0l3.9-1.3.8-.8a1,1,0,0,0,0-1h-1.8Zm-31.6-4.1.8.8,5.8,3.3h1l.8-2.3a1.6,1.6,0,0,0-.3-1l-.8-.8-5.8-1.1h-1.8A1.3,1.3,0,0,0,821.5,431.8Zm63.3,25h-1l-5.2,2.4-.8.8a1.6,1.6,0,0,0,0,1.3l.8.8h1l5.2-2.4.8-.8a1.6,1.6,0,0,0,0-1A1,1,0,0,0,884.8,456.8Zm11.4-3.5.8-.8a1.5,1.5,0,0,0-.3-1l-.8-.8-5.6-1.8h-1l-.8.8a1.5,1.5,0,0,0,.3,1l.8.8,4,1-4,1.8-.8.8a1.5,1.5,0,0,0,0,1l.8.8h1l5.1-2.3.8-.8Zm-83.3,42.9h7.8a1.3,1.3,0,0,0,.5-1,1.6,1.6,0,0,0-.5-1l-1-.6h-5.8l-1,.6a1.3,1.3,0,0,0-.3,1A1,1,0,0,0,812.8,496.1Zm6.6-8.7.8.8h1.1l5.5-2.5.8-.8a1.7,1.7,0,0,0,0-1.1l-.8-.8h-1.1l-5.5,2.5-.8.8A1.4,1.4,0,0,0,819.4,487.4Zm-10.7,1.5a1.7,1.7,0,0,0,0,1.1l.8.8h1.1l5.5-2.5.8-.8a1.7,1.7,0,0,0,0-1.1l-.8-.8H815l-5.5,2.5Zm-4.2,1.7-5.2,2.4-.8.8a1.6,1.6,0,0,0,0,1l.8,1.2h9.9a1.3,1.3,0,0,0,.5-1,1.6,1.6,0,0,0-.5-1l-1-.6h-2.4l.8-.7a1.6,1.6,0,0,0,0-1l-.8-.8Zm88.9,0a1.3,1.3,0,0,0,0-1l-.8-.8-5.2-3.2h-1l-.8,2.2a1.3,1.3,0,0,0,0,1l.8.8,5.2,1.2h1Zm-10.5-4.7-.8-.8-5.2-2.2h-1a4.7,4.7,0,0,0-.8,1.1,1,1,0,0,0,0,1l.8.8,5.2,2.3h1l.8-1.2A1.3,1.3,0,0,0,882.9,485.9Zm-3.4,6.5-1,1h-5.8l-1-1a1.3,1.3,0,0,0-.3,1,1.6,1.6,0,0,0,.3,1l1,1.5h5.8l1-1.5a1.3,1.3,0,0,0,.5-1A1.6,1.6,0,0,0,879.5,492.4Zm-11.8.8-1,.2H861l-1-.2a1.3,1.3,0,0,0-.3,1,1.6,1.6,0,0,0,.3,1l1,.7h5.8l1-.7a1.3,1.3,0,0,0,0-2.1Zm-3.6-12.3a1.9,1.9,0,0,0,0,1.4l.8.8,5.5,2.5h1.1l.8-.8a1.9,1.9,0,0,0,0-1.1l-.8-.8-5.5-2.5H865Zm-.2-16.2h-1.1l-5.5,2.5-.8.8a1.9,1.9,0,0,0,0,1.1l.8.8h1.1l5.5-2.5.8-.8a1.9,1.9,0,0,0,0-1.1Zm10.5.1.8-.8a1.9,1.9,0,0,0,0-1.1l-.8-.8h-1.1l-5.5,2.5-.8.8a1.9,1.9,0,0,0,0,1.1l.8.8H869ZM825.7,496h6.8a1.3,1.3,0,0,0,.5-1,1.6,1.6,0,0,0-.5-1l-1-.6h-5.8l-1,.6a1.3,1.3,0,0,0-.3,1,1.6,1.6,0,0,0,.3,1Zm17.5,0h1a1.3,1.3,0,0,0,.5-1,1.6,1.6,0,0,0-.5-1l-1-.6h-5.8l-1,.6a1.3,1.3,0,0,0-.3,1,1.6,1.6,0,0,0,.3,1h6.8Zm-13.3-15a1.9,1.9,0,0,0,0,1.1l.8.8h1.1l5.5-2.5.8-.8a1.9,1.9,0,0,0,0-1.1l-.8-.8h-1.1l-5.5,2.5Zm82.6,76.2a1.5,1.5,0,0,0-.5-1h-1l-1,.5a1.3,1.3,0,0,0-.3,1l.5,5.3a1.5,1.5,0,0,0,.5,1h1l1-.5a1.3,1.3,0,0,0,.3-1Zm7.3,62.9-.5-5.4a1.5,1.5,0,0,0-.5-1h-1l-1,.5a1.2,1.2,0,0,0-.2,1l.5,5.4a1.5,1.5,0,0,0,.5,1h1l1-.5A1.5,1.5,0,0,0,919.7,620.1Zm-3.3-19.5-1,.5a1.2,1.2,0,0,0-.2,1l.5,5.4a1.5,1.5,0,0,0,.5,1h1l1-.5a1.2,1.2,0,0,0,.2-1l-.5-5.4a1.5,1.5,0,0,0-.5-1Zm-.1-10.5h-1l-1,.5a1.2,1.2,0,0,0-.2,1l.5,5.4a1.5,1.5,0,0,0,.5,1h1l1-.5a1.2,1.2,0,0,0,.2-1l-.5-5.4A1.5,1.5,0,0,0,916.4,590.2Zm-1.3-13.1h-1l-1,.5a1.3,1.3,0,0,0-.3,1l.5,5.3a1.5,1.5,0,0,0,.5,1h1l1-.5a1.3,1.3,0,0,0,.3-1l-.5-5.3A1.5,1.5,0,0,0,915.1,577.1Zm-.3-4.1-.5-5.3a1.8,1.8,0,0,0-.5-1h-1l-1,.5a1.3,1.3,0,0,0-.3,1l.5,5.3a2,2,0,0,0,.5,1h1l1-.5A1.5,1.5,0,0,0,914.8,573Zm-3.7-28.9a1.5,1.5,0,0,0-.5-1h-1l-1,.5a1.2,1.2,0,0,0-.2,1,44.4,44.4,0,0,0,.7,5.6l.5.7h1l.7-.5a1.5,1.5,0,0,0,.2-1A13.1,13.1,0,0,1,911.1,544.1Zm-2.3-11.4h-1l-1,.5a1.2,1.2,0,0,0-.2,1l.5,5.4a1.5,1.5,0,0,0,.5,1h1l1-.5a1.2,1.2,0,0,0,.2-1l-.5-5.4A1.5,1.5,0,0,0,908.8,532.7Zm-1.3-13.1h-1l-1,.5a1.2,1.2,0,0,0-.2,1,44.4,44.4,0,0,0,.7,5.6,1.2,1.2,0,0,0,.5.7h1l.7-.5a1.5,1.5,0,0,0,.2-1l-.7-5.4A1.5,1.5,0,0,0,907.5,519.6Zm-.8-9.4a1.5,1.5,0,0,0-.5-1h-1l-1,.5a1.3,1.3,0,0,0-.3,1l.5,5.3a1.5,1.5,0,0,0,.5,1h1l1-.5a1.3,1.3,0,0,0,.3-1Zm-85.9,88.4a1.2,1.2,0,0,0-.2,1q.2,2.9.7,5.6a1.2,1.2,0,0,0,.5.7h1l.7-.5a2,2,0,0,0,.2-1L823,599a1.5,1.5,0,0,0-.5-1h-1Zm1.4-4.6c-.3-1.8-.8-3.5-1-5.6a1.3,1.3,0,0,0-.5-.8h-1l-.8.5a1.5,1.5,0,0,0-.3,1l1,5.6.5.8h1l.8-.5A2.3,2.3,0,0,0,822.2,593.9Zm3.9,23.6-.7-5.4a1.5,1.5,0,0,0-.5-1h-1l-1,.5a1.5,1.5,0,0,0-.2,1,44.4,44.4,0,0,0,.7,5.6,1.2,1.2,0,0,0,.5.7h1l.7-.5A1.2,1.2,0,0,0,826.1,617.5Zm-8-43h-1l-.8.5a1.5,1.5,0,0,0-.3,1l1,5.6a1.3,1.3,0,0,0,.5.8h1.3l.8-.5a1.5,1.5,0,0,0,.3-1l-1-5.6A1.3,1.3,0,0,0,818.1,574.5Zm-4.1-12.6a2,2,0,0,0-.3,1c.3,1.8.8,3.8,1,5.6l.5.8h1l.8-.5a1.5,1.5,0,0,0,.3-1l-1-5.6a1.3,1.3,0,0,0-.5-.8h-1Zm-2.4-10.5a1.5,1.5,0,0,0-.3,1l1,5.6a1.3,1.3,0,0,0,.5.8h1l.8-.5a2,2,0,0,0,.3-1c-.3-1.8-.8-3.8-1-5.6a1.3,1.3,0,0,0-.5-.8h-1Zm-1.8-6.5a1.2,1.2,0,0,0,.5.7h1l.7-.5a1.4,1.4,0,0,0,.2-1l-1-5.7a1.2,1.2,0,0,0-.5-.7h-1l-.7.5a1.4,1.4,0,0,0-.2,1Zm-3.4-20a1.5,1.5,0,0,0-.3,1.3l1,5.6.5.8h1l.8-.5a1.5,1.5,0,0,0,.3-1l-1-5.6a1.3,1.3,0,0,0-.5-.8h-1Zm-.8-10.7h-1l-.8.5a2,2,0,0,0-.3,1c.3,1.8.8,3.8,1,5.6a1.3,1.3,0,0,0,.5.8h1l.8-.5a1.5,1.5,0,0,0,.3-1l-1-5.6A1,1,0,0,0,805.5,514.3Zm36,179.2-.5-.7h-1l-.7.5a1.5,1.5,0,0,0-.2,1l.7,5.4a1.5,1.5,0,0,0,.5,1h1l1-.5a1.2,1.2,0,0,0,.2-1A14.4,14.4,0,0,0,841.5,693.6Zm-3.9-9.9a2,2,0,0,0-.2,1l.7,5.4a1.5,1.5,0,0,0,.5,1h1l1-.5a1.2,1.2,0,0,0,.2-1,44.4,44.4,0,0,0-.7-5.6,1.2,1.2,0,0,0-.5-.7h-1Zm-.1-11.4a1.3,1.3,0,0,0-.5-.8h-1l-.8.5a1.5,1.5,0,0,0-.3,1l1,5.6a1.3,1.3,0,0,0,.5.8h1l.8-.5a2.3,2.3,0,0,0,.3-1.3A48.4,48.4,0,0,1,837.5,672.3Zm-3.9-10.9-.8.5a1.5,1.5,0,0,0-.3,1l1,5.6.5.8h1l.8-.5a1.8,1.8,0,0,0,.3-1c-.3-1.8-.8-3.8-1-5.6a1.3,1.3,0,0,0-.5-.8Zm-2.5-9.3a1.5,1.5,0,0,0-.3,1l1,5.6.5.8h1l.8-.5a1.5,1.5,0,0,0,.3-1l-1-5.6-.5-.8h-1Zm0-9.5a1.3,1.3,0,0,0-.5-.8h-1l-.8.5a1.5,1.5,0,0,0-.3,1l1,5.6a1.3,1.3,0,0,0,.5.8h1l.8-.5a1.8,1.8,0,0,0,.3-1.3Zm-6.9-19.3,1,5.4a1.2,1.2,0,0,0,.5.7h1l.7-.5a1.7,1.7,0,0,0,.2-1.2c-.2-1.7-.7-3.4-1-5.4l-.5-.7h-1l-.7.5A1.7,1.7,0,0,0,824.2,623.3ZM933.5,747.6a1.3,1.3,0,0,0-.3,1l.5,5.3a1.5,1.5,0,0,0,.5,1h1l1-.5a1.3,1.3,0,0,0,.3-1l-.5-5.3a1.5,1.5,0,0,0-.5-1h-1Zm.2-13.6h-1l-1,.5a1.2,1.2,0,0,0-.2,1l.5,5.4a1.5,1.5,0,0,0,.5,1h1l1-.5a1.2,1.2,0,0,0,.2-1l-.5-5.4A1.5,1.5,0,0,0,933.6,734ZM931.8,721h-1l-1,.5a1.2,1.2,0,0,0-.2,1l.5,5.4a1.5,1.5,0,0,0,.5,1h1l1-.5a1.2,1.2,0,0,0,.2-1l-.5-5.4A1.5,1.5,0,0,0,931.8,721Zm-.8-12.1a1.5,1.5,0,0,0-.5-1h-1l-1,.5a1.2,1.2,0,0,0-.2,1l.5,5.4a1.5,1.5,0,0,0,.5,1h1l1-.5a1.2,1.2,0,0,0,.2-1Zm-3.8-11a1.2,1.2,0,0,0-.2,1l.5,5.4a1.5,1.5,0,0,0,.5,1h1l1-.5a1.2,1.2,0,0,0,.2-1l-.5-5.4a1.5,1.5,0,0,0-.5-1h-1Zm1.7-6.2a1.5,1.5,0,0,0,.3-1l-1-5.6a1.3,1.3,0,0,0-.5-.8h-1l-.8.5a1.5,1.5,0,0,0-.3,1l1,5.6a1.3,1.3,0,0,0,.5.8h1Zm-4.6-17.3a1.2,1.2,0,0,0-.2,1l.5,5.4a1.5,1.5,0,0,0,.5,1h1l1-.5a1.2,1.2,0,0,0,.2-1l-.5-5.4a1.5,1.5,0,0,0-.5-1h-1Zm.1-13.6h-1l-1,.5a1.2,1.2,0,0,0-.2,1l.5,5.4a1.5,1.5,0,0,0,.5,1h1l1-.5a1.2,1.2,0,0,0,.2-1l-.5-5.4A1.5,1.5,0,0,0,924.5,660.8Zm-1.8-10.5h-1l-.8.5a1.5,1.5,0,0,0-.3,1l1,5.6a1.3,1.3,0,0,0,.5.8h1.3l.8-.5a1.5,1.5,0,0,0,.3-1l-1-5.6A1.3,1.3,0,0,0,922.7,650.3Zm-1-13c-.1-.3-.3-.6-.5-.1h-1l-.8-.2a1.6,1.6,0,0,0-.3,1l.5,3.4.5,3.7a12.8,12.8,0,0,1,.5,2.5h1l.8-2.3a1.6,1.6,0,0,0,.3-1l-.5-3.4Zm-1.9-13.2h-1l-1,.5a1.2,1.2,0,0,0-.2,1l.5,5.4a1.5,1.5,0,0,0,.5,1h1l1-.5a1.2,1.2,0,0,0,.2-1l-.5-5.4A1.5,1.5,0,0,0,919.8,624.2ZM853.1,755.6a1.2,1.2,0,0,0-.5-.7h-1l-.7.5a2,2,0,0,0-.2,1l.7,5.4a1.7,1.7,0,0,0,.5,1h1l1-.5a1.2,1.2,0,0,0,.2-1A38.5,38.5,0,0,0,853.1,755.6ZM849.1,744a2,2,0,0,0-.2,1l.7,5.4a1.7,1.7,0,0,0,.5,1h1l1-.5a1.2,1.2,0,0,0,.2-1,39.2,39.2,0,0,0-.7-5.6,1.2,1.2,0,0,0-.5-.7h-1Zm-1.1-3.5c.1.4.3.7.5.1h1l1.1.2a1.3,1.3,0,0,0,.2-1.1,50.8,50.8,0,0,0-1.1-6.2l-.6-.8h-1l-1,.4a1.6,1.6,0,0,0-.2,1.1Zm-2.6-16.5a1.5,1.5,0,0,0-.2,1l.7,5.4a1.5,1.5,0,0,0,.5,1h1l1-.5a1.2,1.2,0,0,0,.2-1,44.4,44.4,0,0,0-.7-5.6l-.5-.7h-1Zm-2.7-9.2a1.5,1.5,0,0,0-.2,1,54.2,54.2,0,0,1,.7,5.4,1.5,1.5,0,0,0,.5,1h1l1-.5a1.5,1.5,0,0,0,.2-1,22.3,22.3,0,0,0-.7-5.6,1.2,1.2,0,0,0-.5-.7h-1Zm-1-11.3-.7.5a1.5,1.5,0,0,0-.2,1l.7,5.4a1.7,1.7,0,0,0,.5,1h1l1-.5a1.2,1.2,0,0,0,.2-1,46.3,46.3,0,0,0-.7-5.6,1.2,1.2,0,0,0-.5-.7ZM810.5,462.4l5.2,2.3h1l.8-1a1.6,1.6,0,0,0,0-1l-.8-.8-5.2-2.4h-1l-.8,1.1a1.6,1.6,0,0,0,0,1Zm6.3-11.8.8-.8a1.6,1.6,0,0,0,0-1l-.8-2.4h-1l-5.2,3.5-.8.8a1.6,1.6,0,0,0,0,1h1.8ZM806.6,454l.8-.8a1.8,1.8,0,0,0,0-1l-.8-.6h-1l-5.2,2.2-.8.8a1.8,1.8,0,0,0,0,1l.5.5-.5.8a1.6,1.6,0,0,0,0,1l.8.8,5.2.7h1l.8.3a1.6,1.6,0,0,0,0-1l-.8-.8-5-1.6Zm21.7,12-.8-.8-5.2-3.2h-1l-.8,2.2a1,1,0,0,0,0,1l.8.8,5.2,1.2h1l.8-.2A1.3,1.3,0,0,0,828.3,466Zm11,5.2a1.6,1.6,0,0,0-.3-1l-.8-.8-5.5-2.2h-1l-.8,1.1a1.6,1.6,0,0,0,.3,1l.8.8,5.5,2.3h1Zm13.9-1.4h-1l-4.7,2.4-3.7-2.4h-1s-.9,2.7-.5,3.5l.8.8h0l-1.6.8-.8.8a1.8,1.8,0,0,0,0,1l.8,1h1l5-2.6h1l4.7-2.1.8-.8a1.8,1.8,0,0,0,0-1.3Zm-.3-30.3a1.6,1.6,0,0,0,.3,1l.8.8,5.8,2.3h1l.8-1.2a1.3,1.3,0,0,0,0-1l-.8-.8-5.8-2.2h-1Zm-21.7,3.7a1.3,1.3,0,0,0,0,1l.8,2h1l5.2-3.1.8-.8a1.3,1.3,0,0,0,0-1l-.8-.3h-1l-5.2,1.4Zm-2.9,1.8-.8-1.4h-1l-5.2,2.4-.8.8a1,1,0,0,0,0,1l.8,1h1l5.2-2,.8-.8A1,1,0,0,0,828.3,445.1Zm12.8-9.7-.8-.5-5.5-1.6h-1c-.3.8-.5,1.1-.5,1.4a1.3,1.3,0,0,0,.3,1l.8.5,5.5-.3h1c.3,1.2.5.9.5.6A1.6,1.6,0,0,0,841.1,435.4Zm12,3.1-4.7-1.5-2.1-1.1h-1a1.9,1.9,0,0,0-.8,1.1,1.1,1.1,0,0,0,0,.8l-1.9.6-.8.8a1.4,1.4,0,0,0,0,1.1l.8.8h1.1l4.7-2.6h.8l1,.9h0l3.9-1.3.8-.8a1,1,0,0,0,0-1l-.8,2.3Zm-56-15.7c-.4-.8-.6-.3-.5.1a1.3,1.3,0,0,0,.5,1l.8.5v1l.8.8,5.8,1.8h.8l.8-.8a1.3,1.3,0,0,0,0-1l-.8-.8h-1.1l.5-1,.3-.3a1.3,1.3,0,0,0-.3-1.8l-1,.4h-6.5Zm24.3,9.2.8.8,5.8,3.1h1l.8-2a1.6,1.6,0,0,0-.3-1l-.8-.8-5.8-1.4h-1l-.8.3A1.3,1.3,0,0,0,821.5,432Zm-9.7-6.6h-1l-.8,1.6a1.3,1.3,0,0,0,0,1l.8.8,5.8,1.8h1l.8-.7a1.6,1.6,0,0,0-.3-1l-.8-.8Zm73,31.4h-1l-5.2,2.4-.8.8a1.6,1.6,0,0,0,0,1.3l.8.8h1l5.2-2.4.8-.8a1.6,1.6,0,0,0,0-1A1,1,0,0,0,884.8,456.8Zm11.4-3.5.8-.8a1.5,1.5,0,0,0-.3-1l-.8-.8-5.6-1.8h-1l-.8.8a1.5,1.5,0,0,0,.3,1l.8.8,4,1-4,1.8-.8.8a1.5,1.5,0,0,0,0,1l.8.8h1l5.1-2.3.8-.8Zm-10.9-5.5-.8-.8-5.8-3.2h-1l-.8,2.2a1.6,1.6,0,0,0,.3,1l.8.8,5.8,1.2h1l.8-.2A1.6,1.6,0,0,0,885.3,447.7Zm-72.7,48.4h7.8a1.3,1.3,0,0,0,.5-1,1.6,1.6,0,0,0-.5-1l-1-.6h-5.8l-1,.6a1.3,1.3,0,0,0-.3,1A1,1,0,0,0,812.6,496.1Zm6.6-8.7.8.8h1.4l5.5-2.5.8-.8a1.7,1.7,0,0,0,0-1.1l-.8-.8h-1.1l-5.5,2.5-.8.8A1.4,1.4,0,0,0,819.2,487.4Zm-10.5,1.5a1.7,1.7,0,0,0,0,1.1l.8.8h1.1l5.5-2.5.8-.8a1.7,1.7,0,0,0,0-1.1l-.8-.8H815l-5.5,2.5Zm-4,1.7-5.2,2.4-.8.8a1.6,1.6,0,0,0,0,1l.8,1.2h9.4a1.3,1.3,0,0,0,.5-1,1.6,1.6,0,0,0-.5-1l-1-.6h-2.4l.8-.7a1.6,1.6,0,0,0,0-1l-.8-.8Zm88.7,0a1.3,1.3,0,0,0,0-1l-.8-.8-5.2-3.2h-1l-.8,2.2a1.3,1.3,0,0,0,0,1l.8.8,5.2,1.2h1Zm3.4,1.5h-1.6l-1,.5a1.3,1.3,0,0,0,0,2.1h5.5a1.3,1.3,0,0,0,.5-.8,1.6,1.6,0,0,0-.3-1l-.8-.5Zm-14.1-5.9-.8-.8-5.2-2.4h-1c-.4.7-.7,1-.8,1.4a1,1,0,0,0,0,1l.8.8,5.2,2h1l.8-1A1.3,1.3,0,0,0,882.7,486.2Zm.4,8.1a1.3,1.3,0,0,0-.3,1,1.6,1.6,0,0,0,.3,1l1-.9h5.8l1,.9a1.3,1.3,0,0,0,.5-1,1.6,1.6,0,0,0-.5-1l-1-1.4h-5.8Zm-3.8-1.6-1,.7h-5.8l-1-.7a1.3,1.3,0,0,0-.3,1,1.6,1.6,0,0,0,.3,1l1,1.2h5.8l1-1.2a1.3,1.3,0,0,0,.5-1A1.6,1.6,0,0,0,879.3,492.7Zm-11.8.5-1,.2h-5.8l-1-.2a1.3,1.3,0,0,0-.3,1,1.6,1.6,0,0,0,.3,1l1,.7h5.8l1-.7a1.3,1.3,0,0,0,0-2.1Zm-3.6-12.3a1.9,1.9,0,0,0,0,1.4l.8.8,5.5,2.5h1.1l.8-.8a1.9,1.9,0,0,0,0-1.1l-.8-.8-5.5-2.5h-1.1Zm-3.2-3.4-5.2-2.4h-1l-.8,1.4a1.6,1.6,0,0,0,0,1l.8.8,5.2,2h1l.8-1a1.6,1.6,0,0,0,0-1Zm3-12.9h-1.1l-5.5,2.5-.8.8a1.9,1.9,0,0,0,0,1.1l.8.8h1.1l5.5-2.5.8-.8a1.9,1.9,0,0,0,0-1.1Zm10.7.1.8-.8a1.9,1.9,0,0,0,0-1.1l-.8-.8h-1.1l-5.5,2.5-.8.8a1.9,1.9,0,0,0,0,1.1l.8.8H869Zm-9.6-21,.8.8,5.8,1.8h1l.8-.7a1.3,1.3,0,0,0,0-1l-.8-.8-5.8-2.7h-1l-.8,1.6A1.8,1.8,0,0,0,864.9,443.8ZM825.4,496h6.8a1.3,1.3,0,0,0,.5-1,1.6,1.6,0,0,0-.5-1l-1-.6h-5.8l-1,.6a1.3,1.3,0,0,0-.3,1,1.6,1.6,0,0,0,.3,1Zm17.5,0h1a1.3,1.3,0,0,0,.5-1,1.6,1.6,0,0,0-.5-1l-1-.6h-5.8l-1,.6a1.3,1.3,0,0,0-.3,1,1.6,1.6,0,0,0,.3,1h6.8Zm11.6-.1h1a1.3,1.3,0,0,0,.5-1,1.6,1.6,0,0,0-.5-1l-1-.6h-5.8l-1,.6a1.3,1.3,0,0,0-.3,1,1.6,1.6,0,0,0,.3,1h6.8ZM829.9,481a1.9,1.9,0,0,0,0,1.1l.8.8h1.1l5.5-2.5.8-.8a1.9,1.9,0,0,0,0-1.1l-.8-.8h-1.1l-5.5,2.5ZM211,475.1h.3l.8-1.5a1.6,1.6,0,0,0,.3-1.3l-.8-2.4h-1.3l-3.7,2.7-4.7-2.7h-1.3l-.8.8a1.8,1.8,0,0,0,0,1.3l.8.8,5,2.4h1.3l4.7,2.6h1l.8-.4a1.8,1.8,0,0,0,0-1l-.8-.8Zm11.8-6.5-.8-1.4h-1l-5.2,2.4-.8.8a1.6,1.6,0,0,0,0,1l.8,1h1l5.2-2,.8-.8A1,1,0,0,0,222.8,468.6Zm13.3-5,.8,1h1l5.2-2.3.8-.8a1.6,1.6,0,0,0,0-1l-.8-1.1h-1l-5.2,2.4-.8.8A1.3,1.3,0,0,0,236.1,463.7Zm-2.6,1.8a1.6,1.6,0,0,0,0-1l-.8-2.4h-1l-5.2,3.5-.8.8a1.6,1.6,0,0,0,0,1h1.8l5.2-1Zm21.7-11-.8-.8-5.2-2.2h-1.3l-.8.6a1.6,1.6,0,0,0,0,1.3l.8.8,5,2.4-5,1.6-.8.8a1.3,1.3,0,0,0,0,1l.8,2h1l5.2-3.1.8-.8c.1-.3.1-.7-1-1v-1.3C255.2,455.4,255.3,455,255.2,454.5Zm-12.8-3h1.8a1.3,1.3,0,0,0,0-1l-.8-.8-5.2-3.5h-1l-.8,2.4a1.3,1.3,0,0,0,0,1l.8.8Zm-8.9-4.9-.8-.8-5.2-2.2h-1l-.8,1.1a1.6,1.6,0,0,0,0,1l.8.8,5.2,2.3h1l.8-1.2A1,1,0,0,0,233.5,446.7Zm16.6,44.1h-1.5l-.7.7a1.4,1.4,0,0,0,0,1.2l.7.7h-2.3l-1,1.1-.3.3a1.3,1.3,0,0,0,.3,1.8l1-.6h6l1.6.6V496h1.7l.8-.8a1.7,1.7,0,0,0,0-1.4l-.8-.8ZM239,485.6h-1l-.8.8a1.8,1.8,0,0,0,0,1.3l.8.8,5.2,2.4h1.3l.8-.8a1.8,1.8,0,0,0,0-1.3l-.8-.8ZM217.3,494l-1-.6h-5.8l-1,.6-.3.3a1.3,1.3,0,0,0,.3,1.8h7.8a1.3,1.3,0,0,0,.5-1A1.6,1.6,0,0,0,217.3,494ZM228.8,483h-1.3l-.8.8a1.8,1.8,0,0,0,0,1.3l.8.8,5.2,2.4H234l.8-.8a1.8,1.8,0,0,0,0-1.3l-.8-.8Zm-12.6-3.1.8.8,5.2,2.4h1l.8-.8a1.6,1.6,0,0,0,0-1.3l-.8-.8-5.2-2.4h-1.3l-.8.8A1.8,1.8,0,0,0,216.3,479.8ZM199,493.4l-1,.3a1.3,1.3,0,0,0-.5,1,1.6,1.6,0,0,0,.5,1l1,.2h5.8l1-.2a1.3,1.3,0,0,0,0-2.1l-1-.3Zm-5.2.3-1-.3h-6l-1,.3a1.3,1.3,0,0,0-.5,1,1.6,1.6,0,0,0,.5,1l1,.2h6l1-.2a1.3,1.3,0,0,0,0-2.1Zm-1.3-14.9a1.3,1.3,0,0,0,0,1l.8.4h1l5.2-1.5.8-.8a1.3,1.3,0,0,0,0-1l-.8-1.9h-1l-5.2,3ZM182,493l-1,.4h-6l-1-.4a1.6,1.6,0,0,0,0,2.1l1,1h6l1-1a1.3,1.3,0,0,0,.5-1A1.6,1.6,0,0,0,182,493Zm.3-10.3-.8.8a1.6,1.6,0,0,0,0,1.3l.8.8h1.3l5.2-2.4.8-.8a1.6,1.6,0,0,0,0-1.3l-.8-.8h-1Zm-4.4.3h-1l-5.2,3-.8.8a1.3,1.3,0,0,0,0,1l.8.4h1.3l5.2-1.5.8-.8a1.3,1.3,0,0,0,0-1A12.8,12.8,0,0,1,177.8,483Zm-15.4,9.5a1.3,1.3,0,0,0-.5,1,1.6,1.6,0,0,0,.5,1l1,1.5h6l1-1.5a1.3,1.3,0,0,0,0-2.1l-1,1h-6Zm5.8-3.1a1.6,1.6,0,0,0,0-1h-1.8l-5.2,1.1-.8.8a1.6,1.6,0,0,0,0,1l.8,2.3h1l5.2-3.3Zm-15.4,2.9a1.7,1.7,0,0,0,0,1.8l1-.6h3.7l1,.6a1.3,1.3,0,0,0,0-2.1l-1-.5-.5-.6h-1l-2.4.6ZM164,451.7l.7-.7a1.5,1.5,0,0,0,0-1.2l-.7-.7h-1l-5.6,1.7-.7.7a1.5,1.5,0,0,0,0,1.2l.7.7a1.5,1.5,0,0,0,0,1l.7.7,4.9,1.7h1l.7-.7a1.5,1.5,0,0,0,0-1l-.7-.7-3.7-1.2Zm12,8.3-.8-.8-5.2-2.4h-1l-.8.8a1.6,1.6,0,0,0,0,1.3l.8.8,5.2,2.4h1l.8-.8A1.8,1.8,0,0,0,176,459.9Zm15.4,7.3h-1.3l-.8.8a1.8,1.8,0,0,0,0,1.3l.8.8,5.2,2.4h1l.8-.8a1.6,1.6,0,0,0,0-1.3l-.8-.8Zm-4.7-2.1-.8-.8-5.2-2.4h-1.3l-.8.8a1.6,1.6,0,0,0,0,1.3l.8.8,5.2,2.4h1.3l.8-.8A1.6,1.6,0,0,0,186.7,465.2Zm-10.2-18.8h-1l-6,.9-.8.8a1.6,1.6,0,0,0,0,1.3l.8,2.3h1l6-3.3.8-.8a1.6,1.6,0,0,0,0-1.3Zm57.8,47.1-1,.6-.3.3a1.3,1.3,0,0,0,.3,1.8h7.8l.3-.3a1.3,1.3,0,0,0-.3-1.8l-1-.6Zm-89.8,45-1-.5h-1a1.5,1.5,0,0,0-.5,1,41.7,41.7,0,0,1-.5,5.3,1.3,1.3,0,0,0,.3,1l1,.5H144a1.5,1.5,0,0,0,.5-1l.5-5.3A1.8,1.8,0,0,0,144.5,538.4Zm-.2-11a1.5,1.5,0,0,0-.5,1,43.2,43.2,0,0,1-.7,5.4,1.5,1.5,0,0,0,.2,1l.7.5h1a1.2,1.2,0,0,0,.5-.7c.2-2,.5-3.9.7-5.6a1,1,0,0,0-.2-1l-1-.5Zm2.3-13.1h-1a1.5,1.5,0,0,0-.5,1,41.7,41.7,0,0,1-.5,5.3,1.3,1.3,0,0,0,.3,1l1,.5h1a1.5,1.5,0,0,0,.5-1l.5-5.3a1.3,1.3,0,0,0-.3-1Zm2.3-9a1.2,1.2,0,0,0-.2-1l-1-.5h-1a1.2,1.2,0,0,0-.5,1,44,44,0,0,1-.5,5.4,1,1,0,0,0,.2,1l1,.5h1a1.2,1.2,0,0,0,.5-1C148.7,508.8,148.4,498.7,148.9,505.4Zm97.1,20-.8-.5h-1a1.3,1.3,0,0,0-.5.8c-.3,1.8-.8,3.8-1,5.6a1.3,1.3,0,0,0,.3,1l.8.5h1a1.3,1.3,0,0,0,.5-.8l1-5.6A1.5,1.5,0,0,0,246,525.3Zm.3-10.2-1,5.6a1.8,1.8,0,0,0,.3,1l.8.5h1a1.3,1.3,0,0,0,.5-.8c.3-1.8.8-3.5,1-5.6a1.3,1.3,0,0,0-.3-1l-.8-.5h-1A1,1,0,0,0,246.4,515.1Zm-4,22.8h-1a1.2,1.2,0,0,0-.5.7c-.2,1.9-.7,3.8-1,5.7a1.2,1.2,0,0,0,.2,1l.7.5h1a1.2,1.2,0,0,0,.5-.7l1-5.7a1.2,1.2,0,0,0-.2-1ZM140.6,573.4a1,1,0,0,0-.2-1l-1-.5h-1a1.5,1.5,0,0,0-.5,1,44.4,44.4,0,0,1-.7,5.4,1.5,1.5,0,0,0,.2,1l.7.5h1a1,1,0,0,0,.5-.7A48.1,48.1,0,0,0,140.6,573.4Zm1.6-10.5a1,1,0,0,0-.2-1l-1-.5h-1a1.5,1.5,0,0,0-.5,1,43.4,43.4,0,0,1-.7,5.4,1.5,1.5,0,0,0,.2,1l.7.5h1a1,1,0,0,0,.5-.7A46.6,46.6,0,0,0,142.1,562.9Zm1.6-13.1a1.2,1.2,0,0,0-.2-1l-1-.5h-1a1.5,1.5,0,0,0-.5,1,44.4,44.4,0,0,1-.7,5.4,1.2,1.2,0,0,0,.2,1l.7.5h1a1.2,1.2,0,0,0,.5-.7A37.3,37.3,0,0,0,143.7,549.8Zm85.6,68.4.7-5.6a1.2,1.2,0,0,0-.2-1l-1-.5h-1a1.2,1.2,0,0,0-.5,1,40.7,40.7,0,0,1-.7,5.4,1.2,1.2,0,0,0,.2,1l.7.5h1A1.2,1.2,0,0,0,229.3,618.2Zm.6-20.2a1.5,1.5,0,0,0-.5,1,40.7,40.7,0,0,1-.7,5.4,1.5,1.5,0,0,0,.2,1l.7.5h1a1.2,1.2,0,0,0,.5-.7q.5-2.9.7-5.6a1.2,1.2,0,0,0-.2-1l-1-.5Zm1.3-12.3-1,5.6a1.5,1.5,0,0,0,.3,1l.8.5h1a1.3,1.3,0,0,0,.5-.8l1-5.6a1.5,1.5,0,0,0-.3-1l-.8-.5h-1A1,1,0,0,0,231.2,585.7Zm4.1-11.2h-1a1.3,1.3,0,0,0-.5.8c-.3,1.8-.8,3.5-1,5.6a1.5,1.5,0,0,0,.3,1l.8.5h1a1.3,1.3,0,0,0,.5-.8l1-5.6a1.3,1.3,0,0,0-.3-1A.8.8,0,0,0,235.3,574.5Zm3.1-12.6-.8-.5h-1a1,1,0,0,0-.5.8l-1,5.6a1.3,1.3,0,0,0,.3,1l.8.5h1a1.3,1.3,0,0,0,.5-.8c.3-1.8.8-3.5,1-5.6A1.8,1.8,0,0,0,238.4,561.9Zm.6-11a1.3,1.3,0,0,0-.5.8l-1,5.6a1.5,1.5,0,0,0,.3,1l.8.5h1l.5-.8,1-5.6a1.3,1.3,0,0,0-.3-1l-.8-.5ZM135.3,619.5l-1-.5h-1a1.5,1.5,0,0,0-.5,1,40.1,40.1,0,0,1-.5,5.4,1.5,1.5,0,0,0,.2,1l1,.5h1a1.5,1.5,0,0,0,.5-1,40.1,40.1,0,0,1,.5-5.4A1.2,1.2,0,0,0,135.3,619.5Zm1-10.5-1-.5h-1a1.5,1.5,0,0,0-.5,1,40.1,40.1,0,0,1-.5,5.4,1.5,1.5,0,0,0,.2,1l1,.5h1a1.5,1.5,0,0,0,.5-1l.5-5.4A1.2,1.2,0,0,0,136.4,609Zm-.7-13.6a1.5,1.5,0,0,0-.5,1l-.5,5.4a1.5,1.5,0,0,0,.2,1l1,.5h1a1.5,1.5,0,0,0,.5-1l.5-5.4a1.7,1.7,0,0,0-.2-1l-1-.5Zm2-10.5h-1a1.5,1.5,0,0,0-.5,1,40.1,40.1,0,0,1-.5,5.4,1.5,1.5,0,0,0,.2,1l1,.5h1a1.5,1.5,0,0,0,.5-1l.5-5.4a1.5,1.5,0,0,0-.2-1Zm67.4,189.8a1,1,0,0,0-.2-1l-1-.5h-1a1.5,1.5,0,0,0-.5,1,44,44,0,0,1-.5,5.4,1.5,1.5,0,0,0,.2,1l1,.5h1a1.5,1.5,0,0,0,.5-1C204.9,778.2,204.9,776.5,205.2,774.7Zm1-10.5a1.5,1.5,0,0,0-.2-1l-.7-.5h-1a1,1,0,0,0-.5.7c-.2,2-.5,5.4-.7,5.6s0,.5.2,1l1,.5h1a1.2,1.2,0,0,0,.5-1A36.8,36.8,0,0,1,206.2,764.3Zm-.6-11.9a1,1,0,0,0-.5.7c-.2,2-.5,5.4-.7,5.6s0,.5.2,1l1,.5h1a1.5,1.5,0,0,0,.5-1,44.6,44.6,0,0,1,.7-5.4,1.5,1.5,0,0,0-.2-1l-.7-.5Zm2.6-5.2c.3.6.5.2.5-.2l.5-6.3a1.3,1.3,0,0,0-.3-1l-1-.3h-1c-.3.1-.5.4-.5.9a50.8,50.8,0,0,1-.5,6.3,1.3,1.3,0,0,0,.3,1l1-.3Zm.6-20.9a1.2,1.2,0,0,0-.5.7l-.7,5.6a1.2,1.2,0,0,0,.2,1l1,.5h1a1.2,1.2,0,0,0,.5-1,40.7,40.7,0,0,1,.7-5.4,1.2,1.2,0,0,0-.2-1l-.7-.5Zm1.8-10.5a1.2,1.2,0,0,0-.5.7l-.7,5.6a1.2,1.2,0,0,0,.2,1l1,.5h1a1.5,1.5,0,0,0,.5-1,40.7,40.7,0,0,1,.7-5.4,1.5,1.5,0,0,0-.2-1,1,1,0,0,0-.7-.5Zm2.8-10.5h-1a1.2,1.2,0,0,0-.5.7l-.7,5.6a1.2,1.2,0,0,0,.2,1l1,.5h1a1.5,1.5,0,0,0,.5-1,40.7,40.7,0,0,1,.7-5.4,1.5,1.5,0,0,0-.2-1Zm2.9-12.6-.8-.5h-1a1.3,1.3,0,0,0-.5.8l-1,5.6a1.5,1.5,0,0,0,.3,1l.8.5h1a1.3,1.3,0,0,0,.5-.8l1-5.6A1.5,1.5,0,0,0,216.2,692.7Zm-.2-11.5a1,1,0,0,0-.5.8l-1,5.8a1.8,1.8,0,0,0,.3,1.3l.8.5h1a1.3,1.3,0,0,0,.5-.8c.3-1.8.8-3.9,1-5.8a1.6,1.6,0,0,0-.3-1l-.8-.5Zm4.3-11.1a1.5,1.5,0,0,0-.2-1l-.7-.5h-1a1.2,1.2,0,0,0-.5.7l-1,5.4a1.7,1.7,0,0,0,.2,1.2l.7.5h1a1.2,1.2,0,0,0,.5-.7Zm.9-14.5h-1a1.3,1.3,0,0,0-.5.8l-1,5.6a1.5,1.5,0,0,0,.3,1l.8.5h1a1.3,1.3,0,0,0,.5-.8l1-5.6a1.5,1.5,0,0,0-.3-1Zm2.1-10.5h-1a1.3,1.3,0,0,0-.5.8c-.3,1.8-.8,3.8-1,5.6a1.3,1.3,0,0,0,.3,1l.8.5h1a1.3,1.3,0,0,0,.5-.8c.3-1.8.8-3.5,1-5.6a1.3,1.3,0,0,0-.3-1A1,1,0,0,0,223.3,645.1Zm2.5-9a1.7,1.7,0,0,0-.2-1l-.7-.5h-1a1.2,1.2,0,0,0-.5.7c-.2,1.7-.7,3.7-1,5.4a1.5,1.5,0,0,0,.2,1.2l.7.5h1a1.2,1.2,0,0,0,.5-.7Zm2.1-13.1a1.2,1.2,0,0,0-.2-1l-1-.5h-1a1.5,1.5,0,0,0-.5,1,50.5,50.5,0,0,1-.7,5.4,1.5,1.5,0,0,0,.2,1l.7.5h1a1.2,1.2,0,0,0,.5-.7A42.2,42.2,0,0,0,227.9,623ZM117.4,755h-1a1.5,1.5,0,0,0-.5,1,40.1,40.1,0,0,1-.5,5.4,1.5,1.5,0,0,0,.2,1l1,.5h1a1.5,1.5,0,0,0,.5-1l.5-5.4a1.2,1.2,0,0,0-.2-1Zm1.8-13.1h-1a1.3,1.3,0,0,0-.5.8c-.3,1.8-.8,3.8-1,5.6a1.5,1.5,0,0,0,.3,1l.8.5h1a1.3,1.3,0,0,0,.5-.8l1-5.6a1.3,1.3,0,0,0-.3-1A.8.8,0,0,0,119.2,741.9Zm3.3-14.2a1.3,1.3,0,0,0-.3-1l-1-.5h-1a1.3,1.3,0,0,0-.5,1l-.5,3.8c-.3,2.3-.8,4.5-1,6.8a1.5,1.5,0,0,0,.3,1l.8.5h1.3a1,1,0,0,0,.5-.8l1-6.8h0A22,22,0,0,0,122.5,727.7Zm1-14.1-1-.5h-1a1.5,1.5,0,0,0-.5,1,40.1,40.1,0,0,1-.5,5.4,1.2,1.2,0,0,0,.2,1l1,.5h1a1.5,1.5,0,0,0,.5-1,44,44,0,0,1,.5-5.4A1.2,1.2,0,0,0,123.6,713.6Zm-.9-11a1.5,1.5,0,0,0-.5,1l-.5,5.4a1.2,1.2,0,0,0,.2,1l1,.5h1a1.5,1.5,0,0,0,.5-1,44,44,0,0,1,.5-5.4,1.5,1.5,0,0,0-.2-1l-1-.5Zm3.5-9a1.2,1.2,0,0,0-.2-1l-1-.5h-1a1.5,1.5,0,0,0-.5,1,40.1,40.1,0,0,1-.5,5.4,1.2,1.2,0,0,0,.2,1l1,.5h1a1.5,1.5,0,0,0,.5-1Zm1.6-13.1a1.5,1.5,0,0,0-.2-1l-.7-.5h-1a1.2,1.2,0,0,0-.5.7l-1,5.4a1.7,1.7,0,0,0,.2,1.2l.7.5h1a1.2,1.2,0,0,0,.5-.7Zm.9-5.1.5-5.3a1.3,1.3,0,0,0-.3-1l-1-.5h-1a1.5,1.5,0,0,0-.5,1,37.8,37.8,0,0,1-.5,5.3,1.3,1.3,0,0,0,.3,1l1,.5h1A1.5,1.5,0,0,0,128.6,675.5Zm.1-19.9a1.5,1.5,0,0,0-.5,1l-.5,5.4a1.2,1.2,0,0,0,.2,1l1,.5h1a1.5,1.5,0,0,0,.5-1,44,44,0,0,1,.5-5.4,1.2,1.2,0,0,0-.2-1l-1-.5Zm2.5-10.5h-1a1.2,1.2,0,0,0-.5.7l-1,5.7a1.4,1.4,0,0,0,.2,1l.7.5h1.4a1.2,1.2,0,0,0,.5-.7l1-5.7a1.4,1.4,0,0,0-.2-1Zm3.1-11.6a1.2,1.2,0,0,0-.2-1l-1-.5h-1a1.2,1.2,0,0,0-.5,1,40.1,40.1,0,0,1-.5,5.4,1.2,1.2,0,0,0,.2,1l1,.5h1a1.2,1.2,0,0,0,.5-1ZM116.6,765.9l-.8-.5h-1a1.3,1.3,0,0,0-.5.8c-.3,2-.5,3.8-.8,5.6a1.3,1.3,0,0,0,.3,1l1,.5h1a1.3,1.3,0,0,0,.5-1,38.4,38.4,0,0,1,.8-5.3A1.8,1.8,0,0,0,116.6,765.9Zm10.2,15.2a1.3,1.3,0,0,0,.5-1,1.6,1.6,0,0,0-.5-1l-1-.5H120l-1,.5a1.6,1.6,0,0,0-.3,1,1.3,1.3,0,0,0,.5,1h7.6Zm11.8,0a1.3,1.3,0,0,0,.5-1,1.6,1.6,0,0,0-.5-1l-1-.5H132l-1,.5a1.6,1.6,0,0,0-.3,1,1.3,1.3,0,0,0,.5,1h7.3Zm11.8,0a1.3,1.3,0,0,0,.5-1,1.6,1.6,0,0,0-.5-1l-1-.5h-5.8l-1,.5a1.6,1.6,0,0,0-.3,1,1.3,1.3,0,0,0,.5,1h7.6Zm23,0a1.3,1.3,0,0,0,.5-1,1.6,1.6,0,0,0-.5-1l-1-.5h-5.8l-1,.5a1.6,1.6,0,0,0-.3,1,1.3,1.3,0,0,0,.5,1h7.6Zm11.8,0a1.3,1.3,0,0,0,.5-1,1.6,1.6,0,0,0-.5-1l-1-.5h-5.5l-1,.5a1.6,1.6,0,0,0-.3,1,1.3,1.3,0,0,0,.5,1h7.3Zm11.8,0a1.3,1.3,0,0,0,.5-1,1.6,1.6,0,0,0-.5-1l-1-.5h-5.8l-1,.5a1.6,1.6,0,0,0-.3,1,1.3,1.3,0,0,0,.5,1h7.6Zm665.3-15a1.3,1.3,0,0,0,.4-1.1,1.6,1.6,0,0,0-.7-1l-1.1-.4-5.7.8-1,.7a1.6,1.6,0,0,0-.1,1.1,1.3,1.3,0,0,0,.7,1l6.7-1Zm11.6-1.7a1.3,1.3,0,0,0,.4-1.1,1.6,1.6,0,0,0-.7-1l-1.1-.4-5.4.8-1,.7a1.6,1.6,0,0,0-.1,1.1,1.3,1.3,0,0,0,.7,1l6.5-.9Zm11.6-1.7a1.3,1.3,0,0,0,.4-1.1,1.6,1.6,0,0,0-.7-1l-1.1-.4-5.7.8-1,.7a1.6,1.6,0,0,0-.1,1.1,1.3,1.3,0,0,0,.7,1l6.5-.9Zm11.4-1.5a1.3,1.3,0,0,0,.4-1.1,1.6,1.6,0,0,0-.7-1l-1.1-.4-5.7.8-1,.7a1.6,1.6,0,0,0-.1,1.1,1.3,1.3,0,0,0,.7,1l6.5-.9Zm11.4-1.8a1.3,1.3,0,0,0,.4-1.1,1.6,1.6,0,0,0-.7-1l-1.1-.4-5.7.8-1,.7a1.6,1.6,0,0,0-.1,1.1,1.3,1.3,0,0,0,.7,1l6.7-1Zm11.6-1.7a1.3,1.3,0,0,0,.4-1.1,1.6,1.6,0,0,0-.7-1l-1.1-.4-5.4.8-1,.7a1.6,1.6,0,0,0-.1,1.1,1.3,1.3,0,0,0,.7,1l6.5-.9Zm11.6-1.7a1.3,1.3,0,0,0,.4-1.1,1.6,1.6,0,0,0-.7-1l-1.1-.4-5.7.8-1,.7a1.6,1.6,0,0,0-.1,1.1,1.3,1.3,0,0,0,.7,1l6.5-.9Zm-710.8-261a1.3,1.3,0,0,0,.5,1h7.8l.3-.3a1.3,1.3,0,0,0-.3-1.8l-1-.6h-5.8l-1,.6A1.6,1.6,0,0,0,220.7,495.1Zm-9.7-20h.3l.7-.7a1.4,1.4,0,0,0,.2-1.2l-.7-.7h-1.3l-3.7.3-4.7-.3h-1.3l-.8-1a1.8,1.8,0,0,0,0,1.3l.8.8,5,1.5h1l4.7,2.6h1l.8-.2a1.8,1.8,0,0,0,0-1l-.8-.8Zm11.5-6.2-.8-1.6h-1l-5.2,2.7-.8.8a1.6,1.6,0,0,0,0,1l.8.7h1l5.2-1.8.8-.8A1,1,0,0,0,222.5,468.9Zm-7.1-25.6,5.2,3.1h1l.8-2a1.6,1.6,0,0,0,0-1l-.8-.8-5.2-1.4h-1l-.8.3a1.6,1.6,0,0,0,0,1Zm-15.7-1.8.8-.5a1.6,1.6,0,0,0,.3-1.3,5.6,5.6,0,0,0-.5-1.1H199l-6,1.6-.8.5a2.1,2.1,0,0,0-.3,1.3c.1.3.3.6.5,1.8h1.3Zm36.4,22.2.8,1h1l5.2-2.3.8-.8a1.6,1.6,0,0,0,0-1l-.8-1.1h-1l-5.2,2.4-.8.8A1.3,1.3,0,0,0,236.1,463.7Zm-2.9,2.1a1.6,1.6,0,0,0,0-1h-1.8l-5.2,1.1-.8.8a1.6,1.6,0,0,0,0,1l.8,2.3h1l5.2-3.3Zm22-11.2-.8-.8-5.2-2.2h-1.3l-.8.6a1.6,1.6,0,0,0,0,1.3l.8.8,5,2.4-5,1.6-.8.8a1.3,1.3,0,0,0,0,1l.8,2h1l5.2-3.1.8-.8c.1-.3.1-.7-1-1v-1.3C255.2,455.4,255.3,455,255.2,454.5Zm-13.1-3H244a1.3,1.3,0,0,0,0-1l-.8-.8-5.2-3.5h-1l-.8,2.4a1.3,1.3,0,0,0,0,1l.8.8Zm-8.6-4.9-.8-.8-5.2-2.2h-1l-.8,1.1a1.6,1.6,0,0,0,0,1l.8.8,5.2,2.3h1l.8-1.2A1,1,0,0,0,233.5,446.7Zm11.2-18,.8-.8a1.6,1.6,0,0,0,.3-1.3l-.8-1.1h-1.3l-6,2.2-.8.8a1.6,1.6,0,0,0,0,1.3l.8,1h1Zm4.2-7.3-1,.5a1.3,1.3,0,0,0-.5,1,1.6,1.6,0,0,0,.5,1l.8.5v.5a1.4,1.4,0,0,0,0,1.3l.8,1.8h1l6-2.8.8-.8a1.6,1.6,0,0,0,0-1.3l-.8-.3H256l-1-1Zm-5.1,2.9a1.2,1.2,0,0,0-.5-1l-1-.5h-5.2l-1,.5a1.2,1.2,0,0,0-.5,1h0l.5.7,1,.5h5.2l1-.5A1.2,1.2,0,0,0,243.8,424.2Zm-35.4,11.5-3.1,1-5-.9h-1.4l-.8.8a1.9,1.9,0,0,0,0,1.4l.8.8,6.1,2.2h.3l5-2.6h1l.8,2.2a1.3,1.3,0,0,0,0-1l-.8-.8-1.6-.5.5-.5a1.3,1.3,0,0,0,0-1l-.8-.8Zm16.7-3.9a1.8,1.8,0,0,0,0,1.3l.8.2h1.3l6-1.2.8-.8a1.6,1.6,0,0,0,.3-1.3l-.8-1.9h-1.3l-6,3Zm-3.4,3.1a1.6,1.6,0,0,0,.3-1.3l-.8-.3h-1.3l-6,1.4-.8.8a1.8,1.8,0,0,0,0,1.3l.8,1.8h1.3l6-2.8Zm28.4,55.9h-1.5l-.7.7a1.4,1.4,0,0,0,0,1.2l.7.7h-2.3l-1,1.1-.3.3a1.3,1.3,0,0,0,.3,1.8l1-.6h6l1.6.6V496h1.7l.8-.8a1.7,1.7,0,0,0,0-1.4l-.8-.8Zm-11.4-5.2h-1l-.8.8a1.8,1.8,0,0,0,0,1.3l.8.8,5.2,2.4h1.3l.8-.8a1.8,1.8,0,0,0,0-1.3l-.8-.8ZM217.3,494l-1-.6h-5.8l-1,.6-.3.3a1.3,1.3,0,0,0,.3,1.8h7.8a1.3,1.3,0,0,0,.5-1A1.6,1.6,0,0,0,217.3,494ZM228.5,483h-1.3l-.8.8a1.8,1.8,0,0,0,0,1.3l.8.8,5.2,2.4h1.3l.8-.8a1.8,1.8,0,0,0,0-1.3l-.8-.8ZM216,479.8l.8.8L222,483h1l.8-.8a1.6,1.6,0,0,0,0-1.3l-.8-.8-5.2-2.4h-1.3l-.8.8A1.8,1.8,0,0,0,216,479.8Zm-17.3,13.6-1,.6a1.3,1.3,0,0,0-.5,1,1.6,1.6,0,0,0,.5,1h7.8a1.3,1.3,0,0,0,0-2.1l-1-.6Zm-5,.3-1-.3h-6l-1,.3a1.3,1.3,0,0,0-.5,1,1.6,1.6,0,0,0,.5,1l1,.2h6l1-.2a1.3,1.3,0,0,0,0-2.1Zm-1.6-14.9a1.3,1.3,0,0,0,0,1l.8.4h1l5.2-1.5.8-.8a1.3,1.3,0,0,0,0-1l-.8-1.9h-1l-5.2,3ZM182,493.2l-1,.2h-6l-1-.2a1.6,1.6,0,0,0,0,2.1l1,.7h6l1-.7a1.3,1.3,0,0,0,.5-1A1.6,1.6,0,0,0,182,493.2Zm0-10.5-.8.8a1.6,1.6,0,0,0,0,1.3l.8.8h1.3l5.2-2.4.8-.8a1.6,1.6,0,0,0,0-1.3l-.8-.8h-1Zm-4.2.3h-1l-5.2,3-.8.8a1.3,1.3,0,0,0,0,1l.8.4h1.3l5.2-1.5.8-.8a1.3,1.3,0,0,0,0-1A12.8,12.8,0,0,1,177.8,483Zm-15.7,9.8a1.3,1.3,0,0,0-.5,1,1.6,1.6,0,0,0,.5,1l1,1.2h6l1-1.2a1.3,1.3,0,0,0,0-2.1l-1,.7h-6Zm6-3.4a1.6,1.6,0,0,0,0-1h-1.8l-5.2,1.1-.8.8a1.6,1.6,0,0,0,0,1l.8,2.3h1l5.2-3.3Zm-15.4,3.1a1.7,1.7,0,0,0,0,1.8l1-.9h3.7l1,.9a1.3,1.3,0,0,0,0-2.1l-1-.5-.5-.9h-1l-2.4.9ZM164,451.7l.7-.7a1.5,1.5,0,0,0,0-1.2l-.7-.7h-1l-5.6,1.7-.7.7a1.5,1.5,0,0,0,0,1.2l.7.7a1.5,1.5,0,0,0,0,1l.7.7,4.9,1.7h1l.7-.7a1.5,1.5,0,0,0,0-1l-.7-.7-3.7-1.2Zm11.7,8.3-.8-.8-5.2-2.4h-1l-.8.8a1.6,1.6,0,0,0,0,1.3l.8.8,5.2,2.4h1.3l.8-.8A1.8,1.8,0,0,0,175.7,459.9Zm15.7,7.3h-1.3l-.8.8a1.8,1.8,0,0,0,0,1.3l.8.8,5.2,2.4h1l.8-.8a1.6,1.6,0,0,0,0-1.3l-.8-.8Zm-4.7-2.1-.8-.8-5.2-2.4h-1.3l-.8.8a1.6,1.6,0,0,0,0,1.3l.8.8,5.2,2.4h1l.8-.8A1.6,1.6,0,0,0,186.7,465.2Zm-6.3-19.8.8,1h1l6-2,.8-.8a1.6,1.6,0,0,0,0-1.3l-.8-1.1h-1l-6,2.2-.8.8A1.3,1.3,0,0,0,180.4,445.4Zm-4.2,1h-1l-6,.9-.8.8a1.6,1.6,0,0,0,0,1.3l.8,2.3h1l6-3.3.8-.8a1.6,1.6,0,0,0,0-1.3ZM234,493.4l-1,.9-.3.3a1.3,1.3,0,0,0,.3,1.8l1-.3h5.8l1,.3.3-.3a1.3,1.3,0,0,0-.3-1.8l-1-.9Zm-89.5,45-1-.5h-1a1.5,1.5,0,0,0-.5,1,41.7,41.7,0,0,1-.5,5.3,1.3,1.3,0,0,0,.3,1l1,.5H144a1.5,1.5,0,0,0,.5-1l.5-5.3A1.8,1.8,0,0,0,144.5,538.4Zm-.2-11a1.5,1.5,0,0,0-.5,1,43.2,43.2,0,0,1-.7,5.4,1.5,1.5,0,0,0,.2,1l.7.5h1a1.2,1.2,0,0,0,.5-.7c.2-2,.5-3.9.7-5.6a1,1,0,0,0-.2-1l-1-.5Zm2.3-13.1h-1a1.5,1.5,0,0,0-.5,1,41.7,41.7,0,0,1-.5,5.3,1.3,1.3,0,0,0,.3,1l1,.5h1a1.5,1.5,0,0,0,.5-1l.5-5.3a1.3,1.3,0,0,0-.3-1Zm2.3-9a1.2,1.2,0,0,0-.2-1l-1-.5h-1a1.2,1.2,0,0,0-.5,1,44,44,0,0,1-.5,5.4,1,1,0,0,0,.2,1l1,.5h1a1.2,1.2,0,0,0,.5-1C148.7,509,148.4,498.7,148.9,505.4Zm97.1,20-.8-.5h-1a1.3,1.3,0,0,0-.5.8c-.3,1.8-.8,3.8-1,5.6a1.3,1.3,0,0,0,.3,1l.8.5h1a1.3,1.3,0,0,0,.5-.8l1-5.6A1.5,1.5,0,0,0,246,525.3Zm.1-10.2-1,5.6a1.8,1.8,0,0,0,.3,1l.8.5h1a1.3,1.3,0,0,0,.5-.8c.3-1.8.8-3.5,1-5.6a1.3,1.3,0,0,0-.3-1l-.8-.5h-1A1,1,0,0,0,246.1,515.1Zm-4,22.8h-1a1.2,1.2,0,0,0-.5.7c-.2,1.9-.7,3.8-1,5.7a1.2,1.2,0,0,0,.2,1l.7.5h1a1.2,1.2,0,0,0,.5-.7l1-5.7a1.2,1.2,0,0,0-.2-1ZM140.6,573.4a1,1,0,0,0-.2-1l-1-.5h-1a1.5,1.5,0,0,0-.5,1,44.4,44.4,0,0,1-.7,5.4,1.5,1.5,0,0,0,.2,1l.7.5h1a1,1,0,0,0,.5-.7A48.1,48.1,0,0,0,140.6,573.4Zm1.6-10.5a1,1,0,0,0-.2-1l-1-.5h-1a1.5,1.5,0,0,0-.5,1,43.4,43.4,0,0,1-.7,5.4,1.5,1.5,0,0,0,.2,1l.7.5h1a1,1,0,0,0,.5-.7A46.6,46.6,0,0,0,142.1,562.9Zm1.6-13.1a1.2,1.2,0,0,0-.2-1l-1-.5h-1a1.5,1.5,0,0,0-.5,1,44.4,44.4,0,0,1-.7,5.4,1.2,1.2,0,0,0,.2,1l.7.5h1a1.2,1.2,0,0,0,.5-.7A37.3,37.3,0,0,0,143.7,549.8ZM229,618.2l.7-5.6a1.2,1.2,0,0,0-.2-1l-1-.5h-1a1.2,1.2,0,0,0-.5,1,40.7,40.7,0,0,1-.7,5.4,1.2,1.2,0,0,0,.2,1l.7.5h1A1.2,1.2,0,0,0,229,618.2Zm.9-20.2a1.5,1.5,0,0,0-.5,1,40.7,40.7,0,0,1-.7,5.4,1.5,1.5,0,0,0,.2,1l.7.5h1a1.2,1.2,0,0,0,.5-.7q.5-2.9.7-5.6a1.2,1.2,0,0,0-.2-1l-1-.5Zm1.3-9.7-1,5.6a1.5,1.5,0,0,0,.3,1l.8.5h1a1.3,1.3,0,0,0,.5-.8l1-5.6a1.5,1.5,0,0,0-.3-1l-.8-.5h-1A1,1,0,0,0,231.2,588.3Zm3.9-13.8h-1a1.3,1.3,0,0,0-.5.8c-.3,1.8-.8,3.5-1,5.6a1.5,1.5,0,0,0,.3,1l.8.5h1a1.3,1.3,0,0,0,.5-.8l1-5.6a1.3,1.3,0,0,0-.3-1A.8.8,0,0,0,235.1,574.5Zm3.4-12.6-.8-.5h-1a1,1,0,0,0-.5.8l-1,5.6a1.3,1.3,0,0,0,.3,1l.8.5h1a1.3,1.3,0,0,0,.5-.8c.3-1.8.8-3.5,1-5.6A1.8,1.8,0,0,0,238.4,561.9Zm.3-11a1.3,1.3,0,0,0-.5.8l-1,5.6a1.5,1.5,0,0,0,.3,1l.8.5h1l.5-.8,1-5.6a1.3,1.3,0,0,0-.3-1l-.8-.5ZM135.1,619.5l-1-.5h-1a1.5,1.5,0,0,0-.5,1,40.1,40.1,0,0,1-.5,5.4,1.5,1.5,0,0,0,.2,1l1,.5h1a1.5,1.5,0,0,0,.5-1,40.1,40.1,0,0,1,.5-5.4A1.2,1.2,0,0,0,135.1,619.5Zm1.3-10.5-1-.5h-1a1.5,1.5,0,0,0-.5,1,40.1,40.1,0,0,1-.5,5.4,1.5,1.5,0,0,0,.2,1l1,.5h1a1.5,1.5,0,0,0,.5-1l.5-5.4A1.2,1.2,0,0,0,136.4,609Zm-.9-13.6a1.5,1.5,0,0,0-.5,1l-.5,5.4a1.5,1.5,0,0,0,.2,1l1,.5h1a1.5,1.5,0,0,0,.5-1l.5-5.4a1.7,1.7,0,0,0-.2-1l-1-.5Zm2.3-10.5h-1a1.5,1.5,0,0,0-.5,1,40.1,40.1,0,0,1-.5,5.4,1.5,1.5,0,0,0,.2,1l1,.5h1a1.5,1.5,0,0,0,.5-1l.5-5.4a1.5,1.5,0,0,0-.2-1Zm67.1,189.8a1,1,0,0,0-.2-1l-1-.5h-1a1.5,1.5,0,0,0-.5,1,44,44,0,0,1-.5,5.4,1.5,1.5,0,0,0,.2,1l1,.5h1.2a1.5,1.5,0,0,0,.5-1C204.7,778.4,204.9,776.5,204.9,774.7Zm1-10.5a1.5,1.5,0,0,0-.2-1l-.7-.5h-1a1,1,0,0,0-.5.7c-.2,2-.5,5.4-.7,5.6s0,.5.2,1l1,.5h1a1.2,1.2,0,0,0,.5-1A36.8,36.8,0,0,1,205.9,764.3Zm-.6-11.9a1,1,0,0,0-.5.7c-.2,2-.5,5.4-.7,5.6s0,.5.2,1l1,.5h1a1.5,1.5,0,0,0,.5-1,44.6,44.6,0,0,1,.7-5.4,1.5,1.5,0,0,0-.2-1l-.7-.5Zm2.9-5.2c.3.9.5.5.5.1l.5-6.3a1.3,1.3,0,0,0-.3-1l-1-.6h-1a1.6,1.6,0,0,0-.5,1.1,50.8,50.8,0,0,1-.5,6.3,1.3,1.3,0,0,0,.3,1l1-.6Zm.6-18.3a1.2,1.2,0,0,0-.5.7l-.7,5.6a1.2,1.2,0,0,0,.2,1l1,.5h1a1.2,1.2,0,0,0,.5-1,40.7,40.7,0,0,1,.7-5.4,1.2,1.2,0,0,0-.2-1l-.7-.5Zm1.8-13.1a1.2,1.2,0,0,0-.5.7l-.7,5.6a1.2,1.2,0,0,0,.2,1l1,.5h1a1.5,1.5,0,0,0,.5-1,40.7,40.7,0,0,1,.7-5.4,1.5,1.5,0,0,0-.2-1,1,1,0,0,0-.7-.5Zm2.8-10.5h-1a1.2,1.2,0,0,0-.5.7l-.7,5.6a1.2,1.2,0,0,0,.2,1l1,.5h1a1.5,1.5,0,0,0,.5-1,40.7,40.7,0,0,1,.7-5.4,1.5,1.5,0,0,0-.2-1Zm2.3-12.6-.8-.5h-1a1.3,1.3,0,0,0-.5.8l-1,5.6a1.5,1.5,0,0,0,.3,1l.8.5h1.3a1.3,1.3,0,0,0,.5-.8l1-5.6A1.5,1.5,0,0,0,215.7,692.7Zm.3-11.5a1,1,0,0,0-.5.8l-1,5.8a1.8,1.8,0,0,0,.3,1.3l.8.5h1a1.3,1.3,0,0,0,.5-.8c.3-1.8.8-3.9,1-5.8a1.6,1.6,0,0,0-.3-1l-.8-.5Zm4.3-11.1a1.5,1.5,0,0,0-.2-1l-.7-.5h-1a1.2,1.2,0,0,0-.5.7l-1,5.4a1.7,1.7,0,0,0,.2,1.2l.7.5h1a1.2,1.2,0,0,0,.5-.7Zm.9-14.5h-1a1.3,1.3,0,0,0-.5.8l-1,5.6a1.5,1.5,0,0,0,.3,1l.8.5h1a1.3,1.3,0,0,0,.5-.8l1-5.6a1.5,1.5,0,0,0-.3-1Zm1.8-10.5h-1a1.3,1.3,0,0,0-.5.8c-.3,1.8-.8,3.8-1,5.6a1.3,1.3,0,0,0,.3,1l.8.5h1a1.3,1.3,0,0,0,.5-.8c.3-1.8.8-3.5,1-5.6a1.3,1.3,0,0,0-.3-1A1,1,0,0,0,223,645.1Zm2.8-9a1.7,1.7,0,0,0-.2-1l-.7-.5h-1a1.2,1.2,0,0,0-.5.7c-.2,1.7-.7,3.7-1,5.4a1.5,1.5,0,0,0,.2,1.2l.7.5h1a1.2,1.2,0,0,0,.5-.7Zm1.8-13.1a1.2,1.2,0,0,0-.2-1l-1-.5h-1a1.5,1.5,0,0,0-.5,1,50.5,50.5,0,0,1-.7,5.4,1.5,1.5,0,0,0,.2,1l.7.5h1a1.2,1.2,0,0,0,.5-.7A42.2,42.2,0,0,0,227.6,623ZM117.1,755h-1a1.5,1.5,0,0,0-.5,1,40.1,40.1,0,0,1-.5,5.4,1.5,1.5,0,0,0,.2,1l1,.5h1a1.5,1.5,0,0,0,.5-1l.5-5.4a1.2,1.2,0,0,0-.2-1Zm1.8-13.1h-1a1.3,1.3,0,0,0-.5.8c-.3,1.8-.8,3.8-1,5.6a1.5,1.5,0,0,0,.3,1l.8.5h1a1.3,1.3,0,0,0,.5-.8l1-5.6a1.3,1.3,0,0,0-.3-1A.8.8,0,0,0,118.9,741.9Zm3.6-14.2a1.3,1.3,0,0,0-.3-1l-1-.5h-1a1.3,1.3,0,0,0-.5,1l-.5,3.8c-.3,2.3-.8,4.5-1,6.8a1.5,1.5,0,0,0,.3,1l.8.5h1a1,1,0,0,0,.5-.8l1-6.8h0C122,730.2,122.3,729,122.5,727.7Zm.8-11.5-1-.5h-1a1.5,1.5,0,0,0-.5,1,40.1,40.1,0,0,1-.5,5.4,1.2,1.2,0,0,0,.2,1l1,.5h1a1.5,1.5,0,0,0,.5-1,44,44,0,0,1,.5-5.4A1.2,1.2,0,0,0,123.3,716.2Zm-.7-13.6a1.5,1.5,0,0,0-.5,1l-.5,5.4a1.2,1.2,0,0,0,.2,1l1,.5h1a1.5,1.5,0,0,0,.5-1,44,44,0,0,1,.5-5.4,1.5,1.5,0,0,0-.2-1l-1-.5Zm3.3-9a1.2,1.2,0,0,0-.2-1l-1-.5h-1a1.5,1.5,0,0,0-.5,1,40.1,40.1,0,0,1-.5,5.4,1.2,1.2,0,0,0,.2,1l1,.5h1a1.5,1.5,0,0,0,.5-1Zm1.8-13.1a1.5,1.5,0,0,0-.2-1l-.7-.5h-1a1.2,1.2,0,0,0-.5.7l-1,5.4a1.7,1.7,0,0,0,.2,1.2l.7.5h1a1.2,1.2,0,0,0,.5-.7Zm.6-5.1.5-5.3a1.3,1.3,0,0,0-.3-1l-1-.5h-1a1.5,1.5,0,0,0-.5,1,37.8,37.8,0,0,1-.5,5.3,1.3,1.3,0,0,0,.3,1l1,.5h1A1.5,1.5,0,0,0,128.3,675.5Zm.1-19.9a1.5,1.5,0,0,0-.5,1l-.5,5.4a1.2,1.2,0,0,0,.2,1l1,.5h1a1.5,1.5,0,0,0,.5-1,44,44,0,0,1,.5-5.4,1.2,1.2,0,0,0-.2-1l-1-.5Zm2.8-10.5h-1a1.2,1.2,0,0,0-.5.7l-1,5.7a1.4,1.4,0,0,0,.2,1l.7.5H131a1.2,1.2,0,0,0,.5-.7l1-5.7a1.4,1.4,0,0,0-.2-1Zm3.1-11.6a1.2,1.2,0,0,0-.2-1l-1-.5h-1a1.2,1.2,0,0,0-.5,1,40.1,40.1,0,0,1-.5,5.4,1.2,1.2,0,0,0,.2,1l1,.5h1a1.2,1.2,0,0,0,.5-1ZM116.6,765.9l-.8-.5h-1a1.3,1.3,0,0,0-.5.8c-.3,2-.5,3.8-.8,5.6a1.3,1.3,0,0,0,.3,1l1,.5h1a1.3,1.3,0,0,0,.5-1,38.4,38.4,0,0,1,.8-5.3A1.8,1.8,0,0,0,116.6,765.9Zm10.2,15.2a1.3,1.3,0,0,0,.5-1,1.6,1.6,0,0,0-.5-1l-1-.5H120l-1,.5a1.6,1.6,0,0,0-.3,1,1.3,1.3,0,0,0,.5,1h7.6Zm11.8,0a1.3,1.3,0,0,0,.5-1,1.6,1.6,0,0,0-.5-1l-1-.5h-5.8l-1,.5a1.6,1.6,0,0,0-.3,1,1.3,1.3,0,0,0,.5,1h7.6Zm23.5-.7a1.3,1.3,0,0,0,.3-1,.9.9,0,0,0-.5-.9h-1l-5.8.3-1,.5a1.6,1.6,0,0,0-.3,1c0,.4.2.8.5.7h1l5.5-.2Zm58.6-285.3a1.3,1.3,0,0,0,.5,1h7.8l.3-.3a1.3,1.3,0,0,0-.3-1.8l-1-.6h-5.8l-1,.6A1.6,1.6,0,0,0,220.7,495.1ZM1003,829.3a3.7,3.7,0,0,0-.3-1.1h-.3l-3.1,1.6v1c1.2.3,1.2.7,1.3,1s.1.5.3,1.5h.3l.8-2.3v-.8C1002.9,830,1002.9,829.7,1003,829.3Zm-2.9,4.4,1.9,1v.5c-3.8.3-3.9.7-4,1a11.3,11.3,0,0,0,0,2.3h.8l.6-2.3v-1.8c1.3-.3,1.3-.7,1.3-1Zm-16.2-.3-.2,1.4v.8c-.6.3-.6.3-.3.4h2.9l.8-1,.5-.8c.3-.3.3-.3,0-.9Zm8.4,2.6c.3-1.2.3-1,0-1l-.5.8-.8-2.4h-2.9c-.3,3.2-.3,3-.3,3l.5-.8.8.4h3.1Zm2.9-1.2-.5.5-.5,1v.8c0,.3,0,.3.2.3l2.1-.5.5-.5-.2-.8v-1c.7,0,.7-.3.5-.3Zm-24.6,6.5-1.6,1.4a1.3,1.3,0,0,0-.3.8,1.1,1.1,0,0,1-.7,1v2h1l1.6-2.5a1.3,1.3,0,0,0,.3-.8,1.4,1.4,0,0,0-.2-1v-.9Zm2.6-5.2-2.6,3v.8c1,.3,1,.7,1,1s.1.7.3.4h.3l1.1-.7v-.8a.9.9,0,0,0,.5-1c0-.4-.1-.7-.3-2.7Zm5.3.1c-.5-.3-.5-.7-.6-.1h-.3l-2.1-.2.3.5v1c-.9.3-.9.7-.8,1.2h.3l2.1-1,1.1-.5Zm5.2-2.1c-.8-.3-.8-.3-1.1-.6h-2.1l-.5.9,1.1,1v.7h.7l.5-.2,1.3-.8Zm-34.3,30.6c0-.4-.1-.7-.3-2.4h-.3l-1.8,2.7v.8a3.1,3.1,0,0,1,.2,1c0,.4.1.7.3.7h.3l1.9-1v-.8A1.8,1.8,0,0,1,949.4,864.6Zm.3-2.1v.8a1.3,1.3,0,0,1,.5,1c0,.4.1.7.3.4h.3l1.6-.7v-.8a7.1,7.1,0,0,0,0-1c0-.4-.1-.7-.3-2.7h-.3Zm3.9-3.4-1.3.5v1c.7.3.7.5.7,1.5h.3l2.1-2-.5-.5v-1c1.1-.3,1.1-.5,1,1h-.3Zm4-2.1a3.2,3.2,0,0,0,0,1,12.6,12.6,0,0,0,.3,1.5h.3l2.1-1.8V857a1.2,1.2,0,0,1-.6-1c0-.4-.1-.7-.3-1.6H959l-1.5,1.9Zm5.2-3.7a15.6,15.6,0,0,0-.3-1.6h-.3l-2.1,1.9v.8a1.3,1.3,0,0,1,.5,1,8.2,8.2,0,0,0,.3,1.5h.3l1.6-1.8v-.8A9,9,0,0,0,962.7,853.4Zm2.7-4.3h.5l-3.1,1.1v.8c1.2.4,1.2.9,0,1.3v2h1.5l1.1-3.1v-.8c.8-.4.8-.9,0-1.3Zm0-2.5v1.8l1.5.7h.3l.8-1.8v-3.5h-.3Zm28.2-109.9-2.1,1.4v.8c.4.3.4.7,0,1v2h.7l1.9-2.8v-.8a.8.8,0,0,1,0-1v-.6Zm3.2-.7v.8l-.3,2.5h2.9v-1.5c-3.2-.3-3.2-.7-3.2-1a1.6,1.6,0,0,1,.3-.8L998,734h1.3v.9Zm5.2-4.5h-1.1l-1.5.9v.8a2.4,2.4,0,0,0,0,1v2.5h.2l2.4-3.3v-.8c-.8-.3-.8-.7,0-1Zm-25.7,13.3-.5.5-.5,1a1.6,1.6,0,0,0-.3.8h.3l2.4-1,.5-.5.5-1a2.4,2.4,0,0,0,.3-.8c0-.3,0-.3-.3-.3Zm5-2.5-.5.5-.5.8a2.3,2.3,0,0,0,0,1h.5l3.1-1.5.8-.5.5-.8c.1-.3.1-.5,0,.2h-.5Zm6-2.4-.5.5-.5,1c-.1.3-.1.5,0,.4h.3l2.1-.7.5-.5.5-1c.2-.3.3-.7.3-.3h-.3Zm-29.8,12v.8c1.2.3,1.2.7,0,1V755H959l1.1-2v-.8a1,1,0,0,0,.5-1,2.4,2.4,0,0,0-.3-.8Zm7.5-2.2-2.1-.4-.5.5-.5,1a3.3,3.3,0,0,0-.3,1.5h.3l2.1-1.2.5-.5.5-1c.2-.3.2-.7.3.2Zm4.4-2.3c.1-.3.1-.7,0-.3h-.3l-2.1.3-.5.5-.5,1a5.3,5.3,0,0,0-.3.7h.3l2.1-.7.5-.5Zm4.4-3.7c0-.3,0-.3-.3-.3l-2.1,1-.5.5-.5,1a2.4,2.4,0,0,0,0,1h.3l2.1-1,.5-.5.5-1A2.9,2.9,0,0,0,973.9,743.7Zm-42.6,66.2h-1.1l-1.5,3.2v.8a2.3,2.3,0,0,0,0,1v.2h.2l2.4-1v-.8c-.8-.3-.8-.7,0-1Zm4.4-13h0l-1.8,2.4c-.3,0-.3.3-.3.8a1.1,1.1,0,0,0,.3,1v1h0l2.1-2.8,1-1.3a1.1,1.1,0,0,0,.3-.8c0-.3,0-.7-.7-1v.7h-.8Zm3.9-7.9-1.6,2.4a1.6,1.6,0,0,0-.3.8c0,.3,0,.7-1.3,1v1h1l1.6-2a1.6,1.6,0,0,0,.3-.8,1.4,1.4,0,0,0-.2-1V789Zm2.6-4.4-.5-.9h-.3l-1.3,2.2a1.6,1.6,0,0,0,0,.8,3.9,3.9,0,0,0,.3,1l.5,1.2h.3l1.3-2.5a1.6,1.6,0,0,0,0-.8Zm0-4a2.1,2.1,0,0,0-.3.8,6.8,6.8,0,0,0,0,1.3,3.1,3.1,0,0,0,.3,1h.3l1.6-1.8a1.8,1.8,0,0,0,.3-1,5.5,5.5,0,0,0,0-1.3v-1h-.3Zm2.1-5.2v.8c1.2.4,1.2.9,0,1.3v1H946l1.1-2.3v-.8a.7.7,0,0,0,0-1.3v-.9h.2Zm3.9-4.2c0,.3,0,.7-1.3,1v1h1l1.3-2a1.6,1.6,0,0,0,.3-.8,8,8,0,0,0,0-1V768h-.3l-1.3,2.4A1.6,1.6,0,0,0,948.3,771.3Zm4.4-6.8-.5-1.6H952l-1.3,2.4a1.6,1.6,0,0,0,0,.8c0,.4.1.7-1,1v1h1.8l1.3-1.8a1.6,1.6,0,0,0,0-.8A4.7,4.7,0,0,0,952.8,764.5Zm1-6.9h-.3l-1,3a2.7,2.7,0,0,1-.2.8v1l.7.4h.3l1-2.3a.9.9,0,0,1,.6-.8v-1Zm.5-2.3c-.1.3-.1.5.6.8v1.5h.3l1.3-1.8c.1-.3.1-.5,1.1-.8v-1l-1.6-1.6h-.3Z"/>
        <g>
          <path d="M342.7,391.7q-4.2,3.9-4.4,54.1t5.2,54.1h31.4" fill="none" stroke="#000" stroke-linecap="round" stroke-linejoin="round" stroke-width="0.5"/>
          <path d="M382,392.5c-1.1,25.7.8,62.5,4.8,110.1h25.9q5.3,0,5.6-55.1t-5.6-54.8h-6.4" fill="none" stroke="#000" stroke-linecap="round" stroke-linejoin="round" stroke-width="0.5"/>
        </g>
      </g>
    </g>
  </g>
</svg>
